<svg width="28" height="19" viewBox="0 0 28 19" fill="none" xmlns="http://www.w3.org/2000/svg">
<path fill-rule="evenodd" clip-rule="evenodd" d="M4.56992 18.3409L4.56963 18.3412L4.58024 18.3502C4.8313 18.5632 5.15644 18.6755 5.48902 18.6661C5.82161 18.6568 6.13957 18.5264 6.37739 18.2993C6.61547 18.072 6.75526 17.7645 6.76528 17.4392C6.77531 17.1139 6.65468 16.7988 6.4307 16.5581L6.43099 16.5578L6.42101 16.5483C4.4163 14.6329 3.2919 12.0375 3.2919 9.33334C3.2919 6.62918 4.4163 4.0338 6.42101 2.11838L6.42129 2.11867L6.43069 2.10856C6.65468 1.86786 6.77531 1.55275 6.76528 1.22746C6.75526 0.902204 6.61547 0.594726 6.37739 0.367351C6.13957 0.140228 5.82161 0.00989701 5.48902 0.000545291C5.15644 -0.00880452 4.83129 0.10343 4.58024 0.316505L4.57997 0.316194L4.56992 0.325809C2.07168 2.71396 0.666625 5.95357 0.666626 9.33334C0.666626 12.7131 2.07168 15.9527 4.56992 18.3409ZM8.39052 14.9556L8.39004 14.9561L8.40398 14.9676C8.65603 15.1741 8.97883 15.281 9.30774 15.2691C9.63665 15.2571 9.95036 15.1269 10.1856 14.9023C10.4211 14.6774 10.5606 14.374 10.5735 14.0524C10.5863 13.7307 10.4714 13.4178 10.2541 13.1759L10.2546 13.1755L10.2416 13.1631C9.17796 12.147 8.58219 10.7709 8.58219 9.33818C8.58219 7.90815 9.1757 6.53465 10.2356 5.51909C10.3701 5.40721 10.48 5.26992 10.5583 5.11518C10.638 4.95761 10.6829 4.7856 10.6899 4.60999C10.6969 4.43437 10.6658 4.25947 10.5989 4.09635C10.5319 3.93326 10.4307 3.78579 10.302 3.66293C10.1734 3.54008 10.0201 3.44443 9.85203 3.3815C9.68396 3.31857 9.5044 3.28958 9.32448 3.29613C9.14456 3.30268 8.96772 3.34466 8.80497 3.41972C8.64505 3.49347 8.50186 3.59773 8.38436 3.72663C6.83103 5.21491 5.95692 7.2326 5.95692 9.33819C5.95692 11.4466 6.83334 13.4668 8.39052 14.9556ZM10.3476 5.01023C10.2828 5.13826 10.1911 5.25213 10.0781 5.34471C8.96932 6.40396 8.34643 7.84041 8.34643 9.33818C8.34643 10.836 8.96932 12.2724 10.0781 13.3317C10.2555 13.5291 10.3483 13.7832 10.3379 14.0431C10.3275 14.3031 10.2147 14.5497 10.0221 14.7337C9.82952 14.9176 9.57128 15.0253 9.29909 15.0352L9.29868 15.0352C9.57088 15.0253 9.82911 14.9176 10.0217 14.7337C10.2143 14.5497 10.3271 14.3031 10.3375 14.0432C10.3479 13.7832 10.2551 13.5291 10.0777 13.3317C8.96891 12.2724 8.34603 10.836 8.34603 9.33819C8.34603 7.84042 8.96891 6.40397 10.0777 5.34472C10.1907 5.25214 10.2824 5.13827 10.3472 5.01024C10.4119 4.88222 10.4482 4.7428 10.4539 4.60073C10.4596 4.45866 10.4345 4.31701 10.3801 4.18464C10.3258 4.05228 10.2434 3.93207 10.1381 3.83154C10.0329 3.731 9.907 3.65233 9.7684 3.60043C9.64997 3.55609 9.52443 3.53211 9.39759 3.52946C9.52457 3.53207 9.65025 3.55603 9.76881 3.60042C9.90741 3.65232 10.0333 3.73099 10.1385 3.83153C10.2438 3.93206 10.3262 4.05227 10.3805 4.18463C10.4349 4.317 10.46 4.45865 10.4543 4.60072C10.4486 4.74279 10.4123 4.88221 10.3476 5.01023ZM6.52963 1.23462C6.52153 0.971802 6.40859 0.721872 6.21392 0.535951C6.01924 0.350031 5.75754 0.242172 5.48235 0.234436C5.46185 0.233858 5.4414 0.233841 5.42101 0.234375C5.44126 0.233852 5.46158 0.233871 5.48194 0.234445C5.75713 0.242182 6.01883 0.35004 6.21351 0.535961C6.40818 0.721882 6.52112 0.971811 6.52922 1.23463C6.53733 1.49745 6.43998 1.75329 6.25709 1.94982C4.20724 3.90837 3.05573 6.56418 3.05573 9.33335C3.05573 12.1025 4.20724 14.7583 6.25709 16.7169C6.43998 16.9134 6.53733 17.1693 6.52922 17.4321C6.52112 17.6949 6.40818 17.9448 6.21351 18.1307C6.01883 18.3167 5.75713 18.4245 5.48194 18.4322L5.48235 18.4322C5.75754 18.4245 6.01924 18.3166 6.21392 18.1307C6.40859 17.9448 6.52153 17.6949 6.52963 17.4321C6.53773 17.1692 6.44039 16.9134 6.2575 16.7169C4.20765 14.7583 3.05614 12.1025 3.05614 9.33334C3.05614 6.56417 4.20765 3.90836 6.2575 1.94981C6.44039 1.75328 6.53773 1.49743 6.52963 1.23462ZM23.4197 18.3502L23.4199 18.3505L23.43 18.3409C25.9282 15.9527 27.3333 12.7131 27.3333 9.33334C27.3333 5.95357 25.9282 2.71396 23.43 0.325808L23.4303 0.325515L23.4197 0.316506C23.1686 0.103431 22.8435 -0.00880338 22.5109 0.000546454C22.1783 0.00989629 21.8603 0.140229 21.6225 0.367353C21.3844 0.594726 21.2447 0.902206 21.2346 1.22746C21.2246 1.55275 21.3452 1.86786 21.5692 2.10856L21.5689 2.10884L21.5789 2.11837C23.5836 4.0338 24.708 6.62918 24.708 9.33334C24.708 12.0375 23.5836 14.6329 21.5789 16.5483L21.5786 16.548L21.5692 16.5581C21.3452 16.7988 21.2246 17.1139 21.2346 17.4392C21.2447 17.7645 21.3844 18.072 21.6225 18.2993C21.8603 18.5264 22.1783 18.6568 22.5109 18.6661C22.8435 18.6755 23.1686 18.5632 23.4197 18.3502ZM19.6471 14.9676L19.6475 14.9681L19.6606 14.9556C21.2177 13.4668 22.0942 11.4465 22.0942 9.33818C22.0942 7.23259 21.22 5.2149 19.6667 3.72662C19.5492 3.59773 19.406 3.49346 19.2461 3.41971C19.0834 3.34466 18.9065 3.30268 18.7266 3.29613C18.5467 3.28957 18.3671 3.31857 18.1991 3.3815C18.031 3.44443 17.8777 3.54007 17.7491 3.66292C17.6204 3.78579 17.5192 3.93325 17.4522 4.09635C17.3852 4.25946 17.3542 4.43437 17.3612 4.60998C17.3682 4.78559 17.4131 4.95761 17.4928 5.11518C17.571 5.26992 17.681 5.40721 17.8155 5.5191C18.8754 6.53465 19.4689 7.90815 19.4689 9.33818C19.4689 10.7709 18.8731 12.147 17.8095 13.1631L17.809 13.1626L17.797 13.1759C17.5797 13.4178 17.4648 13.7307 17.4776 14.0524C17.4904 14.374 17.63 14.6774 17.8655 14.9023C18.1007 15.1269 18.4144 15.2571 18.7433 15.2691C19.0722 15.281 19.3951 15.1741 19.6471 14.9676ZM19.1468 3.6319C19.2808 3.69373 19.4 3.78133 19.497 3.88923C21.0091 5.33496 21.8584 7.29479 21.8584 9.33818C21.8584 11.3816 21.0091 13.3414 19.497 14.7871C19.3072 14.9427 19.0673 15.0301 18.8186 15.0357C19.0672 15.03 19.3069 14.9426 19.4966 14.7871C21.0087 13.3414 21.858 11.3816 21.858 9.33819C21.858 7.2948 21.0087 5.33497 19.4966 3.88924C19.3996 3.78134 19.2804 3.69374 19.1463 3.63191C19.0123 3.57009 18.8663 3.53538 18.7175 3.52996C18.6955 3.52916 18.6735 3.529 18.6516 3.52948C18.6737 3.52899 18.6958 3.52915 18.718 3.52995C18.8667 3.53537 19.0127 3.57008 19.1468 3.6319ZM22.6699 0.24043C22.8902 0.264064 23.0989 0.352122 23.2664 0.494332C25.7196 2.83936 27.0975 6.01855 27.0975 9.33334C27.0975 12.6481 25.7196 15.8273 23.2664 18.1723C23.0743 18.3355 22.8279 18.4273 22.5721 18.4325C22.8278 18.4272 23.074 18.3354 23.266 18.1724C25.7192 15.8273 27.0971 12.6481 27.0971 9.33335C27.0971 6.01856 25.7192 2.83937 23.266 0.494342C23.0986 0.352218 22.89 0.264134 22.6699 0.24043ZM16.6194 9.33335C16.6194 7.89751 15.4466 6.73353 13.9998 6.73353C13.9815 6.73353 13.9633 6.73372 13.945 6.73409C13.9634 6.73371 13.9818 6.73352 14.0002 6.73352C15.447 6.73352 16.6198 7.8975 16.6198 9.33334C16.6198 10.7297 15.5106 11.8689 14.1189 11.9305C15.5104 11.8687 16.6194 10.7296 16.6194 9.33335ZM16.8555 9.33334C16.8555 7.76828 15.5772 6.49954 14.0002 6.49954C12.4233 6.49954 11.1449 7.76828 11.1449 9.33334C11.1449 10.8984 12.4233 12.1671 14.0002 12.1671C15.5772 12.1671 16.8555 10.8984 16.8555 9.33334Z" fill="#000"/>
</svg>
