<svg width="32" height="32" viewBox="0 0 32 32" fill="none" xmlns="http://www.w3.org/2000/svg">
<path fill-rule="evenodd" clip-rule="evenodd" d="M17.5925 5.48679C17.5925 4.66566 16.9268 4 16.1057 4C15.2845 4 14.6189 4.66566 14.6189 5.48679L14.6189 14.4075L5.48679 14.4075C4.66566 14.4075 4 15.0732 4 15.8943C4 16.7155 4.66566 17.3811 5.48679 17.3811H14.6189L14.6189 26.5132C14.6189 27.3343 15.2845 28 16.1057 28C16.9268 28 17.5925 27.3343 17.5925 26.5132L17.5925 17.3811H26.5132C27.3343 17.3811 28 16.7155 28 15.8943C28 15.0732 27.3343 14.4075 26.5132 14.4075L17.5925 14.4075L17.5925 5.48679Z" fill="#485164"/>
</svg>
