<svg width="240" height="92" viewBox="0 0 240 92" fill="none" xmlns="http://www.w3.org/2000/svg">
<path fill-rule="evenodd" clip-rule="evenodd" d="M7.05061 0C3.15667 0 0 3.15666 0 7.05061V63.7186C0 67.6126 3.15667 70.7692 7.05061 70.7692C9.86615 70.7692 12.2962 69.1189 13.4263 66.7328C17.3069 69.285 21.9474 70.7692 26.9333 70.7692C40.5621 70.7692 51.6105 59.6797 51.6105 46C51.6105 32.3203 40.5621 21.2308 26.9333 21.2308C22.2333 21.2308 17.8402 22.5496 14.1012 24.8388V7.05061C14.1012 3.15667 10.9446 0 7.05061 0ZM26.9333 56.6357C21.0813 56.6357 16.3372 51.8739 16.3372 46C16.3372 40.1261 21.0813 35.3644 26.9333 35.3644C32.7854 35.3644 37.5294 40.1261 37.5294 46C37.5294 51.8739 32.7854 56.6357 26.9333 56.6357ZM56.1229 7.05061C56.1229 3.15666 59.2796 0 63.1735 0C67.0675 0 70.2241 3.15667 70.2241 7.05061V63.7186C70.2241 67.6126 67.0675 70.7692 63.1735 70.7692C59.2796 70.7692 56.1229 67.6126 56.1229 63.7186V7.05061ZM177.957 84.9494V67.1612C181.696 69.4504 186.09 70.7692 190.79 70.7692C204.418 70.7692 215.467 59.6797 215.467 46C215.467 32.3203 204.418 21.2308 190.79 21.2308C185.804 21.2308 181.163 22.715 177.283 25.2672C176.152 22.8811 173.722 21.2308 170.907 21.2308C167.013 21.2308 163.856 24.3874 163.856 28.2814V84.9494C163.856 88.8433 167.013 92 170.907 92C174.801 92 177.957 88.8433 177.957 84.9494ZM201.386 46C201.386 40.1261 196.642 35.3644 190.79 35.3644C184.938 35.3644 180.193 40.1261 180.193 46C180.193 51.8739 184.938 56.6357 190.79 56.6357C196.642 56.6357 201.386 51.8739 201.386 46ZM134.667 21.2308C148.295 21.2308 159.344 32.3203 159.344 46L159.343 46C159.343 59.6793 148.295 70.7685 134.667 70.7685C129.134 70.7685 124.026 68.9407 119.91 65.8539C123.24 62.3916 125.707 58.0879 126.963 53.2916C128.89 55.3504 131.626 56.6357 134.667 56.6357C140.519 56.6357 145.263 51.8739 145.263 46C145.263 40.1261 140.519 35.3644 134.667 35.3644C128.815 35.3644 124.091 40.1261 124.091 46C124.091 59.6797 113.042 70.7692 99.4136 70.7692C85.7848 70.7692 74.7365 59.6797 74.7365 46H88.8175C88.8175 51.8739 93.5615 56.6357 99.4136 56.6357C105.266 56.6357 109.99 51.8739 109.99 46C109.99 32.3203 121.038 21.2308 134.667 21.2308ZM99.4136 35.3644C93.5615 35.3644 88.8175 40.1261 88.8175 46L74.7372 46C74.7372 32.3207 85.7852 21.2315 99.4136 21.2315C104.947 21.2315 110.054 23.0593 114.17 26.1461C110.84 29.6085 108.374 33.9122 107.117 38.7084C105.19 36.6496 102.454 35.3644 99.4136 35.3644ZM226.037 17.3983C224.642 18.6318 224.521 20.7591 225.625 22.2604C229.536 27.5771 232.065 33.8274 232.933 40.4424C233.82 47.2087 232.93 54.0579 230.395 60.3244C229.695 62.0534 230.338 64.0843 231.994 64.9326C233.65 65.781 235.69 65.1252 236.411 63.4053C239.524 55.984 240.648 47.8521 239.642 39.824C238.636 31.7957 235.54 24.1966 230.694 17.7801C229.571 16.293 227.432 16.1648 226.037 17.3983ZM221.523 24.7676C220.679 23.6511 219.074 23.5553 218.026 24.4816C216.977 25.4088 216.887 27.008 217.717 28.1364C220.636 32.1044 222.524 36.7692 223.171 41.7063C223.835 46.7696 223.166 51.8951 221.262 56.582C220.733 57.8821 221.215 59.4111 222.461 60.0493C223.704 60.6858 225.234 60.1954 225.777 58.906C228.14 53.2967 228.985 47.1318 228.186 41.0436C227.407 35.1033 225.098 29.4989 221.523 24.7676Z" fill="url(#paint0_linear_0_84)"/>
<defs>
<linearGradient id="paint0_linear_0_84" x1="95.8235" y1="-18.4512" x2="61.6631" y2="89.1718" gradientUnits="userSpaceOnUse">
<stop stop-color="#F78361"/>
<stop offset="0.458333" stop-color="#F77562"/>
<stop offset="1" stop-color="#F54B64"/>
</linearGradient>
</defs>
</svg>
