<svg width="34" height="30" viewBox="0 0 34 30" fill="none" xmlns="http://www.w3.org/2000/svg">
<path fill-rule="evenodd" clip-rule="evenodd" d="M5.88541 11.6667H12H22H28.1147L26.0244 25.2534C25.8993 26.0665 25.1997 26.6667 24.3771 26.6667H9.62297C8.80035 26.6667 8.10077 26.0665 7.97568 25.2534L5.88541 11.6667ZM23.6667 6.66667V8.33333H28.1147H32C32.9205 8.33333 33.6667 9.07952 33.6667 10C33.6667 10.9205 32.9205 11.6667 32 11.6667H31.4487C31.4484 11.8335 31.4355 12.0028 31.4092 12.1735L29.319 25.7603C28.9437 28.1994 26.845 30 24.3771 30H9.62297C7.15511 30 5.05637 28.1994 4.68111 25.7603L2.59084 12.1735C2.56458 12.0028 2.5517 11.8335 2.55137 11.6667H2.00004C1.07957 11.6667 0.333374 10.9205 0.333374 10C0.333374 9.07952 1.07957 8.33333 2.00004 8.33333H5.88541H10.3334V6.66667C10.3334 2.98477 13.3181 0 17 0C20.6819 0 23.6667 2.98477 23.6667 6.66667ZM13.6667 6.66667V8.33333H20.3334V6.66667C20.3334 4.82572 18.841 3.33333 17 3.33333C15.1591 3.33333 13.6667 4.82572 13.6667 6.66667ZM17 23.3333C16.0796 23.3333 15.3334 22.5871 15.3334 21.6667V16.6667C15.3334 15.7462 16.0796 15 17 15C17.9205 15 18.6667 15.7462 18.6667 16.6667V21.6667C18.6667 22.5871 17.9205 23.3333 17 23.3333ZM10.3334 21.6667C10.3334 22.5871 11.0796 23.3333 12 23.3333C12.9205 23.3333 13.6667 22.5871 13.6667 21.6667V16.6667C13.6667 15.7462 12.9205 15 12 15C11.0796 15 10.3334 15.7462 10.3334 16.6667V21.6667ZM20.3334 21.6667C20.3334 22.5871 21.0796 23.3333 22 23.3333C22.9205 23.3333 23.6667 22.5871 23.6667 21.6667V16.6667C23.6667 15.7462 22.9205 15 22 15C21.0796 15 20.3334 15.7462 20.3334 16.6667V21.6667Z" fill="black"/>
</svg>
