<svg id="Layer_1" data-name="Layer 1" xmlns="http://www.w3.org/2000/svg" viewBox="0 0 540.53 352.74"><defs><style>.cls-1{fill:#fff;}.cls-2{fill:#f8f7fb;}.cls-3{fill:#e8e4f2;}.cls-4{fill:#f392bc;}.cls-5{fill:#ef5a9a;}.cls-6{fill:#b7bce0;}.cls-7{fill:#ef5a99;}.cls-8{fill:#fec35a;}.cls-9{fill:#fcc25a;}.cls-10{fill:#5d58a6;}.cls-11{fill:#e9e5f1;}.cls-12{fill:#dfa875;}.cls-13{fill:#cfcae3;}.cls-14{fill:#d3cce4;}.cls-15{fill:#beb4d9;}.cls-16{fill:#382c72;}.cls-17{fill:#acbce1;}.cls-18{fill:#7e78b8;}.cls-19{fill:#392c72;}.cls-20{fill:#5d59a6;}.cls-21{fill:#ef5898;}.cls-22{fill:#adbde1;}.cls-23{fill:#abb2d9;}.cls-24{fill:#f5c3b6;}.cls-25{fill:#392e73;}.cls-26{fill:#615aa7;}.cls-27{fill:#8c89c2;}.cls-28{fill:#e2deef;}.cls-29{fill:#f5c3b8;}.cls-30{fill:#f8c5b8;}.cls-31{fill:#f5b3a6;}.cls-32{fill:#f4c4bb;}.cls-33{fill:#d9ac9c;}.cls-34{fill:#e4bbbb;}.cls-35{fill:#795b82;}.cls-36{fill:#7f70b3;}.cls-37{fill:#e9bcbb;}.cls-38{fill:#8d8ac3;}.cls-39{fill:#ef5899;}.cls-40{fill:#807bba;}.cls-41{fill:#fcf9fc;}.cls-42{fill:#746cb1;}.cls-43{fill:#7d74b6;}.cls-44{fill:#faf9fb;}.cls-45{fill:#f5c3b5;}.cls-46{fill:#f7c4b6;}.cls-47{fill:#f6c6bb;}.cls-48{fill:#544a8a;}.cls-49{fill:#cb9ea4;}.cls-50{fill:#f2d1ce;}.cls-51{fill:#5d538e;}.cls-52{fill:#645896;}.cls-53{fill:#8476b2;}.cls-54{fill:#a5a8d5;}.cls-55{fill:#f7f6f9;}.cls-56{fill:#8a86c0;}.cls-57{fill:#f5f6fb;}.cls-58{fill:#ebeaf3;}.cls-59{fill:#f494be;}.cls-60{fill:#f093ba;}.cls-61{fill:#fcf7f9;}.cls-62{fill:#f4f0f3;}.cls-63{fill:#efb6b8;}.cls-64{fill:#605290;}.cls-65{fill:#564a8a;}.cls-66{fill:#e7d1da;}.cls-67{fill:#fdf9fb;}.cls-68{fill:#f3e1e4;}.cls-69{fill:#caa7c4;}.cls-70{fill:#9597ca;}.cls-71{fill:#ced2ea;}.cls-72{fill:#f0bb69;}.cls-73{fill:#a5758c;}.cls-74{fill:#9b9cce;}.cls-75{fill:#9ea0d0;}.cls-76{fill:#fefdfe;}.cls-77{fill:#7b76b7;}.cls-78{fill:#f5c66f;}.cls-79{fill:#f6f4f6;}.cls-80{fill:#ef5999;}.cls-81{fill:#dad5e9;}.cls-82{fill:#e1dded;}.cls-83{fill:#b2c0e3;}.cls-84{fill:#b2c1e3;}.cls-85{fill:#eae7f2;}.cls-86{fill:#fbc869;}.cls-87{fill:#fbc86a;}.cls-88{fill:#fcc35e;}.cls-89{fill:#fcc259;}.cls-90{fill:#d0cae3;}.cls-91{fill:#c6bfdf;}.cls-92{fill:#605aa7;}.cls-93{fill:#fbf6f9;}.cls-94{fill:#cfcfcf;}.cls-95{fill:#f4c5da;}.cls-96{fill:#f5cbdd;}.cls-97{fill:#f5bfd6;}.cls-98{fill:#f5c9dd;}.cls-99{fill:#f4f1f6;}.cls-100{fill:#faf9fc;}.cls-101{fill:#fcfbfb;}.cls-102{fill:#fbfafb;}.cls-103{fill:#fbfafa;}.cls-104{fill:#faf9fa;}.cls-105{fill:#f9f8fa;}.cls-106{fill:#e85c9d;}.cls-107{fill:#a69ccc;}.cls-108{fill:#beb6d7;}.cls-109{fill:#f07ba9;}.cls-110{fill:#eb6ca2;}.cls-111{fill:#ec6ca0;}.cls-112{fill:#fec35b;}.cls-113{fill:#fdda9a;}.cls-114{fill:#7c6daf;}.cls-115{fill:#fcfbfa;}</style></defs><path class="cls-1" d="M498.49,338.44c.74,1.2,1.89,2.33-.95,2.34-5.8,0-11.61-.44-17.4.61-1.9.35-3.05.51-3,2.79s-1.4,3.49-3.65,3.36c-3.23-.19-6.86,1.23-9.05-2.91-.83-1.57-3-1.23-4.38,0-2.47,2.13-5.07,1.89-7.7.56a7.49,7.49,0,0,0-5.89-.32c-4.4,1.49-8.17,2.28-12.53-1.21-2.35-1.89-7.05-1.67-10.15.15-4.86,2.87-10.14,2.34-15.31,3a1.33,1.33,0,0,1-1.06-.3c-3.08-4.46-6.59-1.28-10.16-.93-5.57.56-11.17,1.77-16.86.68a28.29,28.29,0,0,0-5.68-.14c-2.79,0-5.58.23-7.92-1.82-.91-.8-2.19-.47-3.32-.47H221.33c-1.67,0-3.23,0-4.54,1.37-1.9,2-4.38.68-6.52.7-4.27,0-8.62,1.37-12.78-1.66-1.9-1.39-4.85,0-7.06,1.25-.87.48-1.77,1.57-2.64,1.26-4.23-1.5-8.49.86-12.69-.3-2.64-.73-5.16.82-7.85.49-2.05-.24-3.89-.24-5.34-2.15s-3.65-2.09-5.15-.1c-2.11,2.8-5,2.81-7.51,1.84-2.7-1-4.84-1-7,.54-1.31.91-3.12-.05-4.22,1.33h-21.3c-2.59-2.38-5.67-3-9.1-2.76a24.64,24.64,0,0,1-6.06-.29c-1.15-.18-2.41-.34-3.26.53-3.26,3.35-7.37,1.87-11.17,2.05a3,3,0,0,1-3-2.45c-.56-2.28-2.16-2.83-4.18-3.14a55.78,55.78,0,0,0-7.19-.48c-12-.29-24,0-35.95-.74-5-.33-5.87-1.32-5.78-6.28a45.55,45.55,0,0,0-.71-8.68c-.89-5.18.26-10.34-.42-15.51-.51-3.85.9-5.58,4.63-6.64,3-.86,3.9-3.05,3.38-5.51-1.38-6.43.71-12.88-.46-19.28a2.9,2.9,0,0,1,.16-1.87c3.22-5.57-.24-11-.26-16.52,0-1.89-1.37-2.75-3.08-3.37-4-1.45-4.67-2.7-4.23-6.84.08-.75.24-1.5.28-2.26.27-5-.92-6.12-5.75-5.55a24.81,24.81,0,0,1-5.31.08c-2.41-.24-4.12-1.46-4.48-3.9a4.55,4.55,0,0,0-3.65-4.23,5.24,5.24,0,0,1-3.91-4.25c-.41-2-1.35-3.13-3.48-3.29C2,227,1.08,225.75.33,224.37v-5.32a7,7,0,0,0,1.09-6.39c-1-3.85.4-5.85,4.19-6.66,6.15-1.32,12.36-.47,18.54-.54,2.66,0,4.32,3,7.61,2.31,6-1.25,12.05-1.27,16.07-7.37,1.68-2.55,5.24-4.05,8-5.76,3.76-2.32,6.84-5.68,11-7.31,2.58-1,1.9-3.41,2.35-5.19,1.43-5.59,2.62-7.13,8.45-7.07,4.16.05,6.91-1.74,9.54-4.46,3.4-3.52,7.3-6.64,10.24-10.5a55.68,55.68,0,0,0,6.93-12.44c1.24-3,3.08-5.77,3.61-9.12.33-2.06.31-3-2.09-3.24-2.82-.29-4.49-1.25-4.44-5.06,0-3-1.38-6.23-2-9.41-.69-3.82.13-5.2,4-6,2-.43,3.32-1.06,3.57-3.58.2-2,.51-4,.53-6,.05-4.36,1-5.33,5.28-5.58,2.13-.13,4.24-.52,6.36-.79,1.37-.17,1.79-1.06,2.08-2.3.86-3.69,1.89-7.33,2.78-11,.52-2.13,1.22-4.07-.64-6.26a3.15,3.15,0,0,1,2.26-5.14c1.94-.11,2.16-1,2.7-2.33a125.13,125.13,0,0,1,11.12-22c3.25-5,7.54-9.3,11.74-13.63,7.69-7.91,17.4-12.16,27.23-16.31a6.91,6.91,0,0,0,2.89-2.3c1.13-1.43,2.71-2.13,4.35-1.23,2,1.12,4.06.7,5.87.09,6.22-2.1,12.85-1.88,19.18-3.91,4.19-1.34,9.37,0,13.16,3.45-1.22,1.25-2.83,1-4.3.95a119.66,119.66,0,0,0-36,5.08c-19.5,5.82-34,17.83-44.12,35.47C132.37,70,127.92,83.35,125.1,97.33a14.73,14.73,0,0,1-6.29,9.18c-4.73,3.43-7.12,8.81-11.22,12.78-2.23,2.16-.68,8.43,2,10.62,4.66,3.76,4.12,3.72,2.56,9.55-2.11,7.83-6.49,14.51-9.66,21.79-1.33,3.05-4.13,4.76-6.21,7.11-3.76,4.27-7.55,8.58-13,10.93a6.93,6.93,0,0,1-1.68.38c-3-.29-4.9.67-5.74,4a11.8,11.8,0,0,1-7.14,7.87,16.54,16.54,0,0,0-5.41,4.05c-1,1-1.45,1.89-.7,3.32,1.28,2.43.11,3.76-2.35,3.6-2.87-.2-2.84,1.5-2.56,3.36.38,2.45,1.52,4.76.71,7.41-.47,1.56,1.18,1.6,2.23,1.91,4.75,1.41,5,1.78,4.71,6.57a109.46,109.46,0,0,1-7,8.62c-3.13-.24-6.76.13-8.87-2.41a7.08,7.08,0,0,0-6-2.89,3.71,3.71,0,0,1-1.76-.67,4.08,4.08,0,0,1-2-2.85c-.46-6.8-3.26-8.69-9.67-6.31a7.4,7.4,0,0,1-6.54-.17,14.58,14.58,0,0,0-4.33-1.32,4.65,4.65,0,0,1-1-.41c-1.76-1.41-3.56-2.56-6-2.49-2.08.05-3.37.65-3.32,2.94,0,.68,0,1.36,0,2,0,2.45,1,4.2,3.56,4.76A16.65,16.65,0,0,1,21,228.78a11,11,0,0,0,8.49,6.72,25.5,25.5,0,0,1,3.23,1.08,7.9,7.9,0,0,1,5.81,7.58c.29,5.18,2.28,8.94,7.75,10.22a10.38,10.38,0,0,1,4,2.08c2,1.6,3.32,3.5,1.83,6.18-3.09.59-4.24,2.38-3.92,5.56a73.8,73.8,0,0,1,.3,9.41c0,1,0,2,0,2.93a17,17,0,0,0,17.13,15.83c3.16,0,6.31,0,9.47,0,7.62-.05,13.72-2.87,17.74-9.61.67-1.11,1.07-2.69,2.9-2.56,2.45,3,2.71,6.77,3.24,10.24,1.49,9.72,3.78,19.28,5.25,29a7.88,7.88,0,0,1-2.2,7.28,13.17,13.17,0,0,1-7.88,2c-9.8-.07-19.61,0-29.4,0-5.19-.06-10.39,0-15.59,0-8.75,0-11.17-2.33-10-10.94,1.6-11.26,4.35-22.32,5.5-29.76-1,8.19-4.46,19.83-5.63,31.89A9.2,9.2,0,0,0,41.94,332c.36.91.45,2.06,1.78,2.12,6.51.31,12.93,1.55,19.46,1.7,6,.14,12,.77,18,1.09a147.67,147.67,0,0,0,37,1.48,9.22,9.22,0,0,1,5,.28,6.17,6.17,0,0,0,4,.93c16.32-.11,32.61,1,48.94.77,22.63-.32,45.29-.51,67.9.18,21.64.66,43.28.84,64.89.37,33.16-.72,66.32,0,99.46-.78,11.13-.27,22.29.18,33.36-.72,9.12-.74,18.22-.06,27.3-.71,4.36-.31,8.86-.14,13.07-1.74a22.83,22.83,0,0,1,7.82-.27C492.64,338,495.92,336.49,498.49,338.44Z"/><path class="cls-1" d="M.33,224.37c1.68.95,3,2.58,5.45,1.74,1.52-.53,2.2,1,2.12,2.38-.18,3.66,1.86,5.45,5.16,5.67,2.42.16,2.61,1.45,2.48,3.25-.23,3.27,1.35,4.67,4.55,4.47,1.39-.09,2.8.09,4.17-.11,6-.84,8.14,1.28,7.17,7.4-.91,5.78-.91,5.8,4.45,7.44,1.6.49,2.16,1.32,2.61,3.09,1.07,4.21-.63,8.93,2.46,12.77.85,1-.43,1.83-1.11,2.48-1.1,1-1.86,2.27-1.45,3.7,1.81,6.32-1.06,12.69.57,19.12,1.14,4.51-.51,6.05-5.4,7.26-2.34.57-3,2.48-2.75,4.38.85,7.7-.49,15.52,1.37,23.16,0,.12,0,.25,0,.37.74,2.13-2.19,4.81.89,6.53,2.18,1.23,4.93,1,7,.72,4.25-.54,8.29,1,12.38.49,7.43-1,14.82.57,22.22,0,2.83-.22,5.46.95,8.25.83,1.31,0,1.78.78,1.74,2-.11,3.48,2,4.22,4.93,4.11s6.16.62,7.83-3c.45-1,1.82-1,2.76-.7,3.1,1,6.3.84,9.4.58,3.41-.28,5.85.49,7,3.89q-56.85,0-113.7.06c-2.27,0-2.73-.45-2.72-2.72Q.39,285,.33,224.37Z"/><path class="cls-2" d="M333.45,3.08c-4.17,5.25-4.2,5.25-8.36,0Z"/><path class="cls-2" d="M83.23,178.75c6.89-3.95,12.43-9.81,16.84-15.9,4.12-5.69,8-12.19,9.7-19.43a21.56,21.56,0,0,1,2.16-6c1.51-2.63.76-4.47-1.72-6-5.86-3.6-6.4-10-1.44-14.57,1.16-1.08,1.82-2.69,2.78-4a43.86,43.86,0,0,1,8.7-8.83,10.44,10.44,0,0,0,3.91-6.74,122.21,122.21,0,0,1,16.1-43,80.42,80.42,0,0,1,20.05-21.84C171.23,24.1,183.89,20.5,196.8,17.8A105.59,105.59,0,0,1,223.93,16c18.95.7,37.4,4.5,55.89,8.41,12.63,2.67,25.25,5.48,38.16,7.06,14.49,1.77,29.18,1.7,43.51,4.44,12.33,2.37,23.82,6.69,33.35,15.78,12,11.48,18.76,25.71,23.89,41a180.12,180.12,0,0,1,5.58,22.63c1.07,5.46,3.31,10.85,4.06,16.43a136.29,136.29,0,0,0,5.11,23.45c1.65,5.14,2.32,10.75,5.48,15.68s5.91,10.19,6.91,16.11a3.31,3.31,0,0,1,0,1.5c-.94,2.75-1.17,4.37,2.88,3.53,2.44-.51,4.43,1.71,4.51,4.14.06,2.22-.87,4.58-3.95,4.58q-20.71,0-41.43,0c-.5,0-1.25.09-1.47-.18-1.72-2.16-3.73-1.28-5.83-.88-.88.17-1.79.53-1.54,1.14,1,2.42-.57,4.83,0,7s.15,3.82-1.72,5.83c7.52,0,14.31,0,21.11,0,1.75,0,2.36-1.22,3-2.49s1.27-2.42,2.83-1.83c1.32.5,2.87.51,3.55,2.4,1,2.88,2.81,5.52.23,8.52a2.74,2.74,0,0,0,0,2.93c2.76,4.8.17,9.53-.22,14.33-1.21-2.88-.58-6-.85-8.92-.14-1.51.85-4.17-1.21-4.17-2.26,0-.92,2.6-1,3.95-.18,5.57.48,11.22-.23,16.7-.74,5.66,2.18,9.08,5.47,12.65-1.87,1.61-4,1.1-6.08.7a2.1,2.1,0,0,1-1-.92c-.27-11-.16-21.95,0-32.92a22.6,22.6,0,0,1,1-4.42c.71-3.34-.09-4.46-3.53-4.52-7.83-.15-15.65,0-23.48-.07-1.87,0-3.82.26-5.48-1a1.66,1.66,0,0,1,.4-2.34c4.7-4.58,4.1-10.17,3.13-15.84-.28-3,1-3.9,4.05-3.7,9.59.64,14.15-6.3,10-15.08-3.49-7.44-7.64-14.54-11.34-21.88-1.41-2.8-3.82-4.21-6.8-5-4.41-1.13-9-1.58-13.34-2.82a4.28,4.28,0,0,1-2.3-4c0-.76.19-1.7.85-2,3.29-1.43,3.08-4,2.36-6.75a13.86,13.86,0,0,0-1-11.67,4.84,4.84,0,0,0-1.26-1.85c-3.25-2.36-14-2.64-17.46-.46a6.13,6.13,0,0,0-2.49,8.11,10.71,10.71,0,0,1,1,3.62,11.71,11.71,0,0,0,.92,4.37c2,3.25,2,7.13,3.28,10.64a3.27,3.27,0,0,1-.86,3.44c-2.23,1.79-5.59,1.81-7.25,4.54-.58,1-1.67,1.93-1.3,3,.5,1.45,2,.59,3,.53,3.12-.17,4.44,1.86,5.56,4.25a13.92,13.92,0,0,1,1.33,4.31c0,1.32,1.67,2.61.29,3.87s-2.86.67-4.32.16a8.37,8.37,0,0,0-2.91-.77,11.29,11.29,0,0,1-1.65-.22c-2.79-.93-1.32-1.8.14-2.72-1.47-.5-3,0-4.36-.57-2.63-.92-2,1.69-2.87,2.66-.19.51-.37,1-.55,1.52-1.18,2.92-2.54,5.76-3.05,8.92-.69,4.26.83,9.08,3.91,10.7,3.8,2,7.46,1.61,10.92-1.16,2.51-2,3.7-1.63,4.43,1.54.59,2.53,2.39,5.3-.38,7.74-2.89,1.52-6.15,1.32-9.23,1.88q-7.67,1.39-15.15,3.47-8,2.26-6.76,10.57c1.69,11.24,4.07,22.37,6.18,33.54,1.17,6.2,2.12,12.45,3.35,18.64.43,2.13.9,4.21,2.36,5.91a6.49,6.49,0,0,1,1.25,6.9c-1.3,4.52-2.84,8.89-5.83,12.67-2.63,3.34-1.89,4.8,2.37,5.23a7.72,7.72,0,0,1,3,.57c1.32.92,1.4,2.32,1.4,3.7,0,8,.25,16-.14,24-.33,1.64-1.59,2.19-3,2.35-6,.68-12,.08-18-.63a2.27,2.27,0,0,1-1.51-1,3,3,0,0,1-.17-1.38c3.37-6.44,3.13-13.4,3.12-20.39q-.1-94.63,0-189.28c0-11.78-.25-23.57,0-35.34.19-8-2.89-14-9.45-18.27-2.32-2.16-5.36-1.66-8.12-2.2a9.49,9.49,0,0,0-3.39-.37q-50.16,0-100.32,0c-8,0-13.75,3.78-17.46,10.72-1.9,3.57-1.94,7.57-1.95,11.49,0,16.22,0,32.43,0,48.64,0,1,.07,2,0,3-.17,2.07.68,4.67-1.59,5.88-2.1,1.12-3.72-.9-5.47-1.83-5.68-3-10.86-7-17.09-9-3.13-1-2.33-3.74-2.1-6.11,2.35-2.82,2.86-6.34,3.7-9.75.77-3.06-1.81-5.49-1.51-8.45,1.11-7.1-2.23-10.49-9.41-9.54-.86.11-1.7.37-2.58.42-1.92.07-3.71-.64-5.56-1-5.94-1.22-10.67.77-14.29,5.5a52.39,52.39,0,0,1-4,5c-6.45,2.79-10.36,8.23-14.26,13.69-3,4.25-2.34,7.48,2,10.52,5.1,3.54,10.84,5.94,16.07,9.24a10.14,10.14,0,0,1,4.78,6c1.72,6.32,4.08,12.62.65,19.11A47.06,47.06,0,0,1,129,174.07a49.73,49.73,0,0,0-5.2,26.7c-.09,2.14,0,4.29-.06,6.43-.07,5-3.89,9-8.69,7.92-7.38-1.67-11.48,1.77-14.55,7.66-2.47,4.73-6.27,7.46-11.64,7.85a7,7,0,0,1-3.34-.41c-4.26-3.88-4.69-7.87-1.33-12.3a11.27,11.27,0,0,1,1.23-1.44c4.84-4.52,5.49-10,3.56-16-1.15-3.59-.83-7.29-.66-10.93C88.57,184.94,87.74,181,83.23,178.75Z"/><path class="cls-3" d="M490.12,337.68h-7.6a87.36,87.36,0,0,1-18.09,1.39c-16.72-.05-33.41.74-50.12,1-30,.5-60,.3-90,.72-23.18.33-46.36.34-69.53.17-13.68-.1-27.35-.16-41-.28a6.84,6.84,0,0,1-3-.35c-1-.85-.44-1.48.31-2,1.09-.81,2.53-1.11,3.31-2.34.57-1,1.35-2.15,2.58-1.92,4.27.77,8.49-1.22,12.82.08a15.8,15.8,0,0,0,7.55,0c4.55-1,9-.22,13.53.12a56.71,56.71,0,0,0,5.68.1c8.58-.18,17.14.5,25.7.5a114.86,114.86,0,0,0,14.37-.68c5.05-.65,10.07.79,15.05-.35a12.83,12.83,0,0,1,3.58,1.16c1.4.82,2.25,1.31,2.75-1s2.34-1.19,3.26-.32c4.64,4.43,9.83,3.45,15.13,1.79a3.2,3.2,0,0,1,2.19-.31c3.13,1.26,6.19.23,9.25-.25,4.28-.67,8.47-1.12,12.57.95,2.12,1.06,4.47,1.29,6.42-.42,1.78-1.54,3.79-1.81,6-1.8,4.3,0,8.59,0,12.89,0,5.13,0,10.32.46,15.28-1.51,9.57-.12,19.13.21,28.69-.13,4.5-.16,9,1.46,13.48.12,19.21,0,38.42,0,57.63-.15,6.31-.05,6.43-.14,6.44-6.28,0-8,.21-15.94-.06-23.89-.24-6.87.83-13.55,1.85-20.27,2.46.07,2.71.61,1.7,3.72,0,1.27,0,2.53,0,3.8a32.44,32.44,0,0,0-1.17,9.36c.08,9.36,0,18.73,0,28.09,0,4.45.24,4.68,4.53,5.23,1.88.25,3.74.62,5.64.74.92.06,1.82.35,1.84,1.48s-.76,1.52-1.58,1.91a5.13,5.13,0,0,1-1.86.32C508.78,337,499.47,337.62,490.12,337.68Z"/><path class="cls-4" d="M509.07,281.45a8.18,8.18,0,0,1-.17,7.62c-.75,1.3-.48,2.71-.49,4.08,0,11.77-.14,23.54.08,35.31.07,3.76-1.28,4.7-4.82,4.68-20.25-.12-40.5,0-60.75,0a.93.93,0,0,1,.39-1.23,4.78,4.78,0,0,1,1.33-.52c11.51-.46,23-.09,34.56-.21,1.4,0,2.79-.05,4.18,0,2.67,0,4-1.16,4-3.86,0-2,.08-4.05,0-6.08-.26-11.26.63-22.54-.67-33.78-.34-3,0-5.88,3.39-7.28,2.11-.85,1.8-2.86,1.83-4.58.12-8.36-.11-16.72.12-25.08.32-1.1.19-2.55,1.94-2.56,1.56,2.31,1.17,4.59-.1,6.85v22.82c3.75,4.4,3.8,9.3,2.82,14.77-.77,4.3-.14,8.83-.17,13.26,0,1.59.51,2.84,2.25,2.91,1.93.07,2.69-1.29,2.66-3-.09-5.44.36-10.86.37-16.28,0-.88-.12-1.76-.06-2.65C502.14,281.23,503.43,280.31,509.07,281.45Z"/><path class="cls-5" d="M437.75,242.34a.41.41,0,0,0-.15-.49c.07-1.66,1.18-2.47,2.51-1.89,3.08,1.37,6.23.73,9.33.73,9.84,0,19.68.27,29.51-.13,4-.16,4.09,2.95,4.74,5.6.64,3.15-.85,4.43-3.86,4.45-11.23.06-22.46.09-33.69,0a7.13,7.13,0,0,1-4.29-1.24C439.41,247.65,438.94,244.79,437.75,242.34Z"/><path class="cls-2" d="M490.12,337.68c.43-.24.87-.7,1.28-.68,8.48.47,16.82-1.05,25.23-1.59,1.58-.1,3.26.18,4.53-1.86-3.2-.42-6.1-1-9-1.14-2.36-.13-3-1.23-3-3.37,0-12.28,0-24.56,0-36.84,0-1.33.12-2.55,1.51-3.19a1.44,1.44,0,0,1,.62,1.64c-3,12.23-.66,24.65-1.32,37-.1,1.89,1.16,3,3.07,3.2,2.49.27,5,.58,7.49.76,1.85.14,4,.4,4,2.53s-2.22,2.58-4,2.76a122.75,122.75,0,0,1-15.46.88c-2.18-.05-4.54-.86-6.59.69C495.7,338.19,492.81,339.09,490.12,337.68Z"/><path class="cls-2" d="M482.6,246.34c-.34-3.83-2-5.5-6.27-5.42-12.07.2-24.15-.14-36.23-.3a2.32,2.32,0,0,0-2.5,1.23c-.88-.83-1-1.84-.15-2.63a2.29,2.29,0,0,1,2.85-.05c1.91,1.5,4.07,1.15,6.19,1.16q13.88,0,27.76,0c1.73,0,3.56.45,5.09-.91.88-.77,1.64-.21,2.31.46,2.44,2.41,5.17,1.86,7.54.22,3.51-2.42,6.89.35,10.35-.11,1.34-.18,1.45,2.16,1.8,3.43.4,1.47-1.08,1.42-1.93,1.8-1,.46-2.1.84-3.16,1.26l-.34-.41c-.64-1.2,1.49-2.94-.44-3.7a5,5,0,0,0-5.62,1.08c-1.06,1.09-2,2.32-3,3.47C485.15,248.94,483.75,248.68,482.6,246.34Z"/><path class="cls-2" d="M509.07,281.45c-5.52,0-5.29,0-6.21,5.51-1.07,6.3-.41,12.6-.6,18.89-.06,2.1-.21,3.81-3,3.75-2.56-.05-3.12-1.46-3.08-3.7.11-6.68-.18-13.36.75-20,.25-1.8.5-3.76-2.1-4.61-1.74-.56-.83-2.37-.94-3.66,5.07,3.23,4.23,8.33,3.55,12.94-.73,4.93-.2,9.81-.49,14.7-.07,1.15.36,2.1,1.55,2.23,1.42.15,2-1,2.15-2.13.18-1.62.07-3.28.1-4.92a26,26,0,0,1,.59-7.12,5.85,5.85,0,0,0-.38-4.41c-2.1-4,0-7.65,4.63-8.27a9.93,9.93,0,0,0,2.53-.66c1.22-.53,2.61-1.21,3.06.59.36,1.49,2.52,3.47-.54,4.65C510.29,283.89,511.65,281.83,509.07,281.45Z"/><path class="cls-2" d="M437.75,242.34c1.82,1.52,2.38,3.81,3.49,5.76,2.89,2.71,2.29,6,1.48,9.27-2.07,2.06-4.29,2-6.6.43,1.27-1.74,2.57-3.42,4.9-4.06C435.24,251.08,439.25,246,437.75,242.34Z"/><path class="cls-6" d="M436.12,257.8c2-.13,4.17.68,6.11-.57,3.12-.83,6.13-.94,8.74,1.4.63,1.76,1.13,3.49-1,4.69-3.18-5-8-4.33-12.47-3s-8.47.35-12.55-1.06a1.26,1.26,0,0,1-1-1.38l6.07-.09Z"/><path class="cls-2" d="M493.92,254.79c0-2.28,0-4.56,0-6.84.35-1.08.93-1.84,2.24-1.57l.1.09C495.7,249.31,497.66,252.84,493.92,254.79Z"/><path class="cls-7" d="M83.23,178.75c4.38.87,6.3,2.54,6,6.81a76.89,76.89,0,0,0,1.8,20.65,8.87,8.87,0,0,1-2.41,8c-.75.86-1.46,1.75-2.23,2.59-4.52,5-4.64,7.17-.72,13,2.21,2.37,2.47,5.07,1.57,8.09a34.73,34.73,0,0,1-3.57,7.51c-2.47,4.22-3,8.45-.88,13,.64,1.36,1.75,3,.09,4.5a14.46,14.46,0,0,1-8.27.14c-2.31-4.66-5.76-8.43-9.46-12a7.39,7.39,0,0,1-2.1-4,71,71,0,0,0-3.79-14.22c.55-2.29,2-4,3.46-5.79,3-3.8,3.28-7.5,1-11.92s-2.13-9.18,1.5-12.67c5.49-5.29,9.61-11.16,11.51-18.62A6.7,6.7,0,0,1,82,178.84Z"/><path class="cls-8" d="M74,262.39l9.28,0c2.4-1.75,5.14-1,7.77-1.07,4.8.21,5.5.81,5.54,5.42,0,3.35.42,6.74-.4,10.06a3.14,3.14,0,0,1-.88,1.22,6.67,6.67,0,0,1-3.67.73q-19.94,0-39.86,0c-1.53,0-3,0-4.28-1.14-.14-4.24-.44-8.48-.35-12.71.07-3.81,3.39-1.79,5.19-2.54,3.7-2.1,7.71-.69,11.57-1,.69,0,1.37,0,2.06,0C68.62,261.51,71.47,260.57,74,262.39Z"/><path class="cls-9" d="M95.23,284.22c-3.85,9-10.59,13.53-20.4,13.16-5.38-.21-10.81.84-16.13-1.39-5.53-2.31-11.24-8.48-11.21-15.2.73-1.67,2.21-2,3.78-2q20.7-.07,41.41,0a5,5,0,0,1,2.54.69C96.61,281.06,96.7,282.64,95.23,284.22Z"/><path class="cls-2" d="M210.23,339.21c1.13,1.23,2.62.73,4,.74,55.6,0,111.2.38,166.8-.2,17.44-.19,34.92.27,52.33-.72,10.37-.6,20.74.08,31.06-.72,6.06-.46,12.1-.54,18.15-.62-3.95,2.59-8.64,2.09-12.82,2.09-17.72,0-35.43.59-53.12,1.14-31,1-62-.39-93,.73q-34.76,1.26-69.47.37c-22.53-.56-45.05,0-67.56-.66-3.64-.1-7.23,0-10.83.15-16.46.51-32.88-1-49.32-.78-1.42,0-2.84.08-3.6-1.48a2.47,2.47,0,0,1,2.79-1.47c13.92.84,27.84,0,41.77.19,9.35.14,18.71.08,28,.81a9.47,9.47,0,0,0,4.13-.37C203.11,338.34,206.78,337.25,210.23,339.21Z"/><path class="cls-10" d="M64.15,262.37a68.2,68.2,0,0,1-11.87,0,6.32,6.32,0,0,0-5.2-6.57c-6.45-1.55-9.64-5.33-9.53-12.09a6,6,0,0,0-5.16-6.2c-6.48-1.13-11-4.33-13.64-10.5-1.21-2.84-4.12-4.32-6.83-5.73-2.45-1-3.3-3.19-3.89-5.53V214c1.38-3.67,3.61-4.67,7.16-3.23A18.08,18.08,0,0,1,18.57,213l0,0c1.7,1,3.78,1.57,4.53,3.73a4.76,4.76,0,0,1,.17,3.2c-2.72-.21-3.18-.4-7.6-3.13,2.5,1.17,3.86,3.87,6.79,3.41a2.93,2.93,0,0,1,1,.24c1.72,1.46,3.78,2.42,5.6,3.75,2,3.11,1.93,3.32-1.29,3.57a15.65,15.65,0,0,0-2.69.48c2-.69,4.54-.18,6.81-1.23a2.08,2.08,0,0,1,2.1.63c3.4,3,7.28,5.51,10.48,8.77.95,1,2.39,2,1.65,3.53-1,2-2.67.28-4.15.48,8.08-.15,12.22,5.29,16,11.17.59.92,1.54,2.06.78,3.12-1,1.36-2.4.33-3.49,0-1.7-.59-3.19-1.82-4.55-1.5a85.4,85.4,0,0,1,10.11,3.32C62.89,257.3,64,259.82,64.15,262.37Z"/><path class="cls-10" d="M23.15,219.79a4.85,4.85,0,0,1-.75-3.08,37.45,37.45,0,0,1,9.93-1.6c4.29-.11,7,2.32,8.23,6.43-.18,1.07.67,1.54,1.25,2.16a15.1,15.1,0,0,1,3,2.8,10,10,0,0,0,7.89,3.77c2.58.13,5.36.08,6.95,2.81,2.53,2.89,3.29,6.47,3.57,10.12.37,4.75,2.71,8.15,6.42,10.91,2.71,2,4.59,4.63,4.3,8.28H65.76c-1.57-1.79.62-3,.69-4.47.26-.47-.62-.13-.12-.07.13,0,.09.12,0,.36-1,2.14-2.17,3.07-3.56.43a44.48,44.48,0,0,0-4.18-5.84,17.19,17.19,0,0,1-3.44-12.09c-.08.8,0,1.59-.09,2.38-.22,2-1.19,2.51-2.75,1.2-4.07-3.43-7.54-7.48-11.41-11.12-1.84-1.73-1.42-4.8-2.62-6.93.1,1,1.42,2.4,0,3.3s-2.6-.28-3.6-1.25c-1.65-1.6-4-2.15-5.55-3.94-2-1.29-3.63-3.12-6-3.78l0,0c-.28-.17-.37-.35-.28-.53S23.06,219.79,23.15,219.79Z"/><path class="cls-3" d="M199.61,339.21c-2.33,1.5-5,1-7.35.66-10.34-1.33-20.69-.45-31-.63q-15.75-.25-31.5.08c-2.33.05-4.64-1.73-7-.07H118.2a.66.66,0,0,1-.9-.56,1.72,1.72,0,0,1,.86-.86c5.16-2.87,10.47-.28,15.71-.39,6.42-.14,7.42-1.12,6.75-7.61-.25-2.37-.68-4.73-1-7.1-.19-1.47-.65-3,.95-4.11,2.11,1,2,3.05,2.3,4.87.73,4.14,1.26,4.94,5.4,4.64,9.23-.66,18.46-.66,27.69-.77a6.1,6.1,0,0,1,2.25.22c1.35,1.34.95,3,.83,4.59-.3,3.81.16,4.35,4,4.43a39.32,39.32,0,0,0,8.6-.46,6.82,6.82,0,0,1,4.76.45A32.87,32.87,0,0,1,199.61,339.21Z"/><path class="cls-11" d="M81,337.69c-10.32.2-20.55-1.2-30.84-1.62-2.39-.1-4.69-1.13-7.25-.9-1.43.13-2.61-1-1.45-2.83,1.09-.95,2.18,0,3.27,0,17.26.07,34.51,0,51.76,0,1.67,0,3.28-.08,4.6-1.26,1.52-.39,1.84-2.12,3.11-2.78,4.38.9,8.75,1.7,12.77-1.28.7-.52,1.61-.77,2.26.24-1.87,3.46-1.37,7.25-1.55,10.95l-.26.31c-4.06,1.36-8.26.67-12.36.58C97,338.94,88.94,338.58,81,337.69Z"/><path class="cls-2" d="M59.66,233.08c-2-.65-3.83-1.87-6-1.8-5.67.18-9.43-2.62-11.79-7.58a17.68,17.68,0,0,0,3.69.62c1.79-.08,3.62-1.1,3.76,2.16.07,1.63,8,3.89,9.53,3,.36-.21.81-.8.76-1.15-.49-3.34,1.4-4.44,4.27-4.79,1.08-.14,1-1.07.6-1.73-1-1.53,1.83-3.86-1.06-4.93a7.15,7.15,0,0,0-2.16-.69c-3.57,0-6-.67-3.22-4.92.56-.86-.13-2-.64-2.85a8,8,0,0,1-.74-4.41c.06-2.24.54-4,3.32-2.46a1.68,1.68,0,0,0,2.34-.35c.79-1,0-1.53-.72-2.12-1.68-1.33-1-2.26.3-3.62a23.78,23.78,0,0,1,7.8-5.55,8.61,8.61,0,0,0,5.42-6.71c.66-4.88,3.48-4.7,6.9-4.33a13.78,13.78,0,0,0-5.75,9c-1,5.66-4.53,9.63-8.68,13.3-3.92,3.47-5.74,7.81-3.29,12.88,2.8,5.82,2.09,10.93-2.22,15.68A31.8,31.8,0,0,0,59.66,233.08Z"/><path class="cls-12" d="M95.36,280q-22.33,0-44.67-.11a5,5,0,0,0-3.2.92c0-1.06,0-2.12,0-3.18l47.92.06A1.56,1.56,0,0,1,95.36,280Z"/><path class="cls-13" d="M43.73,333.08l-2.32-.74c-5.57-5.26-3-11.61-1.79-17.39,2.13-9.91,3.11-20,6.09-30.14,1.34,3.25-.28,6.12-.67,8.86-1.27,8.94-3.17,17.8-4.83,26.69-.11.62-.27,1.23-.32,1.86-.63,7.84.82,9.39,8.74,9.39,5.2,0,10.39,0,15.59,0-.47,2-2,1-3.1,1C55.33,333,49.52,332.29,43.73,333.08Z"/><path class="cls-14" d="M95.36,280c0-.77,0-1.54,0-2.31a2.25,2.25,0,0,1,.33-.68c1.92.44,2,2.09,2.25,3.55,1.45,10,4,19.83,5.41,29.85.61,4.37,2,8.62,2.53,13,.23,1.9.55,3.82-1.37,5.14l-2.26,2.31a.5.5,0,0,1-.22-.55c.06-.19.13-.29.2-.29,2.6-4.94.67-10-.4-14.65-2.24-9.68-3-19.61-5.66-29.19-.21-.74-.27-1.48-1-2C95.27,282.8,95.31,281.38,95.36,280Z"/><path class="cls-15" d="M102.24,330c0,.28,0,.56,0,.84-1,2-2.72,2.29-4.76,2.29-17.92-.06-35.85,0-53.77-.07,2.67-1.55,5.58-.4,8.37-.71,4-.45,8.15.77,12.12-.72,8.35,0,16.71,0,25.07-.09C93.66,331.54,98.11,332.11,102.24,330Z"/><path class="cls-2" d="M40.56,221.54c-3.44-5.34-8.16-6.9-14.2-5a14.07,14.07,0,0,1-4,.13c-.83-1.71-3.1-1.93-3.86-3.72,5.23,1,10.19,2.3,15.77.25C37.94,211.91,40.73,216.24,40.56,221.54Z"/><path class="cls-2" d="M81,337.69c12.16-.43,24.27,1,36.42.86l.83.69c-.76.93-1.82.7-2.81.72a210,210,0,0,1-33.16-1.58A4.11,4.11,0,0,1,81,337.69Z"/><path class="cls-2" d="M18.57,213c-.76-.41-1.52-.81-2.26-1.23-3.83-2.17-6-1.61-8.29,2.18-.09-1.69,0-3.63,2-3.89C13.22,209.64,16.62,209.39,18.57,213Z"/><path class="cls-2" d="M8,215.73a21.59,21.59,0,0,0,3.89,5.53C8.66,220.8,8,218.48,8,215.73Z"/><path class="cls-16" d="M122.83,200.73c-1.33-11.66,2.26-22.12,7.73-32.15a44.9,44.9,0,0,0,2.07-5.12,3.34,3.34,0,0,1,3.81-1.34c2.19,1.1,5,.63,7.15,2.58a6.23,6.23,0,0,1-5.6.89c3.62-.09,8.13,1,12.75.56,2.16-.7,4.4-.53,6.61-.66,1.41-.13,2.83-.7,4.23.07a2.94,2.94,0,0,1,.83,1.62,13.65,13.65,0,0,1,.16,2.39c.09,4.94,2.56,9.14,4.19,13.61.32.95.6,1.9.92,2.84,4.87,21,10.18,41.86,15.13,62.83a18.8,18.8,0,0,1,.35,2.25c1.88,12.57,3.91,25.11,5.74,37.68a39,39,0,0,1,1.07,5.8c-.49,5.79-3.55,7.62-11,6.56-2.48-1-2.85-3.4-3.4-5.59-3.06-12.16-5.55-24.45-8.42-36.65-2.24-9.56-6.47-18.39-10-27.47s-7.35-18.34-11.08-27.48c-.52-1.27-.86-2.67-2.12-3.46-1.19.41-1,1.41-1.1,2.24-.22,3.15-.86,6.26-.79,9.45.57,28.12-1.18,56.21-.77,84.32,0,2.5.28,5.18-2.37,6.79-3.59,1-7.17,1.73-10.74-.09a4.22,4.22,0,0,1-2-3.9c.11-5.08-.81-10.09-.93-15.16-.33-13.92-.71-27.84-1.45-41.74.09-3.56.46-7.14-.24-10.69a6.65,6.65,0,0,1-.28-1.34c-.2-4.78-.32-9.55-.81-14.32-.39-3.84,1-7.69.61-11.61C123,203.21,123.46,201.92,122.83,200.73Z"/><path class="cls-17" d="M161.92,167l-.43-1.28a3.85,3.85,0,0,0-3.88-1c-7.28,1.65-14.19-.37-21.16-1.91-1.43-.75-2.58.2-3.82.61,3.42-7.29.53-14.15-1.89-20.82-1.13-3.09-5.11-3.85-7.84-5.57-4-2.48-8.13-4.58-12.14-7-4.3-2.57-5.21-6.89-2.24-10.93a95.6,95.6,0,0,1,8.56-10.6c1.86-1.9,4.47-2.23,6.55-3.6,2.34-1.38,3.45.57,4.83,1.79,2,2.67,0,5-.66,7.46a20.32,20.32,0,0,1-1.43,3.07c-1.51,3.14-1.18,3.73,2.43,4.23.52.07,1,.08,1.26.59.11,4.27.17,8.54,1.55,12.65,1.85,5.53,6.09,8.34,11.84,7.81,8-.74,13.05-6.13,13.32-14.21.08-2.23-.54-4.56.84-6.63.78-.22,1.14,0,.95.86-.43,3.54.22,5.32,4.48,6.74,5.82,1.94,10.91,6.08,16.33,9.25.93.54,1.74,1.84,3,1,1-.65.54-1.87.54-2.84,0-18.61,0-37.22,0-55.83,0-7.82,2.64-14.09,9.38-18.56a18.2,18.2,0,0,1,10.37-2.89c33.93-.12,67.86-.1,101.79-.11,1.11,0,2.31-.31,3.23.66-.89,1.16-2.19,1.14-3.45,1.16-18,.31-36.09.24-54.13.08-16.68.23-33.36-.19-50,.86,16.89.66,33.78.62,50.68.63q22.82-.09,45.62,0c1.89,0,4.16-.55,5.29,1.85-1.89,1.83-4.29,1.26-6.5,1.27q-46.15.06-92.3,0c-2.39,0-4.84-.23-7.07,1-4.17,2.27-6.84,5.55-7.06,10.49-.07,1.52-.08,3-.08,4.55q0,26.6,0,53.18c0,3.55-.05,7,1.62,10.38a6,6,0,0,1-.18,5.53c-1.35,2.58-1.44,5.32-1.44,8.12q0,58.68,0,117.36a55.79,55.79,0,0,0,.49,7.19c.24,1.86.58,3.81-1,5.37-1.42-8.82-2.93-17.63-4.24-26.47-.57-3.85-1.87-7.6-1.72-11.56.58-3.77-.54-7.46-.52-11.23.12-24.88.06-49.76.06-74.64,0-1.14,0-2.28,0-3.41-.12-1.56-1-1.9-2.34-1.38-1.76.66-3.32,1.86-5.26,2.05-2.56-.13-3.61-2-4.45-4a9.92,9.92,0,0,1,.78-4.44c.65-2.2.08-3.53-2.11-4.47-2.49-1.08-2.44,1-3.44,2.16-3.74,4.27-3.47,8.91-1.72,13.8C163,166.16,163,167,161.92,167Z"/><path class="cls-18" d="M315.14,61.66c7.49,3.92,10.72,10.14,10.71,18.54q-.12,116.16,0,232.31c0,5.27-.91,10-3.91,14.36-3,5.78-8.19,7.3-14.12,7.51-1.86-1-3.3-2.22-3-4.6a1.78,1.78,0,0,1,.68-.9c4.53-1.61,7.9-4.23,8.16-9.52a48.77,48.77,0,0,0,.35-6.83Q314,197,314,81.45c0-5.32-.72-10.06-5.37-13.47-1.68-1.23-3.64-1.74-5.43-2.67-.74-1.69-4.29-1.35-3.49-3.66s3.53-1,5.39-1.09A22.53,22.53,0,0,1,315.14,61.66Z"/><path class="cls-19" d="M341.92,274.58c-1.54-.41-2.07-1.47-2.35-3-3.46-18.85-7.08-37.67-10.46-56.54-1-5.5,2.4-9.72,8.37-11.22,8-2,16-3.4,24.16-4.59a12,12,0,0,1,4.51-.21,45.84,45.84,0,0,0,25.35-2.41c1.4-.55,2.86-1.1,4.4-.38a31.86,31.86,0,0,1,.86,9c-.33,3.92-2.54,6.72-5.62,8.94-.92,1.58-2.57,2-4.13,2.46-2.3.7-4.54,1.56-6.79,2.4a5.56,5.56,0,0,0-3.86,5.06c-1.56,12.29-3,24.59-4,36.94-.79,3.42-.5,7-1.24,10.41-.58,2.73-1.74,4.65-4.75,4.93-3.65.07-7.36.3-9.83-3.24a6.91,6.91,0,0,1-.24-4.12,17.25,17.25,0,0,0,.44-5.26c.06-15.26,1.22-30.47,2.39-45.66.67-2,.68-4.22,1.62-6.17,2.2-4.59,5.09-6.21,12.14-6.91-6.51-.67-10.58,2.68-12.88,8.62-.61,1.57-2.09,1.65-3.24,2.33a10.73,10.73,0,0,1-1.53.73c-1.31.42-2.65.77-4,1.12-5,1.58-5.14,1.61-4.52,6.86,1.75,14.64,3.48,29.28,5.5,43.88.38,2.75,0,4.72-2.63,5.94C347.05,275.35,344.51,276.3,341.92,274.58Z"/><path class="cls-20" d="M395.9,196.22c-8,3.24-16.22,5.18-24.88,4.52-3.15-.24-6.26-1-9.38-1.52,1-3.28-.93-6.08-1.3-9.54-2.17,1.07-3.29,3-5.27,3.81-7.13,2.87-14.56-3.06-13.79-11,.41-4.13,2.22-7.74,3.73-11.48,1.72.4,1.4,1.87,1.52,3a17.93,17.93,0,0,1-.36,4.5c-.23,1.54-.31,3.18,1.36,4,1.5.69,2.6-.43,3.67-1.32.85-.71,1.42-1.83,2.72-1.87,2.91,2.77,6.53,1.22,9.83,1.59,2,.34,3.95.81,5.94,1.15,1.15.19,2.32.27,3.12-.76s.54-2.41-.16-3.52a20.82,20.82,0,0,0-8.29-7.53c-1.21-.63-2.68-.87-3.3-2.33-.41-1.06-.9-2.1-1.2-3.19-1-3.39-3-4.81-6.53-3.89-.93.24-2.19.63-2.85-.28s.36-1.86.69-2.78c1.53-4.26,5.28-5.49,9.08-6.67,2.81-1.2,5.13,1,7.75,1.12,4.45,2,5.71,1.67,7.87-2.18a8.62,8.62,0,0,1,.39-.95,3.33,3.33,0,0,1,1.29-1.56c5,.82,10,1.49,14.9,2.53,3,.63,5,2.83,6.36,5.54q5.54,10.78,11.17,21.51c2.24,4.24,2.7,8.47-.16,12.51a10.12,10.12,0,0,1-11.66,4.16C395.24,193,396.18,195,395.9,196.22Z"/><path class="cls-21" d="M371.48,260.83c.43-11,2.91-21.84,3.1-32.79.14-7.76,4-10.52,10.43-12,2.08-.49,4.09-1.25,6.13-1.89,6.67,1,13.38.26,20.06.47,3.17.09,6.33,0,9.5,0,4.48,0,6.23,2.3,4.27,6.35a12.49,12.49,0,0,0-1.05,5.82q0,13.48,0,27a8.46,8.46,0,0,1-.6,4.07c-2.2,1.82-4.82.91-7.27,1.13-2.95.26-6.09-.95-8.8,1.14a4.33,4.33,0,0,1-1.19.7c-6.81.44-13.56,1.53-20.42,1.29a54.23,54.23,0,0,0-9.86.36C374.09,262.66,372.39,262.73,371.48,260.83Z"/><path class="cls-20" d="M157.82,121.8c-.2,5,.77,10-2.15,14.69-4,6.47-14.33,9.37-20.61,5.32a9.64,9.64,0,0,1-4-5.3,31.16,31.16,0,0,1-1.48-14.8c-1.43-5,1.53-8.64,4.05-12.27a32.94,32.94,0,0,0,3.76-6.06,4.32,4.32,0,0,1,2.45-2.22c2.23,0,1.82-1.58,1.7-3a6.33,6.33,0,0,1,2.41-2c1.19-.7,2.77,0,3.85-1.1a15,15,0,0,1,5.19-.76c6.77.22,9.59,4,7.79,10.67-.44.63-.28,1.52-.71,2.09-3.08,4.07-4,8.43-2,13.25A1.55,1.55,0,0,1,157.82,121.8Z"/><path class="cls-22" d="M122.83,200.73c.93,10.13,1.35,20.28,1.53,30.45-2.16-1.68-2.25-2.25-1-5.51-2.16,6.44-7.24,8.92-13.17,10.57-3,.85-4.71,3.3-4.63,6.63.14,5.61-2.22,9.61-7.75,11-4.54,1.19-5.7,4.8-7,8.47l-7.53,0c-2.41-5.77-4.6-11.53-.39-17.48a37.64,37.64,0,0,0,2.4-4.26,12.71,12.71,0,0,0,.45-10.84c6.47.24,11.55-1.95,14.38-8.15.42-.9,1.2-1.63,1.65-2.52,2.62-5.09,6.92-6.15,12.12-5.18,5.81,1.08,9-1.63,8.87-7.56C122.69,204.5,122.79,202.61,122.83,200.73Z"/><path class="cls-23" d="M406.68,259.3c.26-2.23,2.06-1.39,3.2-1.42,4.46-.13,8.93-.07,13.4-.08a3.25,3.25,0,0,1,.69.08c4.55,1.13,8.75,3.6,13.91,1,2.54-1.25,6.22-.52,9.32-.16,2.27.26,2.48,2.52,2.65,4.44a4.17,4.17,0,0,1,1.3,3.43c-1.37,5-.95,10.28-1.8,15.38a17.73,17.73,0,0,1-1,6c-.89,2-.47,4.23-.67,6.35-.2,2-1,2.64-3,1.9a78.63,78.63,0,0,1-9.94-4.6c-3.1-1.67-6-3.26-9.5-1.26-.88-1.28-.75-2.71-.68-4.14a8.83,8.83,0,0,1,.89-2.89c1.31-3.14,1.18-7.17,5.3-8.56,1.15-.07,2.17.56,3.33.54a6,6,0,0,0,5.46-7.93,2.64,2.64,0,0,0-2.66-1.73c-1.49-.07-3.08-.36-4.05,1.27-.56.93-.56,2.27-1.95,2.58a55.79,55.79,0,0,0-10.21-6C416.06,261.45,411.83,259.2,406.68,259.3Z"/><path class="cls-3" d="M400.33,333.12c-8.55,3.11-17.41.84-26.1,1.51-2.66.2-5.22-.45-7.46,2.32-1.44,1.8-4.73,1.26-6.73-.05a11.64,11.64,0,0,0-10.46-1.16c-2.85,1.12-6.41-1.16-8.49,2.09a.67.67,0,0,1-.32.16c-2.69-4.71-5.68.08-8.56-.14-6.5-.48-6.52-.11-13.21-4.44-.84.45-.47,1-.08,1.5.61.77,1,1.53,0,2.27-.78.6-2,.82-2.41.11-1-1.72-3-1.59-4.36-2.65,3.24-2.38,7.06-3.94,9.92-6.88,7.09.17,14.17,1.88,21.26,0a.85.85,0,0,1,1.17.27c.84,2.55,2.7,3.2,5.25,3.2,6.28,0,12.56-.3,18.83.18,7.19.5,14.35-.69,21.54-.26,3,.19,6.06-.3,9.06.4C399.85,331.89,400.51,332.2,400.33,333.12Z"/><path class="cls-24" d="M368.45,152.89c-3,.44-5.42-1.44-8.2-1.78.35-4.75-1.22-9.06-3-13.31.9-1.54,2.59-1,4-1.52-3.76.39-3.76.39-4.56-4.45,2.24-2.81,13.36-4.68,15.09-2.2,1.93,2.75,4.49,4.29,7.3,5.69,2.62,4.1-.57,6.14-3,8.44-2.06,2.19,1.8,3.51.83,5.54a.4.4,0,0,1-.05.53c-1.22,2.12-3,1.16-5.36.49,1.48.94,2.79,1.31,2.24,2.66-.46,1.13-1.57,1-2.58,1A4.65,4.65,0,0,1,368.45,152.89Z"/><path class="cls-25" d="M379.07,135.32c-3.67.35-6.24-1.14-7.49-4.64a1.91,1.91,0,0,0-2.31-1.39c-3.83.55-7.64,1.14-11.45,1.81-.29.05-.47.77-.7,1.19.23.8-.12,1-.85.83a21.07,21.07,0,0,0-.84-2.87c-2.25-5,.6-9.25,5.71-11.06,5.36-1.91,9.71,1.64,14.62,1.17a2.55,2.55,0,0,1,1.62.87C380.09,123.91,381,131.63,379.07,135.32Z"/><path class="cls-26" d="M341.52,299.53c-.62,0-1.25.13-1.88.11-1.72-.05-3.77.37-4.63-1.65-.76-1.77,0-3.45,1.32-4.8,3.45-3.52,4.81-8.09,6.35-12.57,2-2.35,5.17-1.89,7.54-3.34,1.62.12,2.43,1.19,3,2.55s.71,2.93,1.16,4.37c1.11,3.57.43,6.37-3.05,8.31-3,1.66-4.11,5.47-7.54,6.67A11.55,11.55,0,0,0,341.52,299.53Z"/><path class="cls-27" d="M315.14,61.66c-3.86-.27-7.68-1.19-11.59-.76-1.16.12-2.89-.67-3.29.93s1.69,1,2.35,1.75a3.44,3.44,0,0,1,.43,1,1,1,0,0,1-1.53,0c-1.14-1.2-2.62-.69-3.95-.69-15.65-.06-31.3-.06-46.95-.08-1.77-.93-2.66-2-.75-3.69l57.8-.18C310.26,60.09,312.94,59.82,315.14,61.66Z"/><path class="cls-28" d="M322.08,327.76c-2.36,3.66-6.07,5.38-9.92,6.88-7.87.74-15.81.19-23.64.9-11.8,1.06-23.6.12-35.3-.25-8.93-.29-18,1.35-26.88-.57-3.15-.68-6.36,1.41-9.71.15-1.12-.42-.87,1.63-1.77,2.13-.16-.2-.31-.4-.47-.59-.65-2.11.41-3.1,2.32-3.5a25.33,25.33,0,0,1,4.92-.25q25.08,0,50.16.15c1.78,0,3.55,0,5.32-.08,8.59-.14,17.18,0,25.77-.06a8.9,8.9,0,0,1,4.71,1.18c6,.26,10.35-3,14.35-7C322,327.16,322,327.46,322.08,327.76Z"/><path class="cls-29" d="M361.06,167.91c5.08,1.39,8.77,4.68,12,8.66,1.3,1.6,1.88,3.37.93,5.21-1,2-2.94,1.51-4.69,1.11s-3.65-.85-5.47-1.28c-1.47-.76-3.41.67-4.68-1,.87-1.08.31-1.55-.69-2.16-1.18-.71-.66-1.4.39-1.81a3.4,3.4,0,0,1,1.92.08c-1.75,0-.8-2.24-2.27-2.73-1.7-.56-3.67-1.13-3.76-3.53,1.6-.31,2.81.73,4.19,1.2.94.32,2.07.61,2.8-.15.87-.92-.83-1.3-.76-2.15C361,168.88,361,168.4,361.06,167.91Z"/><path class="cls-30" d="M147.76,95.13c-.78,1.77-2.38,1.33-3.79,1.42a2.1,2.1,0,0,1-1.44-.09c-1.16-.3-2.39-.32-2.85,1s1.14,1.41,1.61,2.21c.46,1.12-.07,1.75-1,2.17-1,.13-1.43,1.07-2.12,1.64-3-1.06-5.4-.48-7.22,2.28-.59.9-1.33,1.93-2.74,1.5-1.57-.65-2.46-2.64-4.53-2.26,3.17-4.76,6.24-9.58,12.35-11.15C140.12,92.75,143.85,94.59,147.76,95.13Z"/><path class="cls-31" d="M353.86,179.72a23.42,23.42,0,0,1-2.75,3c-1.26,1-2.73,2-4.45,1s-1.8-2.56-1.64-4.27c.28-2.81,1.37-5.63,0-8.44a.59.59,0,0,1,.32-.54c1-.73,1.9-1.76,3.28-1.9,2.09.32,2.95,2.52,4.83,3.15.31,2.85,2.71,4.69,3.52,7.31A4.52,4.52,0,0,1,353.86,179.72Z"/><path class="cls-32" d="M157.82,121.8c-3.6-6.39-1.44-11.77,2.92-16.76a19.33,19.33,0,0,0,1.58,5.36c1.19,2.9-1.11,10.26-3.76,12.19Z"/><path class="cls-33" d="M357,178.77c-3-1.32-4-3.75-3.79-6.88a1.07,1.07,0,0,1,0-1.52l1.52.1c1.76,2.45,4.38,3,7.12,3.14.39,1.88-1.47.9-1.91,1.93l2.85,1.47c-1.5,1.1-2.91-.51-4.27.66l3.61,1.63c-.81,1.42-1.92.78-2.82.94C358.21,180.27,357,180.43,357,178.77Z"/><path class="cls-34" d="M350.34,277.77c-2,2.44-5.16,1.75-7.66,2.85a6.72,6.72,0,0,0-.76-6,22.29,22.29,0,0,0,7.48-1C351.15,274.67,351.38,276.08,350.34,277.77Z"/><path class="cls-3" d="M341.52,299.53l2.09-.88c1.57.71,1.59,2.19,1.62,3.54.15,7.41.14,14.83,0,22.24,0,1.25-.15,2.54-1.34,3.37h-.56q0-12.39,0-24.79C343.32,301.57,343.74,299.85,341.52,299.53Z"/><path class="cls-29" d="M353.21,170.37c0,.51,0,1,0,1.52a6.81,6.81,0,0,1-4.28-3c-.64-.47-.63-.95,0-1.44a33.74,33.74,0,0,1,3.76-.06c1.13.11,3-.8,3.18.88s-1.78,1.3-3,1.42c-.11,0-.29,0-.3.1C352.4,170.38,352.92,170.24,353.21,170.37Z"/><path class="cls-35" d="M356.27,133.12l.85-.83c.39,3.21,2.21,4.44,5.56,3.76-1.64,1.68-3.88.67-5.46,1.74C356.83,136.25,355.9,134.82,356.27,133.12Z"/><path class="cls-36" d="M348.89,167.44c0,.48,0,1,0,1.44-1.13.67-2.1,1.71-3.58,1.58a27.63,27.63,0,0,1,1.37-3.37C347.62,165.47,348.34,166.13,348.89,167.44Z"/><path class="cls-37" d="M376.89,149.3c.06-2.12-1.75-1-2.84-1.51l2-4a5.73,5.73,0,0,0,1.49,3.77Z"/><path class="cls-38" d="M400.33,333.12l-.79-.78c-2.13-3.45-1.5-6.78.43-10,2.13,1.21,1.36,3.32,1.36,5,0,2.88,1.16,4.11,4.06,4,4.12-.1,8.25,0,13.22,0-3.3-1.54-5.64-3.17-8.48-3.7-.68-3.24,0-6.46.22-9.68.12-1.56.38-3.24-1.86-3.34-2-.08-2.42,1.42-2.5,3.05,0,.76,0,1.51-.07,2.26-.36,5.73-.37,5.73,4.29,7.82.11,2.49-1.77,2.41-3.34,2.38a3.94,3.94,0,0,1-4.18-3.63,6.3,6.3,0,0,0-2.76-5.06c-1.07-5.52.29-10.92.85-16.35.06-2.4,0-4.83,1.16-7,.79-1.25,1.71-2.32,3.37-1.52a4.76,4.76,0,0,1,2.71,3.86c.2,1.42-.42,2.74-.45,4.13,0,1.15-.1,2.51,1.4,2.69s2.2-1,2.42-2.36.08-2.78.28-4.16a3.46,3.46,0,0,1,3.07-3.34c1.95-.26,3.56.14,4,2.4.53,7.2-.48,14.3-1.36,21.41-.08.62-.3,1.23-.36,1.85-.14,1.55-.32,3.24,1.88,3.38,1.87.12,2.26-1.32,2.34-2.78.3-5.16,1.13-10.25,1.58-15.39a10.62,10.62,0,0,1,1.31-5.06c2.43-3.52,6.32-3.33,9.88-3.75,3.12-.37,6.27,0,9.4-.79,2.25-.56,3.67,1.28,3.28,4.18s-.72,5.5,0,8.24c.1,3.22.28,6.45-1.77,9.25-4.44-6.59-10.81-3.25-16.47-3-3.34.14-4.71,2.52-4.17,5.81a3,3,0,0,0,1,2c4.11,3.06,7.92,6.75,13.63,6.53,1.33-.05,2.8-.45,3.94.72,0,.26,0,.52,0,.78-3.75,1.25-7.5.05-11.25.05C421.22,333.2,410.78,333.15,400.33,333.12Z"/><path class="cls-28" d="M199.61,339.21c-1.34,0-2.62-.09-3-1.74,2.14-1.44,4.57-.84,6.89-.88,3.35-.06,6.7-.08,10.06-.22a2.76,2.76,0,0,1,1.24.57l0,.05c-1.07,1.73-3,1.71-4.63,2.22Z"/><path class="cls-39" d="M444.57,320.32a27.66,27.66,0,0,0,1.12-9.4,1.38,1.38,0,0,1,.67-1.09c1.95-.9,4-.54,6-.25,4.53.65,9.08.28,13.63.34,2.16,0,3.27-.93,3.27-3.17,0-9,1.26-8.2-7.49-8.25a58.74,58.74,0,0,0-9.83.51c-1.61.26-3.3.4-4.65-.92a46,46,0,0,1,.25-9.81c.31-2,.61-4.09.91-6.13,1.23-2.22,3.42-1.88,5.38-1.9,8-.07,15.93,0,23.89,0,4.75,0,5.12-.42,5.16-5.25.07-7.08-.07-14.16.08-21.23,0-2.24.44-4.55,3.06-5s5.33-1.32,7.11,1.68c0,9.11,0,18.21,0,27.32,0,2.09-.14,3.73-2.92,3.79s-2.5,2.47-2.33,4.26c1.35,13.49.49,27,.7,40.52.09,6.11,0,6.11-6.07,6.11l-38.71,0C442.83,328.26,442.74,324.23,444.57,320.32Z"/><path class="cls-4" d="M493.09,250.38c-2.15-1.62-4.64-.92-7-.82s-2.11,2.08-2.11,3.73c0,8.08-.1,16.16.06,24.24.06,3-1,4-4,3.93-9.09-.14-18.19,0-27.28,0-1.5,0-3.05-.18-4.4.74.85-5.34,0-10.92,2.15-16.09,1.1-1.85,3-1.66,4.71-1.7,4.15-.1,8.3.06,12.45-.08,1.75-.06,4.23.47,4.2-2.43s-2.33-2.33-4.19-2.25c-4.4.21-8.81.09-13.21.09a6.13,6.13,0,0,1-4-.92c-2.61-1.44-5.7-.28-8.33-1.54-.21-3.06.55-6.22-1-9.13a10.74,10.74,0,0,0,6.12,1.41c10.89-.06,21.78-.1,32.67,0,2.63,0,3.42-.75,2.57-3.2,1.51,1.75,2.61,1.6,4-.39,1.88-2.72,3.68-5.58,8-5,3.59.51,3.89.63,2.06,4a8.36,8.36,0,0,0-.48,1.41L493.91,248C493,248.54,493.22,249.52,493.09,250.38Z"/><path class="cls-40" d="M444.57,320.32a64.55,64.55,0,0,1-.8,12h-.89c-7.65,2-13.05-2.6-18.7-6.43a2.61,2.61,0,0,1-.95-2.72c.3-2.35.7-4.7,1.07-7,2.31.76,4.48-.38,6.73-.5,2.89-.16,5.84.23,8.71-.11C443.61,315.1,445.13,316.53,444.57,320.32Z"/><path class="cls-41" d="M450.56,258.77c6.68-.55,13.4.29,20.09-.71,2.71-.41,2.35,2.12,2.58,3.71.27,1.89,0,3.6-2.6,3.6-5.06,0-10.13.09-15.2.12a13.17,13.17,0,0,0-4.87.57,4.8,4.8,0,0,1-.71-2.86C451,261.88,450.31,260.24,450.56,258.77Z"/><path class="cls-1" d="M90.76,262.39c-.65-4.77,1.41-7.77,6-9,5.76-1.56,8.12-5.41,7.8-11.22a6.3,6.3,0,0,1,5-6.78c6.12-1.52,11.12-4.06,13.12-11,1.82,2.43-.07,5,1.73,6.81h0c.86,3.53-.25,7.16.62,10.69,1.25,18.78,1.39,37.61,2.16,56.42.07,1.72-.36,3.64,1.82,4.52a9.5,9.5,0,0,1-.34,9.32c-1,1.71-.91,3.61-1.15,5.48-.7,5.44-3.92,9-8.47,9.45a15.93,15.93,0,0,1-10.6,3c-1.48-.13-3.08.25-3.88-1.54,1.54-4.06,0-8-.94-11.8-1.55-6.49-1.94-13.16-3.59-19.6a161.94,161.94,0,0,1-3.06-17A6.52,6.52,0,0,0,95.7,277a78,78,0,0,1,0-9.3C96.09,263.75,94.91,261.82,90.76,262.39Z"/><path class="cls-42" d="M29.21,223.65,38,229.53c.51-2.07-1.14-3.56-.2-5.19,3,3.12,2.16,8.19,6.31,11,3.53,2.44,6.09,6.29,9.09,9.52l1-.56.33-7.27,1-.1c.58,4-.33,8.55,1.56,12,2,3.67,4.76,7,7.13,10.65,2.37-1.13.84-3.76,2.2-5.38,2.46,3.08-.75,5.46-.64,8.12H64.15c-3.09-7.63-11-6.84-17.78-9.81,4.89-1.39,8,1.75,11.65,2.19a24,24,0,0,0-7.16-10.58c-3.33-3-8-2.23-12.18-3.77,2.44-1.89,4.74.11,7.18-.4-1-2.64-3.15-4-5-5.61-1.63-1.38-3.72-2.34-5-4-3.17-4-6.84-2.4-10.52-1.42A27.84,27.84,0,0,0,22,230.45c1.13-3,3-3.18,4.91-3,3.09.22,3.35-.81,1.47-3C28.47,223.94,28.91,223.87,29.21,223.65Z"/><path class="cls-43" d="M23.15,219.79v.79c-2.05-.42-4.13,1-6.18,0,.09-1.31,1.35-.43,1.62-1.18L13.43,216C17.55,216.1,19.88,219.16,23.15,219.79Z"/><path class="cls-43" d="M29.21,223.65l-.79.77c-2-1-4.37-1.41-5.29-3.86C26.5,219,27.14,222.7,29.21,223.65Z"/><path class="cls-1" d="M138.84,302.66c1.3-1.57,1.28-3.44,1.3-5.35q.69-47.47,1.48-95c0-1.35-1.1-3.49,1.56-4s2.63,1.81,3.23,3.29c6.25,15.48,12.56,30.94,18.63,46.49,4.25,10.89,5.64,22.55,8.52,33.81,1.23,4.78,2.15,9.63,3.32,14.43.37,1.52.39,3.36,2.28,4.08a34.61,34.61,0,0,1,2.33,16.9,30.19,30.19,0,0,0-1.42,7.06c-.11,1.28.25,2.92-1.65,3.39a10.23,10.23,0,0,1-5.19.71,231.05,231.05,0,0,0-26,.83c-4,.34-5.13-1.73-5.33-5-.12-2-.09-4-1.63-5.61l-.44-.49C138.7,313.1,137.77,307.94,138.84,302.66Z"/><path class="cls-19" d="M178.42,327.84c1.68-3.4.21-7.45,2.25-10.77a2.29,2.29,0,0,1,1.77-.49c4.88,1.45,7.9-.7,9.87-5,3.09-1.59,5.42-.73,4.78,2-1.39,5.92,2.89,7.67,6.57,9.86,2.79,1.65,6.18,2.12,8.84,4.14,3,2.7,2.48,6,1.56,9.34-5.77,1.66-11.61.69-17.43.55a3.76,3.76,0,0,0-4.23-.62c-3.68,1.5-7.45.7-11.17.87-3,.13-4-1.55-3.6-4.32C177.89,331.54,178.16,329.69,178.42,327.84Z"/><path class="cls-19" d="M119,327.05c5.15-2.35,7.77-6.25,7.61-12a10.47,10.47,0,0,1,1-3.16c2.58-.63,2.24,1.57,2.24,2.72,0,3.37,1.8,3.92,4.61,3.74,1.91-.13,4-1.23,5.76.41h.05c.55,4.77,1.3,9.53,1.6,14.32.28,4.25-1.06,5.69-5.24,5.41-3.75-.26-7.89,1.66-11.2-1.68-.42-.41-.95-.21-1.32.22-1.82,2.1-4.24,1.08-6.43,1.23A9.31,9.31,0,0,1,119,327.05Z"/><path class="cls-1" d="M211.7,327.85c-5.15-2.5-11.18-3.36-14.83-8.59-1.1-1.57-2.23-2.61-.78-4.53a2.26,2.26,0,0,0-.25-3.13c-1-.89-2.12-.37-3.06.4-2.1.62-2.35-1.05-2.6-2.33-.8-4.15-2.5-8.24-.9-12.6a3.27,3.27,0,0,0-.22-2.58c-.32-1.82-.63-3.63-.94-5.45-.18-7.32-.81-14.61-.78-22,.12-36.88,0-73.75,0-110.63,0-2,0-3.9,1.52-5.66a4.28,4.28,0,0,0,.11-5.62c-1.62-1.88-1.65-3.84-1.64-6,0-20.15.07-40.3,0-60.45A13.73,13.73,0,0,1,193,67c2.61-2,5.41-2.38,8.52-2.38q47.91.09,95.82.09c1.39,0,2.78,0,4.18,0l1.53,0c7.59.86,12.07,5.87,12.09,13.86q.08,46,0,92,0,71.27,0,142.54a26.21,26.21,0,0,1-.77,7.89c-1.71,4.26-4.45,7.39-9.15,8.38v0a4.42,4.42,0,0,1-3.44,1.15c-27.14-.09-54.28.23-81.43.18C217.13,330.57,214.13,330.24,211.7,327.85Z"/><path class="cls-44" d="M173.12,162c2.63-1.19,5.27-2.34,7.87-3.59,1.61-.78,2-.15,1.93,1.38,0,.5,0,1,0,1.52q0,42.89,0,85.79c0,1.34.47,2.82-.73,3.95q-7.42-31-14.84-62c-.26-1.09-.36-2.23-.53-3.35-.07-1.35,1.2-2.11,1.32-3.54.26-2.93,2.69.68,3.59-.94-.5-2.35-2.57-4-2.69-6.51a27,27,0,0,0-.58-2.95C167.1,166.56,168.1,164.48,173.12,162Z"/><path class="cls-45" d="M189.06,294.49c.8,5.08.69,10.28,2.14,15.29.3,1,.37,2,1.58,2.22-3.62,6.46-3.62,6.46-12.12,5.07.58-4.64-.9-9.08-1.3-13.63a9.73,9.73,0,0,1-.2-2.95,38.51,38.51,0,0,0,5.17-.26C187.44,299.68,189.69,298.21,189.06,294.49Z"/><path class="cls-46" d="M140.17,318.75c-2.76.09-5.44.82-8.25.75-2.43-.06-3.31-.85-3.31-3.32,0-1.4,1.22-3.37-1.05-4.3,2.42-2.73.76-6.08,1.39-9.08,3.31.74,6.59,0,9.89-.14A101,101,0,0,1,140.17,318.75Z"/><path class="cls-47" d="M173.12,162a7,7,0,0,1-1.16,1.45c-3.28,2.37-4.36,5.21-2.3,9a6.7,6.7,0,0,1,.22,2.57c-.82.84-1.72,1.64-2.91.78a2.38,2.38,0,0,1-.69-2.72,7.36,7.36,0,0,0,.1-3.36c.06,1.2.59,2.39-.46,2.94s-1.82-.47-2.6-1-1.1-1.36-1.76-1.93a2.44,2.44,0,0,1,.35-2.62c.19-.5.38-1,.56-1.48,2.31-2.65,3.44-6.51,7.51-7.35Z"/><path class="cls-48" d="M136.45,162.85c7.45,1,14.89,2,22.41.7,1.55-.26,2.79.21,2.64,2.17l-3.91.75c-2.15-.2-4.34-.95-6.37.47-5.87,1.42-11.43-1-17.63-1.13,1.51-2.27,3-1.18,4.41-.94a38.08,38.08,0,0,0,5.4.06C140.52,164,138.15,164.41,136.45,162.85Z"/><path class="cls-49" d="M161.56,169.62c1.93-.17,2.43,2,4.12,2.48.95-1.36-.08-2.81.07-4.66,1.93,1.76,1.17,3.7,1.08,5.27-.15,2.64.95,3,3,2.25.3,2.57,2.83,4.16,3,6.78-.68,1.4-1.55,1-2.36.19a16.6,16.6,0,0,0-4.78-3.12c.86,1.58,1.86,3,.26,4.53C164.09,178.91,161.59,174.66,161.56,169.62Z"/><path class="cls-50" d="M166,183.34c.68-1.8-.63-3.32-.81-5,2.27-.9,3.16.91,4.41,2,.92.81,1.46,2.64,3.28,1.42-1.47,3.73-2.69-.48-4.36,0,1,2,1.14,3.73-1.74,4A2.84,2.84,0,0,1,166,183.34Z"/><path class="cls-51" d="M167.29,248.8c1.77-2.07,4.08-2.36,7-2.37C172.35,249.35,169.55,248.35,167.29,248.8Z"/><path class="cls-52" d="M129.27,247.87c2.42-.9,4.86-.87,8.15-.35A9,9,0,0,1,129.27,247.87Z"/><path class="cls-22" d="M125,241.86c-1.2-3.51-.82-7.1-.62-10.69C125.37,234.69,125.11,238.28,125,241.86Z"/><path class="cls-53" d="M151.22,166.94c2-2.05,4.18-1.21,6.37-.47Z"/><path class="cls-54" d="M249.86,60.18a3,3,0,0,0,.74,3.69l-50.41,0c-1.34,0-3.19.34-3.37-1.53-.22-2.28,2-1.23,3.1-1.64a9.61,9.61,0,0,1,3.32-.56Q226.55,60.13,249.86,60.18Z"/><path class="cls-55" d="M170,158.17c-3.1,1.84-4.26,5.66-7.51,7.35.08-1.51-1.47-2.42-1.54-3.76-.16-2.93-1-6.06,1.81-8.41a9,9,0,0,0,1.5-2.16c.81-1.29-.36-4.63,3-3.26,2.47,1,5.91,1.77,4.18,6C170.83,155.28,170.45,156.74,170,158.17Z"/><path class="cls-2" d="M128.16,107.23c1.65-.66,2.07-2.39,3.13-3.57,2.1-2.32,4.57-2.4,6.83-.21a12,12,0,0,1-3,5.44,22.37,22.37,0,0,0-5.54,12.82c-2,2.75-3.45,0-4.9-.73-2.06-1,0-2,.35-3C126.48,114.54,129,111.39,128.16,107.23Z"/><path class="cls-56" d="M302.27,329.34l3-.1c-.35,2.1,1.49,3.1,2.33,4.61l-30.42,0c-4.25-.91-8.56-.11-12.82-.44-1.18-.09-3.27.88-3.25-1.25,0-1.68,2-1.47,3.34-1.73,5.25-1,10.57-.67,15.87-.78C287.63,329.54,295,330.17,302.27,329.34Z"/><path class="cls-57" d="M323.72,153c0,4.18,0,8.35,0,12.53,0,1.37.16,3.15-1.84,3.07-1.45-.06-1.91-1.45-1.91-2.84,0-8.73,0-17.46,0-26.19,0-1.31.38-2.7,2-2.68,1.85,0,1.66,1.59,1.67,2.82C323.74,144.14,323.72,148.57,323.72,153Z"/><path class="cls-58" d="M323.74,120.32c0,2.64,0,5.29,0,7.94,0,1.15-.09,2.41-1.68,2.44a1.9,1.9,0,0,1-2.09-2.14c0-5.42,0-10.84,0-16.26a2.11,2.11,0,0,1,2-2.34c1.52,0,1.73,1.25,1.75,2.41.05,2.65,0,5.3,0,7.95Z"/><path class="cls-56" d="M305.25,329.26a19,19,0,0,0,9.15-8.38A9.71,9.71,0,0,1,305.25,329.26Z"/><path class="cls-59" d="M401.67,305.06,400.4,321.7c.19.18.24.34.15.49s-.15.21-.23.21a27.75,27.75,0,0,0-.78,9.94c-7.3,0-14.59.12-21.89.09-3.06,0-6.15,1.76-9.2-.05-1.19-1.34-1.21-3-1.2-4.64,0-11.58-.18-23.17.11-34.75.11-4,0-7.92-1.42-11.72a15,15,0,0,1,.25-5.74c2.64-.39,3.78-1.84,4-4.58.23-3.38.28-6.82,1.31-10.12,2.3,1.69,4.64,0,7,.09,9.33.44,18.6-.66,27.91-.85.34,1.26-.68,1.33-1.42,1.66-7.38.6-7.38.6-7.29,7.56.05,4.37.05,4.38,4.5,5.08a4.87,4.87,0,0,1,2.11.72,2.88,2.88,0,0,1,.67,1.11c-.22,4.68.41,9.49-2.11,13.81-4.49,1.55-9.22,1.05-13.84,1.52-3,.31-4.38,1.09-4.24,4.26.31,7.07-1.82,9.86,8.54,8.27C396,303.63,399.08,303.05,401.67,305.06Z"/><path class="cls-60" d="M350.34,277.77a9.25,9.25,0,0,0-.95-4.16c1.86-.92,2.14-2.31,1.88-4.34-2-15.49-3.77-31-6-46.48-.55-3.79.45-5.31,4-5.6.75-.06,1.49-.18,2.24-.27,1.43,2.15,1.2,4.6,1.24,7,.08,3.92-.06,7.85.08,11.78,0,1.07-.13,2.68,1.33,2.75,1.77.08,1.7-1.66,1.69-2.84,0-5.06.45-10.13-.37-15.17a9.68,9.68,0,0,1,.05-4.51l.7-.6c1.48,0,3.82-2.25,3.88,1.48Q359,238.91,357.86,261c-.13,2.63-.42,5.26-.64,7.89-1.62-1.18-1-3-1.25-4.53-.13-.73-.06-1.69-1-1.82s-1.27.75-1.33,1.49a74,74,0,0,0,0,11.34c.15,2.05,1.93,1.54,3.25,1.67a2,2,0,0,1,1.05.55c-.87,3.2-3.2,2.7-5.53,2.19C351.88,279,351.42,278.05,350.34,277.77Z"/><path class="cls-61" d="M355.55,215.92c1.5,3.53,1.49,7.27,1.49,11,0,3.53,0,7.06,0,10.58,0,2.06-1.29,2.59-2.89,2.72-1.81.15-2.4-1-2.41-2.62q-.12-10.34-.26-20.69C352.68,215.82,354.17,216.1,355.55,215.92Z"/><path class="cls-62" d="M357.05,277.51c-4.26,1.66-4.52,1.49-4.52-2.84,0-3.64,0-7.27,0-10.91,0-1.8.58-2.86,2.56-2.87s2.09,1.31,2.08,2.79c0,1.75,0,3.5.07,5.24l-.06,4.14C357.83,274.56,358.37,276.06,357.05,277.51Z"/><path class="cls-63" d="M357.05,277.51c0-1.48.07-3,.11-4.45,2.6,2.31,5.87,2.2,9,2.47a5.1,5.1,0,0,1-.07,5.24c-1.45,3.08-4,3.17-6.87,2.56-2.22-1.47-1.3-3.72-1.43-5.72Z"/><path class="cls-64" d="M360.13,216.8c-.44-2.73-2.66-.8-3.88-1.48a6.28,6.28,0,0,0,3.93-4,9.76,9.76,0,0,1,4.95-5.51c.91-.48,2.37-.56,2.12-2.24,0-.2.42-.48.65-.73,2,3.69,5.15.36,7.84,1.52C368.45,206,361.07,207.5,360.13,216.8Z"/><path class="cls-65" d="M387.05,201c3-.61,4.05,2.1,6,2.94.16.07.25.78.09,1a1.14,1.14,0,0,1-1.68.15C390,203.93,388.14,203.21,387.05,201Z"/><path class="cls-37" d="M368.45,152.89a5.07,5.07,0,0,1,1.11.21c1.2.51,2.87,1.12,3.42-.12.78-1.78-.85-1.55-2-1.34-.44.09-.87.49-1.4-.18,1.49-1,2.58-2.83,4.78-1.05.73.6,1.65-.27,2.45-.58C375.29,154.56,371.65,155.89,368.45,152.89Z"/><path class="cls-66" d="M357,178.77l2.33,1.47c1.15,1.61,3.27.06,4.51,1.37-1.84.19-3.67.5-5.5.53s-3.78-.14-4.46-2.42C354.61,178.43,355.86,178.81,357,178.77Z"/><path class="cls-6" d="M404.88,261.17c.59-.23,1.29-.31,1.47-1.1l.33-.77c4.58-1.91,8.53-.41,12.26,2.29,1,.73,2.16,2.08,3.09,2,4.71-.62,6.39,3.07,8.84,5.71a5,5,0,0,1,.06,6c-3.52,1.71-3.24,5.53-4.68,8.41-1.66-2-1-4.35-.7-6.55a72.72,72.72,0,0,0,.59-8.33c0-1.16-.25-2.45-1.73-2.51-1.24-.06-1.62,1.07-1.84,2.08-.95,4.35-.78,8.8-.94,13.21-.09,2.38,2.35,3.08,3.84,4.36,0,1.54,0,3.07,0,4.61,2.17,4.45.78,8.67-.81,12.89A157.14,157.14,0,0,0,422.5,324c-.09,3-1.17,4-4.07,3.86-3.39-.22-3.11-2.56-2.63-4.62,1.78-7.77,2-15.65,2.1-23.55-.58-4.63.49-9.19.5-13.79,0-4.05-.21-4.19-4.19-3.14-.61.16-1.09.07-1.26-.39-1-2.81-4.75-2.49-5.92-5.22-.37-.85-1.89-.49-2.77-1l-.11-.79C403.83,270.57,403,265.8,404.88,261.17Z"/><path class="cls-67" d="M393.3,241.19h-9.11c-.63,0-1.41.23-1.88-.05-3.89-2.37-.94-6.15-1.78-9.19-.51-1.84.53-2.86,2.49-2.81l21.24.45c.25,0,.58-.06.74.07,3,2.51.64,5.84,1.3,8.73.4,1.75-.64,2.52-2.38,2.51-3.54,0-7.08,0-10.62,0Z"/><path class="cls-68" d="M140.88,99.67c-1.3,0-2.56-.16-2.76-1.78-.15-1.19.8-1.66,1.67-2.17a2.86,2.86,0,0,1,4.18.83,3,3,0,0,1-2,1.74C141.19,98.4,141.62,99.51,140.88,99.67Z"/><path class="cls-69" d="M140.88,99.67c.16-.63.29-1.29,1.11-1.38-.21,1.38,1.4,1.19,1.94,2.32a6.31,6.31,0,0,1-3.69,1.2C140.59,101.14,141.15,100.53,140.88,99.67Z"/><path class="cls-70" d="M424.7,303.46c-.2-4.33,1.28-8.55.81-12.89,1.11-3.11,2.77-3.46,5.7-1.82a81,81,0,0,0,15.28,7.07c1-2.41-.67-5.21,1-7.54l0,9.54c1.55,2,1.59,3.83.13,6-1.26,1.89-.06,4.58-1.61,6.51a.72.72,0,0,1-.35.58,14.85,14.85,0,0,1,0-7.8c.67-3.08-.25-3.69-3.31-3-3.93.93-8-.08-12,.8A13.77,13.77,0,0,0,424.7,303.46Z"/><path class="cls-71" d="M425.47,286c-3.59-.27-5.84-2.12-5.11-5.35.92-4.11,0-8.26,1.1-12.34.57-2.13,1.12-3.79,3.43-3.47,2.62.37,2.5,2.61,2.41,4.67-.19,4.75-1.33,9.44-1.05,14.23Z"/><path class="cls-72" d="M430.93,275.29l-.06-6c1.35-1.33-.15-4.78,3.36-4.52,2.19.16,5.26-.85,6.11,1.64.94,2.78.83,6.39-1.4,8.59S433.68,276.72,430.93,275.29Z"/><path class="cls-21" d="M357.82,277.61c1.76,1.26,0,3.58,1.48,4.93-1.71,5-3.73,9.82-7.51,13.72-1.09,1.13-2.48,2.61-1.34,4.31s3.17,1.31,4.87.88c3.14-.8,5.52-2.82,7.86-5,1.64-1.51,2.55-4,5.24-4.22l0,40.14c-6.42.05-12.85-.1-19.26.22-3.74.19-5.78-.71-5.29-4.8.23-9.72.79-19.44-.29-29.15,3.59-2.51,5.59-6.73,9.67-8.79,1.33-.67.85-2.5.57-3.86-.44-2.07-1-4.13-1.45-6.19C354.05,278.69,356.67,280,357.82,277.61Z"/><path class="cls-73" d="M369.69,135.68c-1.07,1.52-2.4,1.31-4.15.94C366.91,134.54,368.36,135.53,369.69,135.68Z"/><path class="cls-74" d="M302.27,329.34c-1.15,1.2-2.62.69-3.95.7-7.33,0-14.68.37-22-.07-5.14-.32-9.72,1.73-15.17,1.9,1.56,1.82,3.15,1.06,4.49,1.23,3.82.48,7.77-.89,11.51.79-19.51,0-39,0-58.54,0-2.3,0-4.08.12-3.81,3.07l-.76,0c.5-3.36.29-6.53-2.36-9.07,2.69,1.68,5.69,1.52,8.69,1.51Q261.33,329.33,302.27,329.34Z"/><path class="cls-75" d="M404.26,276.1a5.79,5.79,0,0,1,1.37-.63c2.93-.48,3.47,3.92,4.27,3.54,4.18-2,2.87,1.72,3.8,3.29.53-1.24.67-2.95,2.62-2.28,1.44.49,3,1,3,2.9a71.35,71.35,0,0,1-1.47,16.75c-.52-2.29-2.3-1.53-3.66-1.37s-1.64,1.37-1.67,2.59a30.66,30.66,0,0,1-.21,4.9,3.16,3.16,0,0,1-3.48,2.83c-2.06-.18-2.65-1.68-2.39-3.55.19-1.37.52-2.71.71-4.07.25-1.77-.93-2.8-2.1-3.78s-1.63.57-2.43.92a7.39,7.39,0,0,1,0-8.23Q403.48,283,404.26,276.1Z"/><path class="cls-76" d="M402.68,289.91c0,2.75,0,5.49,0,8.23l-1,6.91-14,.59c-2.72.12-4.29-.73-4-3.9.3-3.51-1-7.95.65-10.34,1.81-2.56,6.6-.69,10.06-1.37C397,289.5,399.89,289.92,402.68,289.91Z"/><path class="cls-77" d="M400.32,322.4a2.35,2.35,0,0,1,.08-.7c2.52,0,3.43,1.22,3,3.69a3,3,0,0,0,2,3.6c1.71.5,3.72,1.07,4.81-1.27l0,0c2.17-2.43,3.73.15,5.07,1,1.66,1,5.16.56,4.71,3.09-.25,1.39-3.58.45-5.52.52-3.52.13-7.05-.06-10.57.07-2.62.09-3.68-1-3.53-3.57C400.47,326.69,400.34,324.54,400.32,322.4Z"/><path class="cls-78" d="M410.21,327.72c-6,.69-6.42.22-5.58-5.59a32,32,0,0,0,.33-5.26c-.1-3,1.58-3.64,4.08-3.53,2.79.13,2.92,2,2.48,4-.74,3.44.14,7.08-1.33,10.42Z"/><path class="cls-79" d="M446.05,310.34c-.65-4.31,1.45-8.29,1.48-12.52,6.56-.1,13.13-.11,19.68-.35,2.78-.1,4.19.56,3.31,3.61a4.71,4.71,0,0,0,0,1.13c-.23,8.92-.24,9-9.33,8.76C456.12,310.85,451.08,310.56,446.05,310.34Z"/><path class="cls-80" d="M251,246.53c-9.5,0-19,.06-28.5,0-7.45-.06-12.84-5.35-12.92-12.5a12.37,12.37,0,0,1,12.64-12.81q28.88-.17,57.75,0c7.63,0,12.57,5.21,12.54,12.67s-5.11,12.56-12.63,12.63c-9.63.08-19.26,0-28.88,0Z"/><path class="cls-81" d="M240.47,299.67c1.73,4.95.81,7.05-2.69,6.82a3,3,0,0,1-3.1-2.73c-.23-1.52-.51-1.77-2.22-1.47.89-2.63,2.62-3.46,5.16-3.43,7.35.09,14.7,0,22.06,0,1.82,0,3.69.14,3.79-2.51.1-2.89-1.87-2.84-3.87-2.79-7.26.19-14.52.32-21.78.6-5.48.22-8.21-2.23-8.6-7.68-.26-3.63-.86-7.23-1.27-10.85a2.65,2.65,0,0,0-2.41-2.76c-3.37-.71-4.74-3.37-4.49-6.54a6.59,6.59,0,0,1,5.8-6.13,6,6,0,0,1,6.89,4.08c.95,2.58,2.32,3.48,5,3.44,9.38-.15,18.76-.07,28.14,0,1.7,0,3.86.11,3.87-2,0-4.59,3-4.18,5.94-4.1.61,0,1.23,0,2,0-.29.42-.41.72-.49.7-4.16-.75-5.57,1.3-6.36,5.18-1.9,9.23-4.3,18.36-6.52,27.53-.38,1.6-.88,3.16.4,4.65.8.92,1.82,1.75,2,3.11-2.61,0-2.48,3.54-5,3.74-3.12.24-4.43-1.23-3.71-4s-.45-2.9-2.59-2.86C251.24,299.73,246.05,299.67,240.47,299.67Z"/><path class="cls-82" d="M292.33,170.34c0,4.78-2.26,6.87-7.75,6.87q-28.31,0-56.6,0H217.72c-4.77,0-7.48-2.68-7.48-7.39q0-37.8,0-75.59c0-4.67,2.74-7.48,7.49-7.49q33.61,0,67.24,0c5.51,0,7.41,2.1,7.43,7.68a56.81,56.81,0,0,1,0,5.69c-.22,2.17.26,3.89,2.2,5.05a11.09,11.09,0,0,1-6.44,1.66c-.75-3.55-1.84-6.82-5.61-8.43a1.61,1.61,0,0,1-.67-2.74c1.91.13,3.8.83,5.75.08.85-.33,1.34.24,1.56,1.06s.07,1.78.72,2.62a36.76,36.76,0,0,0,0-4.81c-.26-3.06-1.89-4.86-5-5.12-1.14-.09-2.28-.1-3.42-.1H221.81a23,23,0,0,0-4.54.25c-2.68.53-4.32,2-4.33,4.9,0,.76,0,1.52,0,2.28q0,34.74,0,69.49c0,6.89,1.3,8.22,8.21,8.23,19.75,0,39.49-.06,59.24.06,4.3,0,8-.69,10.64-4.41A1.43,1.43,0,0,1,292.33,170.34Z"/><path class="cls-83" d="M252.07,183.35h21.66c1.37,0,3.18-.18,3.18,1.75s-1.78,1.95-3.16,1.95q-22.22.06-44.44,0c-1.45,0-3.05-.11-2.94-2.06.1-1.68,1.62-1.67,2.91-1.68Z"/><path class="cls-26" d="M287.85,106.59c2.22-.58,4.24-2.07,6.72-1.41,5.23,4.87,5.75,11.86,7.88,18.07.77,2.27-2.71,2.4-4,2.77a48,48,0,0,1-6,1.73,1.89,1.89,0,0,1-1-.47,3.24,3.24,0,0,1-.52-1,23.89,23.89,0,0,0-2.47-6.56,34.93,34.93,0,0,1-2.1-7.11C285.94,110.49,285.63,108.18,287.85,106.59Z"/><path class="cls-84" d="M251.66,194c-5.07,0-10.14,0-15.21,0-1.17,0-2.89.35-2.81-1.54.07-1.63,1.36-2.25,3-2.23,4.06,0,8.11,0,12.17,0,5.7,0,11.4-.05,17.1,0,1.44,0,3.72-.84,3.61,1.93s-2.35,1.75-3.78,1.79C261,194.07,256.35,194,251.66,194Z"/><path class="cls-85" d="M277.55,208.36c.05-.24.22-.61.12-.71-4.58-4.41.49-5.72,2.56-8,.82-.9,2.73-1.58,2.79-.68.24,3.61,6.82,1.25,5.27,5.79-.57,1.66-2.21,2.86-1.44,5,.29.82-1,1.86-1.75,1.28-2.44-1.91-5.78,2.28-7.77-1.3-.2-.36.08-1,.13-1.46Z"/><path class="cls-86" d="M268.89,210.54c-1.95-1.92-4.71,1.22-5.71-1-.83-1.83-2.6-4.77-2.12-5.53,1.2-1.93,3.73-3,5.73-4.47,1,2.53,4.58,2.07,5.48,4.72C269.4,205.24,272.27,209.68,268.89,210.54Z"/><path class="cls-87" d="M254,210.9c-2.11-2.79-5.41.59-6.36-1.36-.82-1.67-2.39-4.6-1.89-5.48,1.09-1.95,3.63-3.1,5.59-4.58.5,3,5.43,2.34,5,4.69C256,206.05,255.78,208.77,254,210.9Z"/><path class="cls-88" d="M222.92,210.64c-2.19-1.61-4.83.37-6-1.12a10.51,10.51,0,0,1-1.65-5.39c-.09-2.11,3.82-2.21,4.81-4.51,2,1.47,5,2.6,5.57,4.5C226.15,205.8,224,208.32,222.92,210.64Z"/><path class="cls-89" d="M235.56,209.84c-1.28,0-3,.28-3.14-.05-.71-1.87-.5-4.08-2.15-5.62,1.83-1.48,3.65-4.11,5.48-4.12s4.17,2.28,5.4,4.15c.71,1.1-1.75,2.53-1.87,4.57C239.12,211.52,236.52,208.87,235.56,209.84Z"/><path class="cls-90" d="M250.71,70.74c3.41,0,6.83,0,10.24,0,1.41,0,3.65-.54,3.63,1.56,0,1.79-1.77,3-3.78,3s-4.05,0-6.08,0c-5.18,0-10.37,0-15.56,0-1.32,0-2.95.36-3-1.83s1.28-2.75,3.18-2.74C243.11,70.77,246.91,70.74,250.71,70.74Z"/><path class="cls-91" d="M291.68,127l.71.77-.06,42.59-.69,0c-1.44-1.42-1.22-3.27-1.22-5q-.07-16.71,0-33.41C290.42,130.23,290.21,128.37,291.68,127Z"/><path class="cls-92" d="M368.42,292.24c-3.5,3-5.92,7.26-10.39,9.19a8.75,8.75,0,0,1-1.71.79c-2.44.43-5.31,1.48-7-.94-1.53-2.22.35-4.29,1.87-6,2.74-3,5.06-6.22,6-10.28a3.08,3.08,0,0,1,2.07-2.5,8,8,0,0,0,6.83-1.78C368.74,284.22,368.49,288.25,368.42,292.24Z"/><path class="cls-93" d="M404.88,261.17c-.26,4.71.82,9.49-.73,14.14-8.75.1-7.48.58-7.55-7.36C396.53,260.48,396.57,260.47,404.88,261.17Z"/><path class="cls-94" d="M390.43,234.23H398v-1c-3.62,0-7.24,0-10.86,0-.17,0-.34-.32-1.27-1.28,3,0,5.36,0,7.7,0,2.9,0,5.79,0,8.69,0,1,0,1.79.11,1.57,1.45-.14.89-.13,1.7-1.44,1.68-4-.07-8,0-12,0Z"/><path class="cls-38" d="M411.09,302.28c-.88,1.42.15,4.78-2.15,4.5s.14-2.87-.2-4.43a.92.92,0,0,1,0-.37c.26-1-.65-3,1.36-2.74C411.58,299.39,410.79,301.08,411.09,302.28Z"/><path class="cls-95" d="M264.94,230.81a13.84,13.84,0,0,0-2.85.89,2.25,2.25,0,0,0,1.14,4c.85.06,1.87.32,2.33-.73a16.13,16.13,0,0,0,1-2.87c.27-1.19.66-2.29,2.05-2.33s1.56,1.06,1.91,2a6.93,6.93,0,0,0,2,3.56c.07-1.31.15-2.35.19-3.38s.6-2.43,1.62-2.14c3.26.92,6.65-1.12,10.74.64-4,1.3-1.53,4.62-3.33,6.75-1.23-1.11-.74-2.42-.89-3.55-.12-.91.38-2.28-1.2-2.29s-1.73,1.36-2,2.42,1.61,2.05.24,3-1.42-.91-2.18-1.33-.94.09-1.19.5c-.34.56-.62,1.06-1.44.83-3.47-.95-6.84,0-10.26.51-2,.29-3-1.32-3.62-2.81a3.58,3.58,0,0,1,1.21-4.11C261.65,229.27,263.1,229.25,264.94,230.81Z"/><path class="cls-96" d="M218.93,237.4c-.17-2.78,1-4.67,1.81-6.53s2.23-1.34,3,.22a36.82,36.82,0,0,1,1.54,4.31c1.38-.6.89-1.6.91-2.33,0-1.73,0-3.4,2.43-3.38,2.18,0,3.68.82,3.83,3.2.13,2,0,4.07-2.53,4.29-1.93.18-4.32.35-5.79-.59C222.1,235.28,220.93,236.32,218.93,237.4Z"/><path class="cls-97" d="M247.55,231.39c-1.09,1-.56,2.18-.75,3.19s.45,2.42-1.06,2.35c-1.2-.06-1.06-1.48-1.16-2.48-.42-4.39-.43-4.35,4.41-4.24a24.25,24.25,0,0,0,2.54-.57c2.29-.25,4.08.46,4.39,3,.26,2.15-.15,4.13-2.75,4.63s-4.16-.5-4.71-3.09C248.27,233.29,248.62,232.2,247.55,231.39Z"/><path class="cls-98" d="M233.67,233.65c.19-1.85-.59-4.16,2.59-4,2.48.13,3.71,1.34,3.76,3.77.06,2.74-1.49,3.81-4,3.88C233,237.38,233.89,235.14,233.67,233.65Z"/><path class="cls-99" d="M227.71,261.67c2.43,0,5.24,2.63,5.27,5,0,2.7-2.62,5.57-5.15,5.59-2.27,0-5.1-2.76-5.2-5.09A5.46,5.46,0,0,1,227.71,261.67Z"/><path class="cls-44" d="M254.3,284.36c-3.14.53-4.5-.49-4.63-4-.18-4.64,2.88-3.23,5.26-3.53,3.1-.39,4,.75,4.12,3.93C259.17,284.76,257,284.68,254.3,284.36Z"/><path class="cls-100" d="M244.29,284.39c-3.14.26-5.07-.48-5.18-4-.16-4.53,3-3.23,5.46-3.56,3.13-.41,3.72,1,3.82,3.86C248.5,284.15,247,284.92,244.29,284.39Z"/><path class="cls-101" d="M254.08,292.05c-2.38.15-4.44.41-4.4-3.25,0-4.09,2.58-3.51,5.11-3.59s4.21-.11,4.27,3.42C259.13,293,256.41,292,254.08,292.05Z"/><path class="cls-102" d="M254.67,269.26c2.09-.14,4.46-.61,4.39,3.54-.07,3.69-2.11,3.25-4.41,3.27-2.64,0-5,.28-5-3.71C249.69,268.56,252,269.26,254.67,269.26Z"/><path class="cls-102" d="M243.8,276c-2.55.18-4.65.22-4.75-3.49-.11-4.44,2.85-3.09,5.09-3.28,2.44-.21,4.24-.16,4.27,3.38C248.46,276.54,246.24,276.14,243.8,276Z"/><path class="cls-101" d="M244,292.05c-2.57,0-4.9.7-4.9-3.11s2.29-3.68,4.94-3.75,4.44,0,4.41,3.67C248.37,293,245.77,291.91,244,292.05Z"/><path class="cls-44" d="M233.38,277.1c3.74-.64,5.17,0,5.1,3.32s-1.29,4-4.3,4.11c-4.28.2-3.85-2.86-4.09-5.26C229.73,275.67,232.72,277.29,233.38,277.1Z"/><path class="cls-103" d="M265.69,269.24c1.07.92,3.86-1.67,4.15,1.49.34,3.87-1.26,5.31-5,5.33-2.69,0-4.74-.43-4.47-3.9C260.63,269.25,260.5,269.24,265.69,269.24Z"/><path class="cls-104" d="M265,277.05c.59.26,3.14-1.09,2.76,1.33-.34,2.15.19,5.61-3.41,5.87-2.31.16-4.12-.44-4-3.77C260.4,277.32,261.48,276.39,265,277.05Z"/><path class="cls-103" d="M238.32,288.86c.45,2.44-.61,3.18-3.08,3.29-3.64.15-4.09-2.27-4.39-4.78-.32-2.7,1.86-2,3.37-2.14C236.83,285,238.83,285.5,238.32,288.86Z"/><path class="cls-1" d="M238.27,272c.42,3.5-1,4.53-3.73,3.93a10.23,10.23,0,0,0-2.92-.08,2.32,2.32,0,0,1-2.53-1.83c-.24-1.32,1.21-1,1.85-1.35a6.68,6.68,0,0,0,2.58-2.11c.89-1.56,2.31-1.45,3.64-1.14C238.92,269.78,238.15,271.39,238.27,272Z"/><path class="cls-105" d="M260.46,289.32c-.1-2.36,0-4.06,2.59-4.08,2.2,0,2.76,1.19,2.7,3.13-.08,2.21-1,3.59-3.33,3.67S260.54,290.26,260.46,289.32Z"/><path class="cls-1" d="M291.68,127q0,21.7,0,43.4c-1.63,4.28-4.94,5.39-9.23,5.37-21-.1-42.06,0-63.1-.05-5.63,0-7.54-1.89-7.54-7.39V94.58c0-4,2.06-6.29,6.16-6.3q33.65-.09,67.28,0c3.17,0,5.37,1.57,5.8,5.15.3,2.58-.3,5.21.53,7.77a1.27,1.27,0,0,1-1,1.7c-.48,0-1.11-.59-1.44-1.07-1.27-1.91-1.15-4-.59-6.13a5.19,5.19,0,0,1-1.07-1.47c-1.75-2.46-3-2.45-4.64.08a6.51,6.51,0,0,1-1,1.53c0,1.87,1.46,2,2.71,2.59,3.11,1.43,4.71,5.46,3.38,8.14-2.39,4.84.5,9,1.61,13.46.73,2.32,1.41,4.66,2.22,7Z"/><path class="cls-106" d="M281.76,95.86c-.15-2.37.33-4.46,3.21-4.54s3.36,2.11,3.5,4.4C286.28,98.09,284,98,281.76,95.86Z"/><path class="cls-107" d="M299.39,120c-1.37.07-3.31-.82-3.64,1.79a1.78,1.78,0,0,1-2.48,1,1.63,1.63,0,0,1-.91-2.21c1.34-1.88-.4-2.47-1.65-3.55,1.64-.22,3.13.4,3.47-1.74.25-1.52,1.88-1.61,3.1-1,1.38.68.87,1.58.22,2.76C296.54,118.81,299.53,118.28,299.39,120Z"/><path class="cls-108" d="M291.55,107.46c1.08.09,1.63.55,1.7,1.41a1.24,1.24,0,0,1-1.33,1.45A1.38,1.38,0,0,1,290.4,109C290.31,108.05,291,107.75,291.55,107.46Z"/><path class="cls-91" d="M291.68,127a12.32,12.32,0,0,1-2.22-7A12.87,12.87,0,0,1,291.68,127Z"/><path class="cls-1" d="M250.3,71.53c3.29,0,6.58,0,9.86,0,1,0,2.72-.41,2.72,1.16s-1.5,1.83-2.87,1.83h-9.48c-3.16,0-6.32,0-9.48,0-1.36,0-3.19.23-3.19-1.72s1.87-1.21,3-1.24C244,71.46,247.14,71.53,250.3,71.53Z"/><path class="cls-109" d="M230.74,233.64c-.1.91-.31,1.91-1.39,1.89-1.61,0-1.43-1.43-1.48-2.51s.2-1.82,1.43-1.62S230.78,232.56,230.74,233.64Z"/><path class="cls-110" d="M252.28,235.63c-1.41-.26-1.65-1.3-1.6-2.49s.66-1.9,1.87-1.77c1.42.14,1.72,1.22,1.64,2.44A1.76,1.76,0,0,1,252.28,235.63Z"/><path class="cls-111" d="M236.39,235.62c-1.41-.39-.92-1.57-1-2.48s0-1.9,1.32-1.73,1.54,1.11,1.47,2.21A1.85,1.85,0,0,1,236.39,235.62Z"/><path class="cls-112" d="M231.48,135.35c.84-4.18,1.5-8.4,2.6-12.51.71-2.68,3.23-1.72,5.14-1.76.58.34,1,2.51,1.81.14a2.05,2.05,0,0,1,1.39-1.07,111.37,111.37,0,0,1,19.24,0c1.4.29,2,3.4,4.14,1.18,1.25.06,2.28.52,2.53,1.84,1.22,6.43,3.23,12.74,3.08,19.37-.14,6.29-2.63,9.25-8.85,10.36-8.4,1.5-16.9,1-25.33.51-6.2-.32-8.77-4.82-7.39-11.81A42.21,42.21,0,0,1,231.48,135.35Z"/><path class="cls-113" d="M231.48,135.35c.29,3.34-1.61,6.32-1.48,9.67.19,4.93,2.81,7.92,7.72,7.83,7.44-.13,14.9.63,22.33-.58,9.1-1.49,11.29-4.17,10.22-13.63-.53-4.74-1.6-9.42-2.18-14.15-.26-2.14-1.18-2.91-3.17-2.75-.34,0-.68-.07-.74-.48,0-.13.19-.25.45-.31,1.75-.6,3.62-.34,4,1.48,1.62,7.73,4.73,15.16,4.76,23.21,0,4.34-2.32,7.38-6.5,7.93-9.69,1.26-19.45,1-29.15.55-6.39-.28-8.78-3.73-8.49-10.53C229.38,140.71,229.59,137.79,231.48,135.35Z"/><path class="cls-114" d="M264.63,121c.1.26.19.53.29.79-.5,1,.49,3.09-1.24,2.89s-.5-2.53-1.33-3.67c-1.27-1.1-1.22-2.68-1.53-4.14-.81-3.69-1.7-7.38-4.39-10.26-3.19-3.42-6.2-3.28-9.06.57a22,22,0,0,0-4.05,9.66c-.24,1.48-.24,3-1.52,4.15a1.48,1.48,0,0,1-.17.33c-.87,1.07.5,3.73-1.73,3.44-1.6-.2-.22-2.41-.68-3.63,1.18-3.7,1.77-7.57,3.38-11.15a22.65,22.65,0,0,1,2.81-4.9c4.28-5.31,10.29-5,14.12.61C262.66,110.26,263.3,115.72,264.63,121Z"/><path class="cls-115" d="M241.8,120.94A28.28,28.28,0,0,1,246.25,107c3.4-5.22,8-5.38,11.6-.34,3,4.24,4,9.2,4.5,14.3Z"/></svg>