<svg width="46" height="46" viewBox="0 0 46 46" fill="none" xmlns="http://www.w3.org/2000/svg">
<g clip-path="url(#clip0_0_859)">
<path d="M30.1306 0.93576C34.6114 0.93576 36.8517 0.93576 39.3021 1.70589C40.603 2.18175 41.7843 2.93571 42.7638 3.91516C43.7432 4.89461 44.4972 6.07597 44.9731 7.37682C45.7432 9.82722 45.7432 12.0676 45.7432 16.5553V30.1165C45.7432 34.6113 45.7432 36.8656 44.9731 39.288C44.4972 40.5889 43.7432 41.7702 42.7638 42.7497C41.7843 43.7291 40.603 44.4831 39.3021 44.959C36.8517 45.7431 34.6114 45.7431 30.1306 45.7431H16.5484C12.0537 45.7431 9.7993 45.7431 7.37691 44.973C6.07606 44.4971 4.8947 43.7431 3.91525 42.7637C2.9358 41.7842 2.18184 40.6029 1.70598 39.302C0.935852 36.8516 0.935852 34.6113 0.935852 30.1235V16.5483C0.935852 12.0536 0.935852 9.79921 1.70598 7.37682C2.18184 6.07597 2.9358 4.89461 3.91525 3.91516C4.8947 2.93571 6.07606 2.18175 7.37691 1.70589C9.82731 0.93576 12.0677 0.93576 16.5484 0.93576H30.1306Z" fill="#00D632"/>
<path d="M30.6697 17.5985C31.0198 17.9486 31.6009 17.9486 31.9299 17.5985L33.6802 15.7782C34.0513 15.4282 34.0303 14.7981 33.6382 14.42C32.2628 13.222 30.6638 12.3083 28.9334 11.7316L29.4865 9.07112C29.6056 8.49003 29.1715 7.94394 28.5904 7.94394H25.2018C24.99 7.94621 24.7854 8.02117 24.6223 8.15626C24.4592 8.29136 24.3474 8.4784 24.3057 8.68606L23.8156 11.0524C19.3069 11.2835 15.4842 13.5729 15.4842 18.2636C15.4842 22.3243 18.6418 24.0676 21.9813 25.2648C25.1388 26.469 26.8121 26.917 26.8121 28.6113C26.8121 30.3546 25.1458 31.3768 22.6814 31.3768C20.4411 31.3768 18.0887 30.6277 16.2684 28.8004C16.1838 28.7157 16.0834 28.6485 15.9729 28.6027C15.8624 28.5568 15.7439 28.5332 15.6243 28.5332C15.5046 28.5332 15.3861 28.5568 15.2756 28.6027C15.1651 28.6485 15.0647 28.7157 14.9802 28.8004L13.0899 30.6907C12.912 30.8691 12.8121 31.1108 12.8121 31.3628C12.8121 31.6147 12.912 31.8564 13.0899 32.0349C14.5601 33.4841 16.4224 34.5343 18.5451 35.1154L18.0271 37.6148C17.908 38.1959 18.3351 38.735 18.9162 38.742L22.3118 38.77C22.526 38.7709 22.7339 38.6975 22.8999 38.5621C23.0659 38.4267 23.1797 38.2379 23.2219 38.0279L23.712 35.6545C29.1365 35.2904 32.441 32.3009 32.441 27.9392C32.441 23.9206 29.1505 22.2263 25.1598 20.8471C22.8775 19.9999 20.9031 19.4188 20.9031 17.6755C20.9031 15.9813 22.7444 15.3091 24.5927 15.3091C26.9451 15.3091 29.2065 16.2823 30.6837 17.6125L30.6697 17.5985Z" fill="white"/>
</g>
<defs>
<clipPath id="clip0_0_859">
<rect width="44.8073" height="44.8073" fill="white" transform="translate(0.935852 0.93576)"/>
</clipPath>
</defs>
</svg>
