<svg width="34" height="30" viewBox="0 0 34 30" fill="none" xmlns="http://www.w3.org/2000/svg">
<path fill-rule="evenodd" clip-rule="evenodd" d="M17 13.3333C14.2386 13.3333 12 15.5719 12 18.3333V22.381V28.3333C12 29.2538 11.2538 30 10.3334 30C9.4129 30 8.66671 29.2538 8.66671 28.3333V22.381V18.3333L8.66691 18.2742C8.39468 18.3132 8.11638 18.3333 7.83337 18.3333C7.64995 18.3333 7.4685 18.3249 7.2894 18.3083C7.19542 18.3248 7.09873 18.3333 7.00004 18.3333H6.28576C4.8393 18.3333 3.66671 19.5059 3.66671 20.9524V25C3.66671 25.9205 2.92052 26.6667 2.00004 26.6667C1.07957 26.6667 0.333374 25.9205 0.333374 25V20.9524C0.333374 18.834 1.43998 16.9741 3.10664 15.9192C2.41048 14.9584 2.00004 13.7772 2.00004 12.5C2.00004 9.27834 4.61171 6.66667 7.83337 6.66667C8.73761 6.66667 9.59379 6.87241 10.3577 7.23963C10.3416 7.05078 10.3334 6.85968 10.3334 6.66667C10.3334 2.98477 13.3181 0 17 0C20.6819 0 23.6667 2.98477 23.6667 6.66667C23.6667 6.85968 23.6585 7.05078 23.6424 7.23963C24.4063 6.87241 25.2625 6.66667 26.1667 6.66667C29.3884 6.66667 32 9.27834 32 12.5C32 13.7772 31.5896 14.9584 30.8934 15.9192C32.5601 16.9741 33.6667 18.834 33.6667 20.9524V25C33.6667 25.9205 32.9205 26.6667 32 26.6667C31.0796 26.6667 30.3334 25.9205 30.3334 25V20.9524C30.3334 19.5059 29.1608 18.3333 27.7143 18.3333H27C26.9014 18.3333 26.8047 18.3248 26.7107 18.3083C26.5316 18.3249 26.3501 18.3333 26.1667 18.3333C25.8837 18.3333 25.6054 18.3132 25.3332 18.2742L25.3334 18.3333V22.381V28.3333C25.3334 29.2538 24.5872 30 23.6667 30C22.7462 30 22 29.2538 22 28.3333V22.381V18.3333C22 15.5719 19.7615 13.3333 17 13.3333ZM17 10C15.1591 10 13.6667 8.50762 13.6667 6.66667C13.6667 4.82572 15.1591 3.33333 17 3.33333C18.841 3.33333 20.3334 4.82572 20.3334 6.66667C20.3334 8.50762 18.841 10 17 10ZM7.83337 10C6.45266 10 5.33337 11.1193 5.33337 12.5C5.33337 13.8807 6.45266 15 7.83337 15C9.21409 15 10.3334 13.8807 10.3334 12.5C10.3334 11.1193 9.21409 10 7.83337 10ZM26.1667 10C24.786 10 23.6667 11.1193 23.6667 12.5C23.6667 13.8807 24.786 15 26.1667 15C27.5474 15 28.6667 13.8807 28.6667 12.5C28.6667 11.1193 27.5474 10 26.1667 10Z" fill="#000"/>
</svg>
