<svg width="46" height="46" viewBox="0 0 46 46" fill="none" xmlns="http://www.w3.org/2000/svg">
<g clip-path="url(#clip0_0_873)">
<path d="M21.7276 26.1507L10.2437 18.745C9.87098 18.5046 9.38617 18.5301 9.04072 18.8081L1.31992 25.0213C0.773093 25.4613 0.817476 26.3076 1.40738 26.688L12.8913 34.0937C13.264 34.3341 13.7489 34.3086 14.0943 34.0306L21.8151 27.8175C22.3619 27.3774 22.3175 26.5311 21.7276 26.1507Z" fill="#1587EA"/>
<path d="M24.8641 27.8174L32.5849 34.0305C32.9305 34.3085 33.4152 34.334 33.7879 34.0936L45.2719 26.6879C45.8618 26.3075 45.9062 25.4612 45.3593 25.0212L37.6385 18.8081C37.293 18.5301 36.8083 18.5046 36.4356 18.745L24.9516 26.1507C24.3618 26.5311 24.3173 27.3774 24.8641 27.8174Z" fill="#1587EA"/>
<path d="M21.8151 8.3693L14.0943 2.15623C13.7488 1.87821 13.264 1.85276 12.8913 2.09311L1.40738 9.49882C0.817476 9.87923 0.773093 10.7255 1.31992 11.1655L9.04072 17.3786C9.38627 17.6566 9.87098 17.6821 10.2437 17.4417L21.7276 10.036C22.3175 9.65561 22.3619 8.80932 21.8151 8.3693Z" fill="#1587EA"/>
<path d="M45.2718 9.49882L33.7879 2.09311C33.4152 1.85276 32.9304 1.87821 32.5849 2.15623L24.8641 8.3693C24.3173 8.80932 24.3617 9.65561 24.9516 10.036L36.4356 17.4417C36.8083 17.6821 37.2931 17.6566 37.6386 17.3786L45.3594 11.1655C45.9061 10.7254 45.8617 9.87913 45.2718 9.49882Z" fill="#1587EA"/>
<path d="M22.7769 28.9083L14.1307 35.8053C13.8173 36.0553 13.3794 36.0773 13.0425 35.8601L10.9114 34.4857C10.2902 34.0851 9.47192 34.5311 9.47192 35.2703V36.0133C9.47192 36.3397 9.64244 36.6425 9.92157 36.8117L22.7938 44.6148C23.0913 44.7951 23.4643 44.7951 23.7618 44.6148L36.634 36.8117C36.9132 36.6425 37.0837 36.3398 37.0837 36.0133V35.3502C37.0837 34.611 36.2653 34.1649 35.6442 34.5656L33.638 35.8593C33.3006 36.0769 32.8617 36.0544 32.5484 35.8033L23.9429 28.9095C23.6023 28.6367 23.1181 28.6362 22.7769 28.9083Z" fill="#1587EA"/>
</g>
<defs>
<clipPath id="clip0_0_873">
<rect width="44.8073" height="44.8073" fill="white" transform="translate(0.935852 0.93576)"/>
</clipPath>
</defs>
</svg>
