<svg width="30" height="28" viewBox="0 0 30 28" fill="none" xmlns="http://www.w3.org/2000/svg">
<path fill-rule="evenodd" clip-rule="evenodd" d="M21.5542 1.36395C20.2288 0.0385419 18.0716 0.0661895 16.7806 1.42514L2.44332 16.517C2.02669 16.9555 1.73725 17.4992 1.60603 18.0897L0.594662 22.6408C0.0720564 24.9926 2.14004 27.105 4.50234 26.6325L9.83198 25.5666C10.4773 25.4375 11.0699 25.1204 11.5353 24.655L25.8333 10.357C27.135 9.05528 27.135 6.94474 25.8333 5.64299L21.5542 1.36395ZM19.1972 3.72097L23.4763 8.00001L9.17826 22.298L3.84862 23.3639L4.85998 18.8128L19.1972 3.72097ZM18.3333 23.8333C17.4128 23.8333 16.6666 24.5795 16.6666 25.5C16.6666 26.4205 17.4128 27.1667 18.3333 27.1667H28.3333C29.2538 27.1667 29.9999 26.4205 29.9999 25.5C29.9999 24.5795 29.2538 23.8333 28.3333 23.8333H18.3333Z" fill="#000"/>
</svg>
