<svg width="46" height="46" viewBox="0 0 46 46" fill="none" xmlns="http://www.w3.org/2000/svg">
<g clip-path="url(#clip0_0_728)">
<path d="M23.3396 45.7432C35.7128 45.7432 45.7433 35.7127 45.7433 23.3395C45.7433 10.9663 35.7128 0.935852 23.3396 0.935852C10.9664 0.935852 0.935913 10.9663 0.935913 23.3395C0.935913 35.7127 10.9664 45.7432 23.3396 45.7432Z" fill="#3C5A9A"/>
<path d="M30.6242 7.81274H25.6613C22.7161 7.81274 19.4402 9.05145 19.4402 13.3206C19.4546 14.8082 19.4402 16.2328 19.4402 17.8361H16.0331V23.258H19.5457V38.8666H26.0003V23.155H30.2605L30.646 17.8209H25.889C25.889 17.8209 25.8997 15.4481 25.889 14.759C25.889 13.0719 27.6445 13.1686 27.7501 13.1686C28.5855 13.1686 30.2097 13.171 30.6267 13.1686V7.81274H30.6242Z" fill="white"/>
</g>
<defs>
<clipPath id="clip0_0_728">
<rect width="44.8073" height="44.8073" fill="white" transform="translate(0.935852 0.935791)"/>
</clipPath>
</defs>
</svg>
