<svg width="32" height="32" viewBox="0 0 32 32" fill="none" xmlns="http://www.w3.org/2000/svg">
<path fill-rule="evenodd" clip-rule="evenodd" d="M16.0001 5.74589L24.8805 10.873V21.1271L16.0001 26.2542L7.11979 21.1271V10.873L16.0001 5.74589ZM14.6668 3.43649C15.4919 2.96014 16.5084 2.96014 17.3335 3.43649L26.2138 8.56356C27.0389 9.03991 27.5471 9.92025 27.5471 10.873V21.1271C27.5471 22.0798 27.0389 22.9601 26.2138 23.4365L17.3335 28.5636C16.5084 29.0399 15.4919 29.0399 14.6668 28.5636L5.78646 23.4365C4.96139 22.9601 4.45312 22.0798 4.45312 21.1271V10.873C4.45312 9.92025 4.96139 9.03991 5.78646 8.56356L14.6668 3.43649ZM10.6667 16C10.6667 13.0545 13.0545 10.6667 16 10.6667C18.9455 10.6667 21.3333 13.0545 21.3333 16C21.3333 18.9455 18.9455 21.3334 16 21.3334C13.0545 21.3334 10.6667 18.9455 10.6667 16ZM16 13.3334C14.5272 13.3334 13.3333 14.5273 13.3333 16C13.3333 17.4728 14.5272 18.6667 16 18.6667C17.4728 18.6667 18.6667 17.4728 18.6667 16C18.6667 14.5273 17.4728 13.3334 16 13.3334Z" fill="#485164"/>
</svg>
