<svg width="34" height="34" viewBox="0 0 34 34" fill="none" xmlns="http://www.w3.org/2000/svg">
<path fill-rule="evenodd" clip-rule="evenodd" d="M0.333374 17C0.333374 26.2048 7.7953 33.6667 17 33.6667C26.2048 33.6667 33.6667 26.2048 33.6667 17C33.6667 7.79527 26.2048 0.333344 17 0.333344C7.7953 0.333344 0.333374 7.79527 0.333374 17ZM3.66671 17C3.66671 9.63621 9.63624 3.66668 17 3.66668C24.3638 3.66668 30.3334 9.63621 30.3334 17C30.3334 24.3638 24.3638 30.3333 17 30.3333C9.63624 30.3333 3.66671 24.3638 3.66671 17ZM17.9127 18.7767C17.8194 19.3833 17.3294 19.92 16.6527 19.92H16.466C15.7894 19.92 15.2994 19.4067 15.206 18.7767L14.9727 17.19C14.856 16.42 15.2994 15.8833 16.046 15.79C18.076 15.5333 19.0094 14.9033 19.0094 13.76V13.7133C19.0094 12.6633 18.216 12.0567 16.8627 12.0567C15.8594 12.0567 14.996 12.36 14.156 12.99C13.876 13.2 13.5027 13.3633 13.106 13.3633C12.2194 13.3633 11.4727 12.6167 11.4727 11.73C11.4727 11.2867 11.6594 10.82 12.0794 10.47C13.316 9.44334 14.8794 8.79001 16.9327 8.79001C20.2927 8.79001 22.5794 10.5167 22.5794 13.62V13.6667C22.5794 16.63 20.526 17.8433 17.9827 18.3567L17.9127 18.7767ZM14.436 23.49V23.4433C14.436 22.3233 15.2994 21.46 16.466 21.46C17.6327 21.46 18.496 22.3233 18.496 23.4433V23.49C18.496 24.61 17.6327 25.4733 16.466 25.4733C15.2994 25.4733 14.436 24.61 14.436 23.49Z" fill="#606C85"/>
</svg>
