<svg width="24" height="28" viewBox="0 0 24 28" fill="none" xmlns="http://www.w3.org/2000/svg">
<path fill-rule="evenodd" clip-rule="evenodd" d="M10 24.6623C10 26.1375 8.80609 27.3333 7.33333 27.3333H4C1.79086 27.3333 0 25.5395 0 23.3268V12.0562C0 10.9336 0.470173 9.86255 1.29606 9.10371L9.33134 1.72074C10.8162 0.356426 13.0824 0.311371 14.6201 1.61559L22.5848 8.3708C23.4824 9.13207 24 10.2504 24 11.4284V23.3268C24 25.5395 22.2091 27.3333 20 27.3333H16.6667C15.1939 27.3333 14 26.1375 14 24.6623V18.0336H10V24.6623ZM12.8969 3.65402C12.3843 3.21928 11.6289 3.2343 11.134 3.68907L3.09869 11.072C2.82339 11.325 2.66667 11.682 2.66667 12.0562V23.3268C2.66667 24.0644 3.26362 24.6623 4 24.6623H7.33333V16.6981C7.33333 15.9605 7.93029 15.3626 8.66667 15.3626H15.3333C16.0697 15.3626 16.6667 15.9605 16.6667 16.6981V24.6623H20C20.7364 24.6623 21.3333 24.0644 21.3333 23.3268V11.4284C21.3333 11.0358 21.1608 10.663 20.8616 10.4092L12.8969 3.65402Z" fill="#000"/>
</svg>
