<svg width="46" height="46" viewBox="0 0 46 46" fill="none" xmlns="http://www.w3.org/2000/svg">
<path d="M32.3948 0.935791H14.2842C6.92389 0.935791 0.935852 6.92383 0.935852 14.2841V32.3948C0.935852 39.7551 6.92389 45.7431 14.2842 45.7431H32.3948C39.7552 45.7431 45.7432 39.7551 45.7432 32.3948V14.2841C45.7431 6.92383 39.7551 0.935791 32.3948 0.935791ZM41.2356 32.3948C41.2356 37.2773 37.2774 41.2355 32.3948 41.2355H14.2842C9.40164 41.2355 5.44347 37.2773 5.44347 32.3948V14.2841C5.44347 9.4015 9.40164 5.44341 14.2842 5.44341H32.3948C37.2774 5.44341 41.2356 9.4015 41.2356 14.2841V32.3948Z" fill="url(#paint0_linear_0_738)"/>
<path d="M23.3395 11.7507C16.9494 11.7507 11.7507 16.9494 11.7507 23.3394C11.7507 29.7293 16.9494 34.9281 23.3395 34.9281C29.7296 34.9281 34.9283 29.7294 34.9283 23.3394C34.9283 16.9493 29.7296 11.7507 23.3395 11.7507ZM23.3395 30.4206C19.4287 30.4206 16.2583 27.2503 16.2583 23.3394C16.2583 19.4286 19.4287 16.2583 23.3395 16.2583C27.2504 16.2583 30.4207 19.4286 30.4207 23.3394C30.4207 27.2502 27.2503 30.4206 23.3395 30.4206Z" fill="url(#paint1_linear_0_738)"/>
<path d="M34.9507 14.6146C36.4844 14.6146 37.7276 13.3713 37.7276 11.8377C37.7276 10.3041 36.4844 9.06079 34.9507 9.06079C33.4171 9.06079 32.1738 10.3041 32.1738 11.8377C32.1738 13.3713 33.4171 14.6146 34.9507 14.6146Z" fill="url(#paint2_linear_0_738)"/>
<defs>
<linearGradient id="paint0_linear_0_738" x1="23.3395" y1="45.6127" x2="23.3395" y2="1.28382" gradientUnits="userSpaceOnUse">
<stop stop-color="#E09B3D"/>
<stop offset="0.3" stop-color="#C74C4D"/>
<stop offset="0.6" stop-color="#C21975"/>
<stop offset="1" stop-color="#7024C4"/>
</linearGradient>
<linearGradient id="paint1_linear_0_738" x1="23.3395" y1="45.6127" x2="23.3395" y2="1.2838" gradientUnits="userSpaceOnUse">
<stop stop-color="#E09B3D"/>
<stop offset="0.3" stop-color="#C74C4D"/>
<stop offset="0.6" stop-color="#C21975"/>
<stop offset="1" stop-color="#7024C4"/>
</linearGradient>
<linearGradient id="paint2_linear_0_738" x1="34.9507" y1="45.6127" x2="34.9507" y2="1.28383" gradientUnits="userSpaceOnUse">
<stop stop-color="#E09B3D"/>
<stop offset="0.3" stop-color="#C74C4D"/>
<stop offset="0.6" stop-color="#C21975"/>
<stop offset="1" stop-color="#7024C4"/>
</linearGradient>
</defs>
</svg>
