<svg width="48" height="48" viewBox="0 0 48 48" fill="none" xmlns="http://www.w3.org/2000/svg">
<path fill-rule="evenodd" clip-rule="evenodd" d="M0.666687 24C0.666687 36.8866 11.1134 47.3333 24 47.3333C36.8867 47.3333 47.3334 36.8866 47.3334 24C47.3334 11.1133 36.8867 0.666656 24 0.666656C11.1134 0.666656 0.666687 11.1133 0.666687 24ZM22.6968 5.37811C23.1273 5.34842 23.5619 5.33332 24 5.33332C24.4381 5.33332 24.8727 5.34842 25.3033 5.37811C25.3831 5.47919 25.4691 5.59065 25.5604 5.71249C26.1424 6.48841 26.9408 7.68234 27.7464 9.29349C29.158 12.1169 30.5998 16.2364 30.9299 21.6667L17.0702 21.6667C17.4002 16.2364 18.842 12.1169 20.2537 9.29349C21.0593 7.68234 21.8577 6.48841 22.4396 5.71249C22.531 5.59065 22.617 5.47919 22.6968 5.37811ZM12.3958 26.3333C12.7338 32.5914 14.3912 37.4165 16.0797 40.7935L16.155 40.943C10.4376 38.2913 6.288 32.8309 5.47777 26.3333H12.3958ZM12.3958 21.6667H5.47777C6.288 15.1691 10.4376 9.70867 16.155 7.05694L16.0797 7.20649C14.3912 10.5834 12.7338 15.4086 12.3958 21.6667ZM17.0702 26.3333L30.9299 26.3333C30.5998 31.7636 29.158 35.8831 27.7464 38.7065C26.9408 40.3176 26.1424 41.5116 25.5604 42.2875C25.4691 42.4093 25.3831 42.5208 25.3033 42.6219C24.8727 42.6516 24.4381 42.6667 24 42.6667C23.5619 42.6667 23.1273 42.6516 22.6968 42.6219C22.617 42.5208 22.531 42.4093 22.4396 42.2875C21.8577 41.5116 21.0593 40.3176 20.2537 38.7065C18.842 35.8831 17.4002 31.7636 17.0702 26.3333ZM35.6042 26.3333C35.2663 32.5914 33.6088 37.4165 31.9204 40.7935L31.8451 40.943C37.5624 38.2913 41.712 32.8309 42.5223 26.3333H35.6042ZM42.5223 21.6667C41.712 15.1691 37.5624 9.70867 31.8451 7.05694L31.9204 7.20649C33.6088 10.5834 35.2663 15.4086 35.6042 21.6667H42.5223Z" fill="url(#paint0_linear_249_117)"/>
<defs>
<linearGradient id="paint0_linear_249_117" x1="19.299" y1="-8.69265" x2="-10.2194" y2="26.9568" gradientUnits="userSpaceOnUse">
<stop stop-color="#F78361"/>
<stop offset="0.458333" stop-color="#F77562"/>
<stop offset="1" stop-color="#F54B64"/>
</linearGradient>
</defs>
</svg>
