<svg width="46" height="46" viewBox="0 0 46 46" fill="none" xmlns="http://www.w3.org/2000/svg">
<path d="M23.3395 0.936096C10.9662 0.936096 0.935852 10.9665 0.935852 23.3397C0.935852 35.713 10.9662 45.7433 23.3395 45.7433C35.7128 45.7433 45.7432 35.713 45.7432 23.3397C45.7431 10.9665 35.7126 0.936096 23.3395 0.936096ZM17.3622 34.1708H12.4432V18.2791H17.3622V34.1708ZM14.8792 16.198C13.2728 16.198 11.9704 14.8851 11.9704 13.2657C11.9704 11.6462 13.2729 10.3333 14.8792 10.3333C16.4855 10.3333 17.7879 11.6462 17.7879 13.2657C17.788 14.8851 16.4856 16.198 14.8792 16.198V16.198ZM35.7959 34.1708H30.9008V25.829C30.9008 23.5411 30.0317 22.264 28.2226 22.264C26.2537 22.264 25.2251 23.5941 25.2251 25.829V34.1708H20.5073V18.2791H25.2251V20.4195C25.2251 20.4195 26.6442 17.7944 30.0139 17.7944C33.3837 17.7944 35.796 19.852 35.796 24.1084L35.7959 34.1708V34.1708Z" fill="url(#paint0_linear_0_767)"/>
<defs>
<linearGradient id="paint0_linear_0_767" x1="7.49772" y1="7.49796" x2="39.1812" y2="39.1815" gradientUnits="userSpaceOnUse">
<stop stop-color="#2489BE"/>
<stop offset="1" stop-color="#0575B3"/>
</linearGradient>
</defs>
</svg>
