<svg width="14" height="20" viewBox="0 0 14 20" fill="none" xmlns="http://www.w3.org/2000/svg">
<path fill-rule="evenodd" clip-rule="evenodd" d="M3 7.25469V6C3 3.79086 4.79086 2 7 2C9.20914 2 11 3.79086 11 6V7.25469C9.86617 6.46381 8.48725 6 7 6C5.51275 6 4.13383 6.46381 3 7.25469ZM2.99963 10H3V9.99951C3.91223 8.78534 5.3644 8 7 8C8.6356 8 10.0878 8.78534 11 9.99951V10H11.0004C11.6281 10.8357 12 11.8744 12 13C12 15.7614 9.76142 18 7 18C4.23858 18 2 15.7614 2 13C2 11.8744 2.37194 10.8357 2.99963 10ZM1 9.39241L1 6C1 2.68629 3.68629 0 7 0C10.3137 0 13 2.68629 13 6V9.39241C13.6348 10.446 14 11.6803 14 13C14 16.866 10.866 20 7 20C3.13401 20 0 16.866 0 13C0 11.6803 0.36518 10.446 1 9.39241ZM7 11C8.10457 11 9 11.8954 9 13C9 14.1046 8.10457 15 7 15C5.89543 15 5 14.1046 5 13C5 11.8954 5.89543 11 7 11Z" fill="#606C85"/>
</svg>
