<svg width="28" height="34" viewBox="0 0 28 34" fill="none" xmlns="http://www.w3.org/2000/svg">
<path fill-rule="evenodd" clip-rule="evenodd" d="M12.8295 0.556645C15.0087 -0.291103 17.3333 1.38007 17.3333 3.79446V22.2204V30.207C17.3333 32.4566 15.2953 34.1074 13.1915 33.5617L3.19151 30.9682C1.70762 30.5834 0.666626 29.2003 0.666626 27.6135V7.6847C0.666626 6.24326 1.52853 4.95301 2.82955 4.44689L12.8295 0.556645ZM14 3.79446L3.99996 7.6847L3.99996 27.6135L14 30.207V22.2204V3.79446ZM8.99995 16.8605C8.99995 15.9056 9.74614 15.1315 10.6666 15.1315C11.5871 15.1315 12.3333 15.9056 12.3333 16.8605C12.3333 17.8154 11.5871 18.5895 10.6666 18.5895C9.74614 18.5895 8.99995 17.8154 8.99995 16.8605ZM20.6666 3.02852C19.7461 3.02852 18.9999 3.80261 18.9999 4.75751C18.9999 5.71241 19.7461 6.48651 20.6666 6.48651H23.9999V21.0293V27.2345H20.6666C19.7461 27.2345 18.9999 28.0086 18.9999 28.9634C18.9999 29.9183 19.7461 30.6924 20.6666 30.6924H23.9999C25.8409 30.6924 27.3333 29.1442 27.3333 27.2345V21.0293V6.48651C27.3333 4.57672 25.8409 3.02852 23.9999 3.02852H20.6666Z" fill="#000"/>
</svg>
