<svg width="24" height="20" viewBox="0 0 24 20" fill="none" xmlns="http://www.w3.org/2000/svg">
<path fill-rule="evenodd" clip-rule="evenodd" d="M0 2.00001C0 1.26363 0.596954 0.666672 1.33333 0.666672H22.6667C23.403 0.666672 24 1.26363 24 2.00001C24 2.73638 23.403 3.33334 22.6667 3.33334H1.33333C0.596954 3.33334 0 2.73638 0 2.00001ZM0 10C0 9.26363 0.596954 8.66667 1.33333 8.66667H22.6667C23.403 8.66667 24 9.26363 24 10C24 10.7364 23.403 11.3333 22.6667 11.3333H1.33333C0.596954 11.3333 0 10.7364 0 10ZM1.33333 16.6667C0.596954 16.6667 0 17.2636 0 18C0 18.7364 0.596954 19.3333 1.33333 19.3333H22.6667C23.403 19.3333 24 18.7364 24 18C24 17.2636 23.403 16.6667 22.6667 16.6667H1.33333Z" fill="#000"/>
</svg>
