<svg width="163" height="115" viewBox="0 0 163 115" fill="none" xmlns="http://www.w3.org/2000/svg">
<path fill-rule="evenodd" clip-rule="evenodd" d="M24.0357 112.515L24.0339 112.516L24.0986 112.571C25.6285 113.87 27.6098 114.554 29.6365 114.497C31.6632 114.44 33.6008 113.646 35.05 112.261C36.5008 110.876 37.3526 109.002 37.4137 107.02C37.4748 105.038 36.7397 103.118 35.3748 101.651L35.3766 101.649L35.3158 101.591C23.0996 89.9191 16.2478 74.1035 16.2478 57.625C16.2478 41.1465 23.0996 25.3309 35.3158 13.6588L35.3175 13.6606L35.3748 13.599C36.7397 12.1322 37.4748 10.212 37.4137 8.22982C37.3526 6.24777 36.5008 4.37408 35.05 2.98852C33.6008 1.60448 31.6632 0.810271 29.6365 0.753287C27.6098 0.696318 25.6284 1.38024 24.0986 2.67867L24.097 2.67678L24.0357 2.73537C8.81204 17.2881 0.249997 37.0295 0.249998 57.625C0.249998 78.2205 8.81204 97.9619 24.0357 112.515ZM47.3175 91.8859L47.3146 91.8889L47.3995 91.9586C48.9354 93.2172 50.9025 93.8688 52.9068 93.7958C54.9111 93.7228 56.8227 92.9297 58.2563 91.5607C59.6914 90.1901 60.5416 88.3417 60.6199 86.3818C60.6982 84.4217 59.9976 82.5145 58.6736 81.0408L58.6767 81.038L58.5976 80.9625C52.116 74.7705 48.4855 66.3854 48.4855 57.6545C48.4855 48.9403 52.1022 40.5705 58.5606 34.3819C59.3804 33.7002 60.0505 32.8636 60.5273 31.9206C61.0128 30.9604 61.2866 29.9122 61.3293 28.8421C61.372 27.7719 61.1827 26.7061 60.7746 25.7121C60.3666 24.7183 59.7497 23.8196 58.9657 23.0709C58.1818 22.3223 57.2478 21.7395 56.2235 21.356C55.1994 20.9725 54.1052 20.7958 53.0088 20.8358C51.9124 20.8757 50.8348 21.1315 49.8431 21.5889C48.8685 22.0383 47.996 22.6737 47.2799 23.4591C37.8143 32.5283 32.4877 44.8236 32.4877 57.6545C32.4877 70.5024 37.8284 82.8133 47.3175 91.8859ZM59.2432 31.2811C58.8487 32.0612 58.2897 32.7551 57.6013 33.3193C50.8446 39.7741 47.0488 48.5275 47.0488 57.6545C47.0488 66.7816 50.8446 75.535 57.6013 81.9898C58.6822 83.1928 59.2476 84.7413 59.1844 86.3254C59.1211 87.9095 58.4339 89.4123 57.2601 90.5333C56.0864 91.6542 54.5128 92.3105 52.8541 92.3709L52.8516 92.371C54.5103 92.3106 56.0839 91.6542 57.2576 90.5333C58.4314 89.4124 59.1186 87.9095 59.1819 86.3254C59.2451 84.7413 58.6797 83.1929 57.5988 81.9898C50.8421 75.535 47.0463 66.7816 47.0463 57.6546C47.0463 48.5275 50.8421 39.7741 57.5988 33.3194C58.2873 32.7552 58.8462 32.0613 59.2407 31.2811C59.6352 30.501 59.8567 29.6514 59.8913 28.7857C59.9258 27.9199 59.7728 27.0567 59.4416 26.2501C59.1105 25.4436 58.6085 24.711 57.967 24.0984C57.3256 23.4858 56.5585 23.0063 55.7139 22.6901C54.9922 22.4199 54.2273 22.2738 53.4543 22.2576C54.2281 22.2735 54.994 22.4195 55.7164 22.69C56.561 23.0063 57.3281 23.4857 57.9695 24.0983C58.611 24.7109 59.113 25.4435 59.4441 26.2501C59.7752 27.0567 59.9283 27.9199 59.8937 28.7856C59.8592 29.6513 59.6377 30.5009 59.2432 31.2811ZM35.9777 8.27342C35.9283 6.67188 35.2401 5.14887 34.0538 4.01592C32.8675 2.88296 31.2728 2.2257 29.5958 2.17856C29.4709 2.17504 29.3463 2.17493 29.222 2.17818C29.3455 2.175 29.4693 2.17512 29.5933 2.17862C31.2703 2.22576 32.865 2.88302 34.0513 4.01598C35.2376 5.14893 35.9258 6.67194 35.9752 8.27348C36.0246 9.87502 35.4314 11.4341 34.3169 12.6317C21.8256 24.5666 14.8086 40.7505 14.8086 57.6251C14.8086 74.4997 21.8256 90.6835 34.3169 102.618C35.4314 103.816 36.0246 105.375 35.9752 106.977C35.9258 108.578 35.2376 110.101 34.0513 111.234C32.865 112.367 31.2703 113.024 29.5933 113.071L29.5958 113.071C31.2728 113.024 32.8675 112.367 34.0538 111.234C35.2401 110.101 35.9283 108.578 35.9777 106.977C36.0271 105.375 35.4338 103.816 34.3194 102.618C21.8281 90.6835 14.8111 74.4996 14.8111 57.625C14.8111 40.7504 21.8281 24.5665 34.3194 12.6316C35.4338 11.434 36.0271 9.87496 35.9777 8.27342ZM138.901 112.571L138.903 112.573L138.964 112.515C154.188 97.9619 162.75 78.2205 162.75 57.625C162.75 37.0295 154.188 17.2881 138.964 2.73537L138.966 2.73357L138.901 2.67867C137.372 1.38024 135.39 0.696321 133.364 0.75329C131.337 0.810266 129.399 1.60449 127.95 2.98852C126.499 4.37408 125.647 6.24777 125.586 8.22981C125.525 10.212 126.26 12.1323 127.625 13.599L127.623 13.6007L127.684 13.6588C139.9 25.3309 146.752 41.1465 146.752 57.625C146.752 74.1035 139.9 89.9191 127.684 101.591L127.682 101.589L127.625 101.651C126.26 103.118 125.525 105.038 125.586 107.02C125.647 109.002 126.499 110.876 127.95 112.261C129.399 113.646 131.337 114.44 133.364 114.497C135.39 114.554 137.372 113.87 138.901 112.571ZM115.912 91.9585L115.915 91.9618L115.994 91.8859C125.483 82.8132 130.824 70.5024 130.824 57.6545C130.824 44.8236 125.497 32.5283 116.032 23.459C115.316 22.6736 114.443 22.0383 113.469 21.5888C112.477 21.1315 111.399 20.8757 110.303 20.8357C109.207 20.7958 108.112 20.9725 107.088 21.356C106.064 21.7395 105.13 22.3223 104.346 23.0709C103.562 23.8196 102.945 24.7182 102.537 25.7121C102.129 26.7061 101.94 27.7719 101.982 28.8421C102.025 29.9122 102.299 30.9604 102.784 31.9206C103.261 32.8635 103.931 33.7002 104.751 34.382C111.21 40.5705 114.826 48.9402 114.826 57.6545C114.826 66.3854 111.196 74.7705 104.714 80.9625L104.711 80.9595L104.638 81.0408C103.314 82.5144 102.614 84.4217 102.692 86.3818C102.77 88.3417 103.62 90.1901 105.055 91.5606C106.489 92.9297 108.401 93.7228 110.405 93.7958C112.409 93.8688 114.376 93.2172 115.912 91.9585ZM112.863 22.8819C113.68 23.2586 114.407 23.7925 114.998 24.45C124.212 33.2599 129.387 45.2026 129.387 57.6545C129.387 70.1064 124.212 82.0492 114.998 90.8591C113.841 91.8069 112.379 92.3397 110.864 92.3737C112.378 92.3392 113.839 91.8065 114.995 90.8591C124.209 82.0492 129.385 70.1065 129.385 57.6546C129.385 45.2026 124.209 33.2599 114.995 24.45C114.404 23.7925 113.678 23.2587 112.861 22.8819C112.044 22.5052 111.154 22.2937 110.248 22.2607C110.114 22.2558 109.98 22.2548 109.846 22.2578C109.98 22.2548 110.115 22.2557 110.25 22.2606C111.157 22.2936 112.046 22.5051 112.863 22.8819ZM134.332 2.21508C135.675 2.35911 136.947 2.89571 137.968 3.7623C152.916 18.0523 161.313 37.4255 161.313 57.625C161.313 77.8245 152.916 97.1977 137.968 111.488C136.797 112.482 135.295 113.041 133.736 113.073C135.295 113.041 136.795 112.481 137.965 111.488C152.914 97.1978 161.311 77.8245 161.311 57.6251C161.311 37.4256 152.914 18.0524 137.965 3.76236C136.945 2.8963 135.674 2.35954 134.332 2.21508ZM97.462 57.6251C97.462 48.8754 90.3152 41.7824 81.4991 41.7824C81.3875 41.7824 81.2763 41.7836 81.1653 41.7858C81.2771 41.7835 81.3892 41.7824 81.5016 41.7824C90.3177 41.7824 97.4645 48.8754 97.4645 57.625C97.4645 66.1341 90.7052 73.0764 82.2247 73.4516C90.704 73.0751 97.462 66.1333 97.462 57.6251ZM98.9012 57.625C98.9012 48.0879 91.1111 40.3566 81.5016 40.3566C71.892 40.3566 64.1019 48.0879 64.1019 57.625C64.1019 67.1621 71.892 74.8935 81.5016 74.8935C91.1111 74.8935 98.9012 67.1621 98.9012 57.625Z" fill="url(#paint0_linear_325_2)"/>
<defs>
<linearGradient id="paint0_linear_325_2" x1="-32.3404" y1="69.0837" x2="54.874" y2="172.248" gradientUnits="userSpaceOnUse">
<stop stop-color="#F78361"/>
<stop offset="0.458333" stop-color="#F77562"/>
<stop offset="1" stop-color="#F54B64"/>
</linearGradient>
</defs>
</svg>
