<svg width="46" height="46" viewBox="0 0 46 46" fill="none" xmlns="http://www.w3.org/2000/svg">
<g clip-path="url(#clip0_0_866)">
<path d="M38.4686 12.5122C38.5445 11.8956 38.5841 11.2679 38.5841 10.6309C38.5841 5.27647 34.2435 0.93576 28.889 0.93576H12.6865C11.6673 0.93576 10.7971 1.67176 10.628 2.67677L4.65781 38.1616C4.44358 39.435 5.42514 40.5953 6.71624 40.5953H12.6419C13.6611 40.5953 14.5476 39.8599 14.7166 38.8548C14.7166 38.8548 14.7265 38.7959 14.7444 38.6898H14.7445L13.9187 43.5981C13.73 44.7203 14.5951 45.7431 15.733 45.7431H20.9171C21.8154 45.7431 22.5824 45.0944 22.7314 44.2085L24.2041 35.4554C24.458 33.9464 25.7643 32.8416 27.2944 32.8416H28.6563C36.0538 32.8416 42.0507 26.8446 42.0507 19.4471C42.0507 16.5846 40.6357 14.0543 38.4686 12.5122Z" fill="#002987"/>
<path d="M38.4686 12.5121C37.5415 20.054 31.1136 25.894 23.3211 25.894H18.7997C17.7792 25.894 16.8978 26.5737 16.6214 27.5348L13.9188 43.5979C13.73 44.7202 14.5951 45.7431 15.733 45.7431H20.9171C21.8155 45.7431 22.5824 45.0943 22.7314 44.2085L24.2042 35.4553C24.458 33.9464 25.7644 32.8416 27.2944 32.8416H28.6563C36.0539 32.8416 42.0507 26.8446 42.0507 19.4471C42.0507 16.5846 40.6358 14.0543 38.4686 12.5121Z" fill="#0085CC"/>
<path d="M18.7997 25.894H23.3211C31.1137 25.894 37.5416 20.054 38.4686 12.5122C37.0782 11.5228 35.379 10.9389 33.5425 10.9389H21.7412C20.3975 10.9389 19.2503 11.9092 19.0273 13.2341L16.6213 27.5347C16.8978 26.5736 17.7792 25.894 18.7997 25.894Z" fill="#00186A"/>
</g>
<defs>
<clipPath id="clip0_0_866">
<rect width="44.8073" height="44.8073" fill="white" transform="translate(0.935852 0.93576)"/>
</clipPath>
</defs>
</svg>
