<svg width="26" height="32" viewBox="0 0 26 32" fill="none" xmlns="http://www.w3.org/2000/svg">
<path fill-rule="evenodd" clip-rule="evenodd" d="M5.01231 31.7877C4.46032 31.4468 4.23228 30.7824 4.46528 30.194L8.4342 20.1715L2.2898 20.6624C1.71713 20.7082 1.17403 20.4118 0.922846 19.9165C0.671661 19.4212 0.764088 18.8288 1.15547 18.4256L18.6267 0.425325C19.0681 -0.0294495 19.7787 -0.131912 20.3402 0.178253C20.9017 0.488419 21.1654 1.12905 20.976 1.72304L17.7482 11.8468L24.3231 11.338C24.9036 11.2931 25.4519 11.5995 25.6971 12.1058C25.9423 12.6121 25.8324 13.2111 25.4219 13.607L6.75285 31.607C6.28989 32.0533 5.56429 32.1287 5.01231 31.7877ZM20.7938 14.2865L15.9313 14.6627C15.472 14.6983 15.0241 14.5135 14.7353 14.1694C14.4464 13.8253 14.3541 13.3664 14.4888 12.9441L16.5495 6.4808L5.6419 17.7187L10.4025 17.3383C10.8786 17.3003 11.3419 17.499 11.6294 17.8648C11.9169 18.2305 11.9884 18.712 11.8189 19.1401L9.38488 25.2865L20.7938 14.2865Z" fill="#000"/>
</svg>
