<svg width="46" height="46" viewBox="0 0 46 46" fill="none" xmlns="http://www.w3.org/2000/svg">
<g clip-path="url(#clip0_0_811)">
<path d="M23.9099 40.885C14.9031 40.885 4.66918 30.1923 5.48763 21.3152C6.30607 12.8419 17.7691 4.97388 26.2635 6.18435C33.7351 7.19244 40.3882 16.4733 39.9775 23.8373C39.5698 31.6032 31.7902 40.885 23.9099 40.885Z" fill="white"/>
<path d="M30.3587 45.4229C29.7437 45.2215 28.8226 45.0201 28.3112 44.8177C27.6971 44.516 26.9803 44.516 24.7294 44.6162C22.5801 44.7165 21.4537 44.6162 19.9194 44.4139C11.7311 43.0029 5.18067 37.152 2.82703 29.0826C2.41733 27.5695 2.31562 26.7628 2.31562 23.1314C2.31562 19.1965 2.21296 18.8948 1.70155 17.2805C-1.26616 9.31134 4.77192 0.93927 13.369 0.93927C15.1085 0.93927 17.2578 1.44426 18.486 2.04855C19.3054 2.45235 19.8168 2.55259 22.9888 2.55259C25.8549 2.55259 26.9803 2.65378 28.4129 3.05758C34.8616 4.67185 40.0803 8.80729 42.8436 14.557C44.5832 18.0872 45.1982 21.7195 44.7876 25.854C44.5832 28.0745 44.5832 28.2759 45.0946 29.5866C46.7324 34.3282 45.1973 39.7744 41.2058 43.0029C39.9767 44.012 37.5213 45.1212 35.9861 45.525C34.45 45.8277 31.9946 45.8277 30.4585 45.4239H30.3587V45.4229ZM27.5944 37.6561C30.9728 36.9506 33.9395 34.9325 35.066 32.5125C36.4985 29.5866 36.0888 26.1567 34.1449 24.0383C32.507 22.2226 30.0507 21.2146 24.217 19.8027C20.3272 18.8948 19.4061 18.491 18.5877 17.5832C17.8709 16.7756 17.7683 16.1713 18.3833 15.2634C18.9974 14.2544 20.5325 13.6492 22.5791 13.5489C25.5478 13.3475 26.8777 14.053 28.6172 16.7765C29.948 18.7946 31.2779 19.2986 33.0194 18.491C35.2704 17.3817 35.066 13.7503 32.6087 11.632C30.2551 9.71609 27.6971 8.90848 23.3976 8.90848C18.8947 8.90848 15.8234 9.81633 13.7768 11.8335C12.1389 13.4477 11.8328 14.3556 11.8328 16.8767C11.8328 19.4991 12.1399 20.3058 13.8794 21.8198C15.7217 23.5343 17.2568 24.1405 22.7826 25.4512C26.6723 26.359 27.6961 26.8631 28.6163 27.8721C29.0269 28.3771 29.2313 28.78 29.2313 29.6878C29.2313 30.6968 29.1286 30.8983 28.3102 31.7059C27.082 32.9154 25.2398 33.4194 22.8862 33.3202C20.1228 33.1178 18.8947 32.3111 17.4622 29.4864C16.4384 27.5704 15.6199 26.864 14.2891 26.864C11.3205 26.864 10.2976 29.285 11.8328 32.4114C13.1636 35.1358 15.8243 36.9515 19.2017 37.657C21.2483 38.0608 25.7522 38.0608 27.6971 37.657H27.5944V37.6561Z" fill="#00AFF0"/>
</g>
<defs>
<clipPath id="clip0_0_811">
<rect width="44.8073" height="44.8073" fill="white" transform="translate(0.935852 0.935791)"/>
</clipPath>
</defs>
</svg>
