<svg width="46" height="46" viewBox="0 0 46 46" fill="none" xmlns="http://www.w3.org/2000/svg">
<g clip-path="url(#clip0_0_760)">
<path d="M23.3197 4.16227C29.3334 4.16428 34.3427 9.17084 34.35 15.1991C34.3517 16.611 34.3952 17.9112 34.4749 19.109C34.5241 19.8479 35.1387 20.3956 35.8435 20.3956C35.9473 20.3956 36.0531 20.3837 36.1593 20.3588L38.0431 19.9172C38.1233 19.8984 38.2038 19.8894 38.2833 19.8894C38.7617 19.8894 39.2023 20.2163 39.3098 20.7005C39.4616 21.3847 39.0782 22.0761 38.4152 22.3085L35.5556 23.4629C34.8336 23.7544 34.4459 24.5401 34.6492 25.2917C36.9434 33.7735 43.3515 32.8914 43.3515 33.9964C43.3515 35.3841 38.5214 35.58 38.0851 36.0165C37.6487 36.4529 38.0661 38.571 37.0911 38.9811C36.9073 39.0584 36.6462 39.0853 36.3277 39.0853C35.5933 39.0853 34.5547 38.9419 33.46 38.9419C32.5105 38.9419 31.5187 39.0498 30.6469 39.4525C28.3339 40.521 26.1039 42.5168 23.3396 42.5168C20.5752 42.5168 18.3453 40.521 16.0323 39.4525C15.1602 39.0497 14.1687 38.9419 13.2191 38.9419C12.1245 38.9419 11.0857 39.0853 10.3514 39.0853C10.0331 39.0853 9.77172 39.0583 9.58803 38.9811C8.61303 38.571 9.03045 36.4529 8.59408 36.0165C8.15772 35.58 3.32767 35.384 3.32767 33.9963C3.32767 32.8912 9.73575 33.7733 12.03 25.2916C12.2333 24.5401 11.8455 23.7544 11.1235 23.4628L8.26382 22.3084C7.60071 22.076 7.21735 21.3846 7.36928 20.7004C7.47672 20.2161 7.91729 19.8892 8.39575 19.8893C8.47516 19.8893 8.55572 19.8983 8.63589 19.9171L10.5198 20.3587C10.626 20.3836 10.7317 20.3955 10.8355 20.3955C11.5402 20.3955 12.1549 19.8477 12.2041 19.1089C12.2838 17.9111 12.3274 16.6109 12.3292 15.199C12.3364 9.17084 17.3059 4.16437 23.3197 4.16227ZM23.3204 1.77045H23.3196H23.3187C21.5237 1.77102 19.7751 2.13171 18.1217 2.84256C16.5345 3.5248 15.1062 4.4976 13.8762 5.73398C12.6478 6.96874 11.6812 8.4022 11.003 9.99458C10.2979 11.6504 9.93934 13.4004 9.93714 15.1961C9.93609 16.0778 9.91781 16.9334 9.88261 17.7527L9.18171 17.5883C8.92454 17.5281 8.6601 17.4974 8.39594 17.4973C7.63314 17.4973 6.88068 17.7551 6.27717 18.2233C5.64755 18.7118 5.20602 19.4075 5.0341 20.1821C4.6249 22.026 5.64305 23.8875 7.40745 24.5421L9.50623 25.3893C8.11648 29.655 5.55389 30.4724 3.82823 31.023C3.37034 31.1691 2.97483 31.2953 2.59826 31.4821C1.09783 32.2269 0.935852 33.4885 0.935852 33.9963C0.935852 34.969 1.39623 35.8567 2.23232 36.4957C2.64859 36.8139 3.16426 37.0764 3.80872 37.2983C4.68709 37.6007 5.70534 37.7926 6.53291 37.9465C6.5729 38.2531 6.63155 38.5825 6.73038 38.9145C7.14072 40.2932 8.00665 40.9106 8.66086 41.1857C9.28159 41.4468 9.92298 41.4769 10.3514 41.4769C10.7704 41.4769 11.2134 41.4441 11.6824 41.4093C12.1855 41.372 12.7058 41.3336 13.2191 41.3336C14.0145 41.3336 14.6066 41.4285 15.0292 41.6237C15.6095 41.8917 16.2249 42.2532 16.8764 42.6358C18.6902 43.701 20.7459 44.9084 23.3396 44.9084C25.9333 44.9084 27.9889 43.701 29.8027 42.6358C30.4542 42.2531 31.0696 41.8917 31.6499 41.6237C32.0725 41.4284 32.6646 41.3336 33.46 41.3336C33.9733 41.3336 34.4936 41.3721 34.9966 41.4093C35.4656 41.4441 35.9086 41.4769 36.3276 41.4769C36.7561 41.4769 37.3974 41.4468 38.0182 41.1857C38.6724 40.9106 39.5383 40.2932 39.9487 38.9145C40.0475 38.5825 40.1062 38.2531 40.1461 37.9465C40.9737 37.7925 41.9921 37.6007 42.8703 37.2983C43.5149 37.0764 44.0305 36.8139 44.4467 36.4957C45.2827 35.8567 45.7432 34.969 45.7432 33.9963C45.7432 33.4885 45.5812 32.2269 44.0806 31.4822C43.704 31.2954 43.3085 31.1692 42.8506 31.0231C41.125 30.4726 38.5624 29.6551 37.1726 25.3894L39.2713 24.5422C41.0357 23.8876 42.054 22.026 41.6448 20.1821C41.4728 19.4075 41.0313 18.7118 40.4017 18.2233C39.7982 17.7552 39.0459 17.4973 38.2833 17.4973C38.0191 17.4973 37.7547 17.528 37.4973 17.5882L36.7963 17.7526C36.7611 16.9334 36.7429 16.0778 36.7418 15.196C36.7396 13.3989 36.3782 11.6471 35.6674 9.98913C34.9852 8.39752 34.0132 6.96443 32.7787 5.72958C31.5442 4.49483 30.1118 3.52308 28.5214 2.84141C26.8648 2.13142 25.115 1.77112 23.3204 1.77045Z" fill="#050505"/>
</g>
<defs>
<clipPath id="clip0_0_760">
<rect width="44.8073" height="44.8073" fill="white" transform="translate(0.935852 0.935791)"/>
</clipPath>
</defs>
</svg>
