<svg width="56" height="32" viewBox="0 0 56 32" fill="none" xmlns="http://www.w3.org/2000/svg">
<g clip-path="url(#clip0_0_837)">
<path d="M0.504639 25.7873C0.504639 26.4707 0.753341 26.9874 1.25066 27.3376C1.74799 27.6878 2.27963 27.8116 2.84556 27.7091C3.37717 27.6067 3.75019 27.4187 3.96462 27.1454C4.17896 26.8721 4.28618 26.4194 4.28618 25.7873V18.3564C4.28618 17.8268 4.10185 17.3784 3.7331 17.0112C3.36443 16.6439 2.91426 16.4603 2.38258 16.4603C1.86809 16.4603 1.4265 16.6439 1.05777 17.0112C0.689037 17.3784 0.504639 17.8268 0.504639 18.3564V25.7873ZM6.42125 28.9647C6.42125 29.4602 6.59705 29.8317 6.9486 30.0794C7.30019 30.3271 7.75041 30.451 8.29913 30.451C8.86507 30.451 9.32379 30.3271 9.67539 30.0794C10.0269 29.8317 10.2028 29.4602 10.2028 28.9647V11.643C10.2028 11.1305 10.0183 10.6906 9.64967 10.3234C9.28094 9.95614 8.83077 9.77246 8.29913 9.77246C7.78466 9.77246 7.343 9.95614 6.97434 10.3234C6.60559 10.6907 6.42125 11.1305 6.42125 11.643V28.9647ZM12.3122 29.7847C12.3122 30.2801 12.4922 30.6516 12.8524 30.8994C13.2125 31.1471 13.6755 31.2709 14.2415 31.2709C14.7903 31.2709 15.2405 31.1471 15.592 30.8994C15.9436 30.6516 16.1194 30.2801 16.1194 29.7847V13.9747C16.1194 13.4452 15.935 12.9925 15.5663 12.6167C15.1976 12.2409 14.756 12.053 14.2415 12.053C13.7099 12.053 13.2554 12.2409 12.8781 12.6167C12.5009 12.9925 12.3122 13.4452 12.3122 13.9747V29.7847H12.3122ZM18.2288 29.8616C18.2288 30.8011 18.8633 31.2709 20.1324 31.2709C21.4014 31.2709 22.0359 30.8011 22.0359 29.8616V4.23769C22.0359 2.80274 21.5986 1.99134 20.724 1.80341C20.158 1.66674 19.6006 1.82903 19.0519 2.29026C18.5031 2.75149 18.2287 3.4006 18.2287 4.23767V29.8616H18.2288ZM24.2483 30.6047V2.72587C24.2483 1.83759 24.5141 1.30804 25.0458 1.13718C26.1948 0.863877 27.3353 0.727203 28.4671 0.727203C31.091 0.727203 33.5349 1.34218 35.7986 2.57213C38.0623 3.80208 39.8931 5.48044 41.2907 7.60721C42.6884 9.73407 43.4987 12.0786 43.7217 14.641C44.7678 14.1969 45.8825 13.9748 47.0658 13.9748C49.4667 13.9748 51.5204 14.8204 53.2268 16.5116C54.9332 18.2028 55.7864 20.2356 55.7864 22.6101C55.7864 25.0017 54.9332 27.043 53.2268 28.7342C51.5204 30.4254 49.4753 31.271 47.0915 31.271L24.7113 31.2454C24.5569 31.1941 24.4411 31.1001 24.3639 30.9635C24.2868 30.8269 24.2483 30.7071 24.2483 30.6047Z" fill="url(#paint0_linear_0_837)"/>
</g>
<defs>
<linearGradient id="paint0_linear_0_837" x1="28.2047" y1="1.5583" x2="28.2047" y2="30.6613" gradientUnits="userSpaceOnUse">
<stop stop-color="#FF8800"/>
<stop offset="1" stop-color="#FF3300"/>
</linearGradient>
<clipPath id="clip0_0_837">
<rect width="55.2818" height="30.5505" fill="white" transform="translate(0.504639 0.724792)"/>
</clipPath>
</defs>
</svg>
