<svg width="46" height="46" viewBox="0 0 46 46" fill="none" xmlns="http://www.w3.org/2000/svg">
<g clip-path="url(#clip0_0_832)">
<path d="M23.3395 0.93576C10.9663 0.93576 0.935852 10.9662 0.935852 23.3394C0.935852 35.7127 10.9663 45.7431 23.3395 45.7431C35.7127 45.7431 45.7432 35.7127 45.7432 23.3394C45.7432 10.9662 35.7127 0.93576 23.3395 0.93576ZM33.0899 33.4496C32.805 33.937 32.2924 34.2088 31.7658 34.2089C31.5032 34.2089 31.2373 34.1413 30.9942 33.9994C26.9682 31.6465 22.3172 31.2684 19.1237 31.3655C15.5862 31.4731 12.9919 32.1715 12.9661 32.1786C12.1507 32.4013 11.308 31.9215 11.0843 31.1061C10.8607 30.2908 11.3389 29.4487 12.1539 29.2241C12.2709 29.192 15.0625 28.4337 18.9445 28.3057C21.2311 28.2302 23.4325 28.3896 25.4865 28.7793C28.088 29.2727 30.4612 30.139 32.5401 31.354C33.2707 31.7809 33.5168 32.7192 33.0899 33.4496ZM35.9381 27.5341C35.6007 28.1115 34.9935 28.4334 34.3696 28.4335C34.0587 28.4335 33.7436 28.3536 33.4557 28.1853C28.6869 25.3983 23.1775 24.9506 19.3948 25.0655C15.2045 25.193 12.1315 26.0202 12.101 26.0286C11.1353 26.2921 10.1369 25.7241 9.87192 24.7583C9.60705 23.7925 10.1736 22.795 11.139 22.529C11.2775 22.4909 14.5842 21.5926 19.1826 21.441C21.8913 21.3517 24.4988 21.5404 26.9317 22.002C30.0134 22.5866 32.8244 23.6127 35.2869 25.0518C36.1524 25.5574 36.4439 26.6689 35.9381 27.5341ZM37.689 22.1555C37.3075 22.1555 36.9211 22.0574 36.5679 21.851C25.2305 15.2252 10.5237 19.1642 10.3765 19.2049C9.1912 19.5315 7.96585 18.8354 7.63937 17.6501C7.31279 16.4649 8.00891 15.2395 9.19413 14.913C9.36397 14.8662 13.42 13.7644 19.0604 13.5785C22.3831 13.4691 25.5813 13.7004 28.5656 14.2665C32.3456 14.9836 35.7937 16.2422 38.8142 18.0074C39.8756 18.6277 40.2332 19.9909 39.6129 21.0523C39.199 21.7606 38.4542 22.1555 37.689 22.1555Z" fill="#00D95F"/>
</g>
<defs>
<clipPath id="clip0_0_832">
<rect width="44.8073" height="44.8073" fill="white" transform="translate(0.935852 0.93576)"/>
</clipPath>
</defs>
</svg>
