<svg width="46" height="46" viewBox="0 0 46 46" fill="none" xmlns="http://www.w3.org/2000/svg">
<g clip-path="url(#clip0_0_795)">
<path d="M22.9817 45.3853C35.3549 45.3853 45.3853 35.3549 45.3853 22.9817C45.3853 10.6085 35.3549 0.578003 22.9817 0.578003C10.6085 0.578003 0.578003 10.6085 0.578003 22.9817C0.578003 35.3549 10.6085 45.3853 22.9817 45.3853Z" fill="#34AADF"/>
<path d="M9.9021 22.7873C9.9021 22.7873 21.1039 18.19 24.9889 16.5712C26.4782 15.9237 31.5287 13.8517 31.5287 13.8517C31.5287 13.8517 33.8598 12.9452 33.6655 15.1467C33.6007 16.0532 33.0827 19.226 32.5648 22.6578C31.7877 27.5141 30.9459 32.8236 30.9459 32.8236C30.9459 32.8236 30.8165 34.3129 29.7157 34.5719C28.615 34.8308 26.8019 33.6654 26.4782 33.4063C26.2191 33.2121 21.6219 30.2983 19.9384 28.8738C19.4851 28.4853 18.9672 27.7084 20.0031 26.8018C22.3342 24.665 25.1184 22.0103 26.8019 20.3268C27.5789 19.5497 28.3559 17.7367 25.1184 19.9382C20.5212 23.111 15.9886 26.0896 15.9886 26.0896C15.9886 26.0896 14.9526 26.737 13.0101 26.1543C11.0675 25.5716 8.80128 24.7945 8.80128 24.7945C8.80128 24.7945 7.24736 23.8233 9.9021 22.7873Z" fill="white"/>
</g>
<defs>
<clipPath id="clip0_0_795">
<rect width="44.8073" height="44.8073" fill="white" transform="translate(0.578003 0.578003)"/>
</clipPath>
</defs>
</svg>
