<svg width="46" height="50" viewBox="0 0 46 50" fill="none" xmlns="http://www.w3.org/2000/svg">
<path d="M15.418 22.0796V20.5846C14.8801 20.5024 14.3369 20.4574 13.7924 20.4499C8.52092 20.439 3.85396 23.7351 2.27094 28.5865C0.687919 33.438 2.55649 38.7192 6.88339 41.624C5.2967 39.9856 4.23543 37.939 3.82766 35.7314C3.41989 33.5238 3.68307 31.2495 4.58541 29.1831C5.48775 27.1166 6.9907 25.3463 8.91283 24.0858C10.835 22.8254 13.0941 22.1286 15.4176 22.0797L15.418 22.0796Z" fill="#25F4EE"/>
<path d="M15.7103 39.014C18.6576 39.0101 21.0802 36.7698 21.2093 33.9287V8.57616H26.0095C25.9116 8.0464 25.8648 7.509 25.8699 6.97089L19.3042 6.97089V32.299C19.195 35.1545 16.7665 37.4163 13.8052 37.4209C12.9202 37.4137 12.0497 37.2037 11.2653 36.8083C11.7736 37.4879 12.4413 38.0419 13.2138 38.4252C13.9862 38.8086 14.8417 39.0103 15.7103 39.014ZM34.9756 17.178V15.7689C33.2089 15.7695 31.4815 15.2665 30.0101 14.3231C31.2999 15.7699 33.043 16.7721 34.9756 17.178Z" fill="#25F4EE"/>
<path d="M30.01 14.3228C28.5604 12.7302 27.7614 10.683 27.7621 8.56348H26.0094C26.2358 9.73532 26.7073 10.8504 27.3951 11.8406C28.0829 12.8308 28.9726 13.6753 30.01 14.3228ZM13.7923 26.7846C12.5631 26.7906 11.3712 27.193 10.4062 27.9277C9.44118 28.6624 8.75841 29.6873 8.46644 30.8394C8.17447 31.9916 8.29006 33.2048 8.79484 34.2863C9.29961 35.3677 10.1646 36.2553 11.2523 36.808C10.6576 36.0157 10.3015 35.0803 10.2232 34.105C10.145 33.1297 10.3478 32.1526 10.809 31.2815C11.2703 30.4104 11.9722 29.6793 12.8371 29.169C13.702 28.6587 14.6963 28.389 15.7102 28.3897C16.2613 28.3967 16.8086 28.4794 17.3356 28.6355V22.1895C16.7974 22.1117 16.2543 22.0707 15.7102 22.067H15.4179V26.9683C14.8882 26.8312 14.3406 26.7693 13.7923 26.7846Z" fill="#FE2C55"/>
<path d="M34.9758 17.1774V22.0789C31.7052 22.0728 28.5196 21.0739 25.8701 19.2238V32.1023C25.856 38.5286 20.4528 43.731 13.7926 43.731C11.3191 43.7353 8.90504 42.9989 6.88361 41.6234C8.53196 43.3341 10.676 44.5261 13.0366 45.0443C15.3971 45.5625 17.8646 45.3828 20.1178 44.5286C22.3709 43.6744 24.3052 42.1853 25.6688 40.2553C27.0323 38.3252 27.7619 36.0437 27.7624 33.708V20.8659C30.4208 22.7038 33.6104 23.6897 36.8808 23.6842V17.373C36.2405 17.3712 35.6021 17.3057 34.9758 17.1774Z" fill="#FE2C55"/>
<path d="M25.87 32.1026V19.2241C28.5275 21.0637 31.7177 22.0497 34.9884 22.0424V17.1411C33.0561 16.7473 31.3089 15.7582 30.0102 14.3228C28.9728 13.6753 28.0831 12.8308 27.3953 11.8406C26.7075 10.8504 26.236 9.73532 26.0096 8.56348H21.2094V33.9288C21.1626 35.0329 20.7606 36.0955 20.0591 36.969C19.3576 37.8425 18.3916 38.4835 17.2952 38.8028C16.1988 39.1222 15.0265 39.1041 13.9413 38.751C12.8561 38.398 11.9118 37.7275 11.2396 36.8328C10.1518 36.2802 9.2866 35.3926 8.7817 34.3111C8.27679 33.2295 8.16114 32.0162 8.45313 30.8639C8.74512 29.7117 9.42798 28.6867 10.3931 27.9519C11.3583 27.2172 12.5503 26.8149 13.7797 26.809C14.3311 26.8138 14.8787 26.8964 15.4053 27.0542V22.1527C13.0693 22.1909 10.7953 22.8841 8.86057 24.1477C6.92583 25.4114 5.41394 27.1908 4.50924 29.2692C3.60455 31.3476 3.34613 33.635 3.7655 35.8526C4.18487 38.0702 5.26391 40.1222 6.87105 41.7584C8.91235 43.0885 11.3298 43.7776 13.7925 43.7313C20.4528 43.7313 25.8559 38.5288 25.87 32.1026Z" fill="black"/>
</svg>
