<svg width="27" height="46" viewBox="0 0 27 46" fill="none" xmlns="http://www.w3.org/2000/svg">
<path d="M23.9181 36.5689C23.9181 36.5689 22.5885 38.098 20.0623 38.098C17.536 38.098 16.4059 36.5689 16.4059 34.3087C16.4059 33.4006 16.4059 27.8344 16.4059 21.5005H24.5743V13.7386H16.4059C16.4059 6.86726 16.4059 0.93576 16.4059 0.93576H10.2549C9.29373 6.68103 5.5056 11.4652 0.367523 13.8134V21.5004H6.36751C6.36751 28.9718 6.36751 35.7346 6.36751 36.2499C6.36751 38.2974 8.29537 45.7431 18.1344 45.7431C23.9181 45.7431 26.3114 42.0203 26.3114 42.0203L23.9181 36.5689Z" fill="#2A445D"/>
</svg>
