<svg width="46" height="46" viewBox="0 0 46 46" fill="none" xmlns="http://www.w3.org/2000/svg">
<g clip-path="url(#clip0_0_790)">
<path d="M45.7431 9.44638C44.0769 10.1773 42.3014 10.6618 40.4503 10.897C42.3546 9.76003 43.808 7.97334 44.4913 5.81979C42.7158 6.87836 40.7555 7.62608 38.6664 8.04335C36.9805 6.24826 34.5777 5.13647 31.9565 5.13647C26.8708 5.13647 22.7766 9.26435 22.7766 14.3248C22.7766 15.0529 22.8382 15.753 22.9894 16.4195C15.3526 16.0471 8.59505 12.3869 4.0555 6.81115C3.26297 8.18617 2.7981 9.76003 2.7981 11.4543C2.7981 14.6356 4.43636 17.4557 6.87836 19.0884C5.40252 19.0604 3.95469 18.6319 2.72808 17.957C2.72808 17.985 2.72808 18.0214 2.72808 18.0578C2.72808 22.5217 5.91221 26.2295 10.0877 27.0837C9.33997 27.2881 8.52503 27.3861 7.6793 27.3861C7.0912 27.3861 6.4975 27.3525 5.94021 27.2293C7.13041 30.8671 10.5078 33.5415 14.5236 33.6283C11.3983 36.0731 7.43005 37.5462 3.13415 37.5462C2.38083 37.5462 1.65831 37.5126 0.935791 37.4202C5.00486 40.0442 9.82725 41.5424 15.0277 41.5424C31.9313 41.5424 41.1728 27.5401 41.1728 15.403C41.1728 14.9969 41.1588 14.6048 41.1392 14.2156C42.9623 12.9218 44.4941 11.3059 45.7431 9.44638Z" fill="#03A9F4"/>
</g>
<defs>
<clipPath id="clip0_0_790">
<rect width="44.8073" height="44.8073" fill="white" transform="translate(0.935791 0.935791)"/>
</clipPath>
</defs>
</svg>
