<svg width="20" height="20" viewBox="0 0 20 20" fill="none" xmlns="http://www.w3.org/2000/svg">
<path d="M10.0136 20C6.96599 20 4.60771 19.3115 2.93878 17.9345C1.28798 16.5575 0.335601 14.6432 0.0816327 12.1914C0.0272109 11.7045 0 10.974 0 10C0 9.00924 0.0272109 8.30395 0.0816327 7.88413C0.244898 6.3728 0.716553 5.02099 1.4966 3.82872C2.27664 2.63644 3.36508 1.70445 4.7619 1.03275C6.17687 0.344249 7.85487 0 9.79592 0C16.1995 0 19.5828 2.62804 19.9456 7.88413C19.9819 8.48866 20 8.96725 20 9.3199C20 10.0084 19.9819 10.6045 19.9456 11.1083C19.873 12.3174 19.4739 13.2494 18.7483 13.9043C18.0227 14.5592 17.1066 14.8866 16 14.8866C15.22 14.8866 14.5578 14.7439 14.0136 14.4584C13.4875 14.173 13.0975 13.8623 12.8435 13.5264C12.5351 13.9798 12.127 14.3661 11.619 14.6851C11.1111 14.9874 10.3583 15.1385 9.36054 15.1385C8 15.1385 6.92063 14.6851 6.12245 13.7783C5.3424 12.8715 4.95238 11.6121 4.95238 10C4.95238 8.38791 5.3424 7.12846 6.12245 6.22166C6.90249 5.29807 7.96372 4.83627 9.30612 4.83627C10.4853 4.83627 11.4014 5.2309 12.0544 6.02015V5.64232C12.0544 5.4576 12.1179 5.31486 12.2449 5.21411C12.3719 5.09656 12.5261 5.03778 12.7075 5.03778H13.7959C13.9773 5.03778 14.1315 5.09656 14.2585 5.21411C14.3855 5.33165 14.449 5.47439 14.449 5.64232V10.8816C14.449 11.5029 14.585 11.9731 14.8571 12.2922C15.1474 12.6112 15.5283 12.7708 16 12.7708C16.5805 12.7708 16.9796 12.5861 17.1973 12.2166C17.4331 11.8304 17.5601 11.3854 17.5782 10.8816C17.6145 10.3778 17.6327 9.85726 17.6327 9.3199C17.6327 9.05122 17.6145 8.61461 17.5782 8.01007C17.4331 5.99496 16.7619 4.50882 15.5646 3.55164C14.3855 2.57767 12.4626 2.09068 9.79592 2.09068C7.58277 2.09068 5.85941 2.61125 4.62585 3.65239C3.41043 4.69353 2.68481 6.14609 2.44898 8.01007C2.39456 8.42989 2.36735 9.0932 2.36735 10C2.36735 10.89 2.39456 11.5785 2.44898 12.0655C2.66667 13.9463 3.40136 15.3904 4.65306 16.398C5.9229 17.4055 7.70975 17.9093 10.0136 17.9093C11.1383 17.9093 12.0635 17.8338 12.7891 17.6826C13.5147 17.5315 14.068 17.3552 14.449 17.1537C14.8299 16.9689 15.229 16.7254 15.6463 16.4232C15.8095 16.3056 15.9365 16.2217 16.0272 16.1713C16.1361 16.1209 16.2721 16.0957 16.4354 16.0957H17.932C18.1134 16.0957 18.2676 16.1545 18.3946 16.272C18.5215 16.3728 18.585 16.5071 18.585 16.6751C18.585 16.759 18.5306 16.885 18.4218 17.0529C16.517 19.0176 13.7143 20 10.0136 20ZM9.68707 13.0227C10.5215 13.0227 11.1202 12.7708 11.483 12.267C11.8639 11.7632 12.0544 11.0076 12.0544 10C12.0544 8.99244 11.8639 8.23678 11.483 7.733C11.1202 7.21243 10.5215 6.95214 9.68707 6.95214C8.10884 6.95214 7.31973 7.96809 7.31973 10C7.31973 10.9236 7.51927 11.6625 7.91837 12.2166C8.31746 12.754 8.90703 13.0227 9.68707 13.0227Z" fill="#606C85"/>
</svg>
