<svg width="46" height="46" viewBox="0 0 46 46" fill="none" xmlns="http://www.w3.org/2000/svg">
<g clip-path="url(#clip0_0_886)">
<path d="M40.4462 0.93576H6.23284C3.3074 0.93576 0.935852 3.3073 0.935852 6.23275V40.4461C0.935852 43.3716 3.3074 45.7431 6.23284 45.7431H40.4462C43.3716 45.7431 45.7432 43.3716 45.7432 40.4461V6.23275C45.7432 3.3073 43.3716 0.93576 40.4462 0.93576Z" fill="#3396CD"/>
<path d="M34.3816 10.0536C35.3454 11.6427 35.7779 13.2812 35.7779 15.3506C35.7779 21.9501 30.1448 30.5208 25.5729 36.5385H15.1326L10.9463 11.4994L20.091 10.631L22.3148 28.4471C24.3815 25.0762 26.9371 19.7792 26.9371 16.1703C26.9371 14.193 26.5985 12.8488 26.0688 11.7416L34.3816 10.0536Z" fill="white"/>
</g>
<defs>
<clipPath id="clip0_0_886">
<rect width="44.8073" height="44.8073" fill="white" transform="translate(0.935852 0.93576)"/>
</clipPath>
</defs>
</svg>
