<svg width="46" height="49" viewBox="0 0 46 49" fill="none" xmlns="http://www.w3.org/2000/svg">
<g clip-path="url(#clip0_0_801)">
<path d="M38.3527 7.60942C37.3601 6.70389 33.0757 4.00081 24.1361 3.96166C24.1361 3.96166 13.5509 3.26328 8.41213 7.9369C5.55136 10.7724 4.58785 14.989 4.48079 20.1353C4.37373 25.2816 3.82781 35.1101 13.2013 37.7249C13.2013 37.7249 13.1652 45.0225 13.1602 45.664C13.1602 46.1125 13.2311 46.4193 13.4864 46.4827C13.6707 46.5275 13.9451 46.4321 14.1797 46.1979C15.6778 44.6865 20.4763 38.8739 20.4763 38.8739C26.9153 39.296 32.037 38.0196 32.5879 37.8388C33.8839 37.4216 40.9058 36.8129 42.0976 27.1724C43.3333 17.23 41.6509 10.4449 38.3527 7.60942Z" fill="white"/>
<path d="M40.6849 5.20583C39.5108 4.11805 34.7663 0.65965 24.1981 0.612665C24.1981 0.612665 11.7355 -0.141948 5.66021 5.45358C2.27833 8.85005 1.08865 13.8198 0.963161 19.9813C0.83767 26.1428 0.675311 37.6898 11.7603 40.8207H11.771L11.7639 45.5983C11.7639 45.5983 11.693 47.5325 12.9614 47.9269C14.4956 48.4053 15.396 46.9352 16.8608 45.3505C17.6648 44.4806 18.7751 43.2027 19.6117 42.226C27.1929 42.8667 33.0236 41.4023 33.6858 41.1859C35.2165 40.6876 43.8782 39.5727 45.287 28.0272C46.7411 16.1264 44.5837 8.59874 40.6849 5.20583ZM41.9696 27.1736C40.7806 36.8141 33.7553 37.42 32.46 37.8371C31.9091 38.0151 26.7881 39.2944 20.3483 38.8722C20.3483 38.8722 15.5499 44.6849 14.0511 46.1962C13.8171 46.4326 13.542 46.528 13.3584 46.481C13.1003 46.4176 13.0294 46.1108 13.0323 45.6623C13.0365 45.0216 13.0734 37.7232 13.0734 37.7232C13.0734 37.7232 13.0677 37.7232 13.0734 37.7232C3.69631 35.1091 4.24294 25.2814 4.34929 20.1351C4.45564 14.9887 5.41844 10.7729 8.2785 7.93739C13.4172 3.26378 24.0031 3.96215 24.0031 3.96215C32.9428 4.0013 37.2265 6.70438 38.2198 7.60992C41.518 10.4454 43.1983 17.2305 41.9696 27.1708V27.1736Z" fill="#7360F2"/>
<path d="M28.5488 20.3118C28.3956 20.3119 28.2483 20.2527 28.1373 20.1467C28.0263 20.0407 27.9602 19.8959 27.9525 19.7423C27.8511 17.7056 26.8954 16.7082 24.945 16.6029C24.7896 16.5904 24.6452 16.5176 24.5425 16.3997C24.4399 16.2819 24.3872 16.1285 24.3956 15.9722C24.404 15.8159 24.4729 15.6691 24.5876 15.5631C24.7023 15.4571 24.8537 15.4002 25.0095 15.4047C27.5831 15.5471 29.0139 17.0229 29.1457 19.6825C29.1497 19.7612 29.1381 19.84 29.1117 19.9142C29.0853 19.9884 29.0446 20.0567 28.992 20.1151C28.9393 20.1736 28.8757 20.221 28.8047 20.2548C28.7338 20.2885 28.657 20.3079 28.5786 20.3118H28.5488Z" fill="#7360F2"/>
<path d="M31.6159 21.3441H31.6017C31.4433 21.3404 31.2928 21.2736 31.1834 21.1585C31.074 21.0435 31.0146 20.8895 31.0182 20.7304C31.0643 18.6795 30.4808 17.0186 29.2344 15.6532C27.988 14.2878 26.2899 13.5474 24.0261 13.3808C23.8678 13.3692 23.7206 13.2949 23.6168 13.1743C23.513 13.0536 23.4612 12.8966 23.4728 12.7376C23.4843 12.5786 23.5583 12.4308 23.6785 12.3266C23.7986 12.2224 23.955 12.1703 24.1134 12.182C26.6608 12.3692 28.6799 13.264 30.1157 14.8409C31.5514 16.4178 32.2653 18.4125 32.2128 20.7553C32.2097 20.9123 32.1455 21.0619 32.0339 21.1719C31.9223 21.2819 31.7723 21.3437 31.6159 21.3441Z" fill="#7360F2"/>
<path d="M34.7546 22.5757C34.5969 22.5755 34.4456 22.5128 34.3337 22.4012C34.2218 22.2896 34.1582 22.1382 34.1569 21.9798C34.1293 18.3114 33.0771 15.5094 30.9402 13.415C28.8289 11.3505 26.1617 10.2912 23.0116 10.2684C22.9331 10.2681 22.8555 10.2523 22.7831 10.2219C22.7107 10.1915 22.6449 10.147 22.5896 10.0911C22.4779 9.97815 22.4155 9.82528 22.4161 9.66611C22.4166 9.50695 22.4802 9.35453 22.5926 9.24238C22.7051 9.13024 22.8574 9.06755 23.0159 9.06812H23.0208C26.4892 9.09375 29.4344 10.267 31.7747 12.5564C34.1151 14.8459 35.3218 18.0195 35.353 21.9727C35.3541 22.1318 35.2923 22.2847 35.1812 22.3981C35.0701 22.5114 34.9187 22.5758 34.7603 22.5771L34.7546 22.5757Z" fill="#7360F2"/>
<path d="M25.0953 27.7498C25.0953 27.7498 25.9355 27.821 26.3878 27.2614L27.2698 26.1473C27.6952 25.5949 28.7218 25.2425 29.7271 25.8049C30.4805 26.2363 31.2119 26.7053 31.9186 27.2101C32.5858 27.7028 33.952 28.8475 33.9563 28.8475C34.6071 29.3992 34.7574 30.2094 34.3143 31.0637C34.3143 31.0686 34.3107 31.0772 34.3107 31.0815C33.8227 31.931 33.2031 32.6971 32.4752 33.351C32.4667 33.3553 32.4667 33.3595 32.4589 33.3638C31.8265 33.8944 31.2051 34.196 30.5949 34.2686C30.5051 34.2844 30.4138 34.2901 30.3227 34.2857C30.0536 34.2883 29.7859 34.247 29.53 34.1633L29.5102 34.1341C28.5701 33.8678 27.0004 33.2015 24.3863 31.7535C22.8736 30.9254 21.4335 29.9702 20.0814 28.8981C19.4036 28.361 18.7572 27.7853 18.1451 27.1738L18.0799 27.1083L18.0147 27.0429L17.9494 26.9774C17.9275 26.956 17.9062 26.9339 17.8842 26.9119C17.2753 26.2973 16.7019 25.6482 16.167 24.9677C15.0994 23.6101 14.1481 22.1643 13.3233 20.6457C11.8812 18.0202 11.2176 16.4455 10.9524 15.5001L10.9234 15.4802C10.8402 15.2232 10.7993 14.9544 10.8021 14.6843C10.7972 14.5928 10.8026 14.5011 10.8184 14.4109C10.8945 13.7992 11.1954 13.1748 11.721 12.5379C11.7252 12.5301 11.7295 12.5301 11.7337 12.5215C12.3848 11.7906 13.1478 11.1687 13.994 10.6791C13.9982 10.6791 14.0068 10.6749 14.0117 10.6749C14.8625 10.2299 15.6693 10.3809 16.2181 11.0308C16.2223 11.0351 17.3603 12.4069 17.8488 13.0768C18.3516 13.7871 18.8187 14.5222 19.2483 15.2794C19.8084 16.2882 19.4575 17.3212 18.9073 17.7469L17.7977 18.6325C17.2376 19.0867 17.3113 19.9303 17.3113 19.9303C17.3113 19.9303 18.9548 26.1758 25.0953 27.7498Z" fill="#7360F2"/>
</g>
<defs>
<clipPath id="clip0_0_801">
<rect width="44.8073" height="47.4431" fill="white" transform="translate(0.935852 0.578003)"/>
</clipPath>
</defs>
</svg>
