<svg width="40" height="40" viewBox="0 0 40 40" fill="none" xmlns="http://www.w3.org/2000/svg">
<path fill-rule="evenodd" clip-rule="evenodd" d="M33.1993 6.80066C30.4657 4.06699 26.0335 4.06699 23.2998 6.80066L20 10.1005C19.0888 11.0117 17.6114 11.0117 16.7002 10.1005C15.7889 9.18927 15.7889 7.71189 16.7002 6.80066L20 3.50083C24.5561 -1.05529 31.943 -1.05529 36.4992 3.50083C41.0553 8.05695 41.0553 15.4439 36.4992 20L33.1993 23.2998C32.2881 24.211 30.8107 24.211 29.8995 23.2998C28.9883 22.3886 28.9883 20.9112 29.8995 20L33.1993 16.7002C35.933 13.9665 35.933 9.53433 33.1993 6.80066ZM6.80067 33.1993C4.067 30.4656 4.06699 26.0335 6.80066 23.2998L10.1005 20C11.0117 19.0888 11.0117 17.6114 10.1005 16.7002C9.18927 15.7889 7.71189 15.7889 6.80067 16.7002L3.50083 20C-1.05528 24.5561 -1.05528 31.943 3.50083 36.4992C8.05695 41.0553 15.4439 41.0553 20 36.4992L23.2998 33.1993C24.211 32.2881 24.211 30.8107 23.2998 29.8995C22.3886 28.9883 20.9112 28.9883 20 29.8995L16.7002 33.1993C13.9665 35.933 9.53434 35.933 6.80067 33.1993ZM28.2496 15.0502C29.1608 14.139 29.1608 12.6616 28.2496 11.7504C27.3383 10.8392 25.861 10.8392 24.9497 11.7504L11.7504 24.9497C10.8392 25.861 10.8392 27.3383 11.7504 28.2496C12.6616 29.1608 14.139 29.1608 15.0502 28.2496L28.2496 15.0502Z" fill="url(#paint0_linear_249_115)"/>
<defs>
<linearGradient id="paint0_linear_249_115" x1="41.4551" y1="-4.77925" x2="11.2992" y2="-12.2278" gradientUnits="userSpaceOnUse">
<stop stop-color="#F78361"/>
<stop offset="0.458333" stop-color="#F77562"/>
<stop offset="1" stop-color="#F54B64"/>
</linearGradient>
</defs>
</svg>
