<svg width="46" height="46" viewBox="0 0 46 46" fill="none" xmlns="http://www.w3.org/2000/svg">
<g clip-path="url(#clip0_0_779)">
<path d="M22.2531 0.961704C10.4195 1.52515 1.08115 11.3802 1.11705 23.2272C1.12798 26.8355 1.99908 30.2412 3.53575 33.2505L1.17641 44.703C1.04879 45.3225 1.60752 45.8649 2.22294 45.7192L13.4451 43.0605C16.3282 44.4966 19.5666 45.3261 22.9939 45.3784C35.0889 45.5632 45.1741 35.9594 45.551 23.8689C45.9551 10.9086 35.2586 0.342319 22.2531 0.961704ZM35.6435 35.4624C32.357 38.7489 27.9873 40.5588 23.3396 40.5588C20.6181 40.5588 18.0126 39.9482 15.5952 38.744L14.0324 37.9655L7.15208 39.5956L8.60035 32.5652L7.83041 31.0575C6.57545 28.5998 5.93914 25.9421 5.93914 23.1584C5.93914 18.5105 7.74907 14.141 11.0356 10.8544C14.2927 7.59726 18.7336 5.75786 23.3399 5.75786C27.9876 5.75797 32.3571 7.5679 35.6436 10.8543C38.9301 14.1408 40.74 18.5103 40.7401 23.1581C40.74 27.7644 38.9006 32.2054 35.6435 35.4624Z" fill="#00D95F"/>
<path d="M34.1245 27.9777L29.82 26.7417C29.2541 26.5793 28.6447 26.7398 28.2323 27.16L27.1797 28.2324C26.7359 28.6847 26.0624 28.83 25.4749 28.5923C23.4386 27.7682 19.1553 23.9598 18.0614 22.0548C17.7458 21.5052 17.798 20.8182 18.1855 20.3168L19.1045 19.1279C19.4645 18.6621 19.5405 18.0365 19.3024 17.498L17.4914 13.402C17.0576 12.421 15.8039 12.1354 14.9849 12.8281C13.7835 13.8442 12.3581 15.3882 12.1848 17.0988C11.8793 20.1147 13.1727 23.9166 18.0638 28.4816C23.7144 33.7555 28.2393 34.4522 31.1855 33.7385C32.8565 33.3338 34.1919 31.7112 35.0347 30.3826C35.6093 29.4768 35.1556 28.2738 34.1245 27.9777Z" fill="#00D95F"/>
</g>
<defs>
<clipPath id="clip0_0_779">
<rect width="44.8073" height="44.8073" fill="white" transform="translate(0.935852 0.935791)"/>
</clipPath>
</defs>
</svg>
