<svg width="53" height="37" viewBox="0 0 53 37" fill="none" xmlns="http://www.w3.org/2000/svg">
<g clip-path="url(#clip0_0_772)">
<path d="M34.9109 17.8052C30.1801 15.2479 25.6504 12.8967 21.0201 10.442V25.1268C25.8926 22.4474 31.0283 19.9937 34.931 17.8052H34.9109Z" fill="white"/>
<path d="M34.9109 17.8052C30.1801 15.2479 21.0201 10.442 21.0201 10.442L33.2328 18.7455C33.2338 18.7455 31.0082 19.9937 34.9109 17.8052Z" fill="#E8E0E0"/>
<path d="M21.9104 36.6223C12.0841 36.4393 8.72795 36.2747 6.66505 35.8448C5.26937 35.5591 4.05652 34.9249 3.16722 34.0049C2.47991 33.3087 1.93332 32.2464 1.50925 30.7726C1.14549 29.5448 1.00382 28.5232 0.801834 26.0278C0.492639 20.396 0.41893 15.7915 0.801834 10.6468C1.11773 7.80566 1.27089 4.43295 3.36921 2.4653C4.35997 1.54441 5.51251 0.951789 6.80673 0.706801C8.82846 0.318498 17.4419 0.0115356 26.3588 0.0115356C35.2556 0.0115356 43.8881 0.318498 45.9118 0.706801C47.5286 1.01376 49.0449 1.93368 49.9351 3.11989C51.8497 6.16627 51.8832 9.9544 52.0775 12.9175C52.1579 14.3293 52.1579 22.3462 52.0775 23.758C51.775 28.4409 51.5318 30.0977 50.8445 31.8155C50.4195 32.9001 50.0567 33.4724 49.4287 34.1066C48.4439 35.0827 47.1883 35.7319 45.8294 35.9678C37.3261 36.6146 30.1055 36.755 21.9104 36.6223ZM34.932 17.8057C30.2012 15.2483 25.6715 12.8768 21.0412 10.4221V25.1079C25.9136 22.4285 31.0503 19.9738 34.9521 17.7853L34.932 17.8057Z" fill="#CD201F"/>
</g>
<defs>
<clipPath id="clip0_0_772">
<rect width="51.5963" height="36.6606" fill="white" transform="translate(0.541321 0.00915527)"/>
</clipPath>
</defs>
</svg>
